<svg width="534" height="48" viewBox="0 0 534 48" fill="none" xmlns="http://www.w3.org/2000/svg">
<g clip-path="url(#clip0_53_133)">
<path d="M0.5 0.5H533.5V36C533.5 42.3513 528.351 47.5 522 47.5H12C5.64872 47.5 0.5 42.3513 0.5 36V0.5Z" fill="#E6F6F5"/>
<path d="M0.5 0.5H533.5V36C533.5 42.3513 528.351 47.5 522 47.5H12C5.64872 47.5 0.5 42.3513 0.5 36V0.5Z" stroke="#F4F4F4"/>
<path d="M32.7921 19.76V21.622H29.7821V29H27.3741V21.622H24.3501V19.76H32.7921ZM36.0338 21.86C36.7711 21.86 37.4151 22.0047 37.9658 22.294C38.5258 22.574 38.9598 22.9893 39.2678 23.54C39.5851 24.0813 39.7438 24.7347 39.7438 25.5C39.7438 26.2653 39.5851 26.9233 39.2678 27.474C38.9598 28.0153 38.5258 28.4307 37.9658 28.72C37.4151 29 36.7711 29.14 36.0338 29.14C35.3151 29.14 34.6758 29 34.1158 28.72C33.5558 28.4307 33.1171 28.0153 32.7998 27.474C32.4918 26.9233 32.3378 26.2653 32.3378 25.5C32.3378 24.7347 32.4918 24.0813 32.7998 23.54C33.1171 22.9893 33.5558 22.574 34.1158 22.294C34.6758 22.0047 35.3151 21.86 36.0338 21.86ZM36.0338 23.554C35.7631 23.554 35.5298 23.6193 35.3338 23.75C35.1378 23.8807 34.9884 24.0907 34.8858 24.38C34.7831 24.6693 34.7318 25.0427 34.7318 25.5C34.7318 25.9573 34.7831 26.3307 34.8858 26.62C34.9884 26.9 35.1378 27.11 35.3338 27.25C35.5298 27.3807 35.7631 27.446 36.0338 27.446C36.3138 27.446 36.5518 27.3807 36.7478 27.25C36.9438 27.11 37.0931 26.9 37.1958 26.62C37.2984 26.3307 37.3498 25.9573 37.3498 25.5C37.3498 25.0427 37.2984 24.6693 37.1958 24.38C37.0931 24.0907 36.9438 23.8807 36.7478 23.75C36.5518 23.6193 36.3138 23.554 36.0338 23.554ZM43.6586 29.14C43.0799 29.14 42.5713 29 42.1326 28.72C41.7033 28.4307 41.3673 28.0153 41.1246 27.474C40.8913 26.9327 40.7746 26.284 40.7746 25.528C40.7746 24.744 40.8959 24.0813 41.1386 23.54C41.3906 22.9987 41.7359 22.5833 42.1746 22.294C42.6226 22.0047 43.1359 21.86 43.7146 21.86C44.3493 21.86 44.8579 22.056 45.2406 22.448C45.6326 22.8307 45.8846 23.3207 45.9966 23.918L45.7726 24.212V19.032H48.1526V29H46.0246L45.8706 26.62L46.1506 26.83C46.0946 27.2967 45.9499 27.7027 45.7166 28.048C45.4926 28.3933 45.2033 28.664 44.8486 28.86C44.5033 29.0467 44.1066 29.14 43.6586 29.14ZM44.4846 27.39C44.7553 27.39 44.9839 27.32 45.1706 27.18C45.3666 27.0307 45.5159 26.8113 45.6186 26.522C45.7213 26.2327 45.7726 25.878 45.7726 25.458C45.7726 25.066 45.7213 24.7347 45.6186 24.464C45.5253 24.184 45.3806 23.974 45.1846 23.834C44.9979 23.6847 44.7693 23.61 44.4986 23.61C44.0879 23.61 43.7613 23.764 43.5186 24.072C43.2853 24.3707 43.1686 24.8467 43.1686 25.5C43.1686 26.1533 43.2853 26.634 43.5186 26.942C43.7519 27.2407 44.0739 27.39 44.4846 27.39ZM53.766 24.562C53.766 24.2353 53.6726 23.9787 53.486 23.792C53.3086 23.596 53.066 23.498 52.758 23.498C52.45 23.498 52.184 23.5773 51.96 23.736C51.7453 23.8853 51.596 24.156 51.512 24.548L49.496 24.072C49.6266 23.4 49.972 22.8633 50.532 22.462C51.092 22.0607 51.8806 21.86 52.898 21.86C53.5793 21.86 54.158 21.9627 54.634 22.168C55.1193 22.364 55.488 22.6627 55.74 23.064C56.0013 23.456 56.132 23.9413 56.132 24.52V27.082C56.132 27.446 56.2953 27.628 56.622 27.628C56.79 27.628 56.9253 27.6093 57.028 27.572L56.888 28.93C56.608 29.0607 56.2673 29.126 55.866 29.126C55.502 29.126 55.18 29.07 54.9 28.958C54.62 28.8367 54.4006 28.6593 54.242 28.426C54.0833 28.1833 54.004 27.88 54.004 27.516V27.432L54.27 27.334C54.27 27.7353 54.1486 28.0713 53.906 28.342C53.6726 28.6127 53.3646 28.8133 52.982 28.944C52.6086 29.0747 52.2166 29.14 51.806 29.14C51.33 29.14 50.9146 29.0653 50.56 28.916C50.2053 28.7667 49.93 28.552 49.734 28.272C49.5473 27.9827 49.454 27.628 49.454 27.208C49.454 26.704 49.6033 26.2887 49.902 25.962C50.21 25.626 50.6906 25.3927 51.344 25.262L53.99 24.716L53.976 25.976L52.632 26.256C52.352 26.312 52.142 26.396 52.002 26.508C51.8713 26.6107 51.806 26.7693 51.806 26.984C51.806 27.1893 51.8806 27.3433 52.03 27.446C52.1793 27.5487 52.3566 27.6 52.562 27.6C52.7206 27.6 52.87 27.5767 53.01 27.53C53.1593 27.4833 53.29 27.4133 53.402 27.32C53.514 27.2173 53.6026 27.0913 53.668 26.942C53.7333 26.7927 53.766 26.6153 53.766 26.41V24.562ZM64.5582 22L62.0102 29C61.7489 29.7373 61.4642 30.3253 61.1562 30.764C60.8482 31.2027 60.4842 31.52 60.0642 31.716C59.6442 31.912 59.1402 32.01 58.5522 32.01C58.1602 32.01 57.8009 31.968 57.4742 31.884C57.1475 31.8 56.8629 31.6833 56.6202 31.534L57.0962 29.924C57.2642 30.0453 57.4415 30.1293 57.6282 30.176C57.8149 30.232 58.0529 30.26 58.3422 30.26C58.6129 30.26 58.8322 30.2133 59.0002 30.12C59.1775 30.0267 59.3175 29.8493 59.4202 29.588L59.6022 29.154L58.7902 27.25L56.6902 22H59.3082L60.3862 25.99L60.7222 27.474L61.1142 25.934L62.1922 22H64.5582ZM66.9106 19.34C67.256 19.34 67.5406 19.4193 67.7646 19.578C67.9886 19.7367 68.152 19.9467 68.2546 20.208C68.3666 20.46 68.4226 20.7447 68.4226 21.062C68.4226 21.482 68.3293 21.888 68.1426 22.28C67.9653 22.6627 67.7273 23.0033 67.4286 23.302C67.1393 23.5913 66.822 23.8107 66.4766 23.96L65.5106 23.246C65.772 23.1433 66.01 23.0127 66.2246 22.854C66.4486 22.6953 66.64 22.5227 66.7986 22.336C66.9666 22.1493 67.0926 21.958 67.1766 21.762L67.1066 21.72C67.06 21.7573 66.9993 21.7853 66.9246 21.804C66.85 21.8227 66.752 21.832 66.6306 21.832C66.4626 21.832 66.29 21.79 66.1126 21.706C65.9446 21.622 65.8 21.496 65.6786 21.328C65.5666 21.16 65.5106 20.9453 65.5106 20.684C65.5106 20.3853 65.576 20.138 65.7066 19.942C65.8373 19.746 66.01 19.5967 66.2246 19.494C66.4393 19.3913 66.668 19.34 66.9106 19.34ZM72.1457 29.14C71.4457 29.14 70.7923 29.028 70.1857 28.804C69.5883 28.5707 69.0937 28.2393 68.7017 27.81L69.8217 26.494C70.055 26.7927 70.363 27.0447 70.7457 27.25C71.1377 27.446 71.5717 27.544 72.0477 27.544C72.337 27.544 72.575 27.502 72.7617 27.418C72.9483 27.334 73.0417 27.2033 73.0417 27.026C73.0417 26.8953 72.995 26.7927 72.9017 26.718C72.8083 26.634 72.6217 26.564 72.3417 26.508L71.3617 26.312C70.4843 26.1347 69.859 25.8733 69.4857 25.528C69.1217 25.1733 68.9397 24.7113 68.9397 24.142C68.9397 23.7593 69.0563 23.3953 69.2897 23.05C69.523 22.6953 69.8823 22.4107 70.3677 22.196C70.853 21.972 71.4737 21.86 72.2297 21.86C72.939 21.86 73.5643 21.9627 74.1057 22.168C74.647 22.3733 75.0763 22.672 75.3937 23.064L74.2597 24.352C74.0357 24.072 73.7463 23.8527 73.3917 23.694C73.037 23.5353 72.6823 23.456 72.3277 23.456C72.1037 23.456 71.9123 23.4793 71.7537 23.526C71.6043 23.5633 71.4923 23.6193 71.4177 23.694C71.343 23.7687 71.3057 23.862 71.3057 23.974C71.3057 24.0953 71.3617 24.2027 71.4737 24.296C71.595 24.38 71.8143 24.4547 72.1317 24.52L73.4057 24.772C74.1243 24.9027 74.6423 25.1407 74.9597 25.486C75.277 25.8313 75.4357 26.2467 75.4357 26.732C75.4357 27.1893 75.3143 27.6 75.0717 27.964C74.829 28.328 74.465 28.6173 73.9797 28.832C73.4943 29.0373 72.883 29.14 72.1457 29.14ZM83.6164 29.14C82.9164 29.14 82.263 29.028 81.6564 28.804C81.059 28.5707 80.5644 28.2393 80.1724 27.81L81.2924 26.494C81.5257 26.7927 81.8337 27.0447 82.2164 27.25C82.6084 27.446 83.0424 27.544 83.5184 27.544C83.8077 27.544 84.0457 27.502 84.2324 27.418C84.419 27.334 84.5124 27.2033 84.5124 27.026C84.5124 26.8953 84.4657 26.7927 84.3724 26.718C84.279 26.634 84.0924 26.564 83.8124 26.508L82.8324 26.312C81.955 26.1347 81.3297 25.8733 80.9564 25.528C80.5924 25.1733 80.4104 24.7113 80.4104 24.142C80.4104 23.7593 80.527 23.3953 80.7604 23.05C80.9937 22.6953 81.353 22.4107 81.8384 22.196C82.3237 21.972 82.9444 21.86 83.7004 21.86C84.4097 21.86 85.035 21.9627 85.5764 22.168C86.1177 22.3733 86.547 22.672 86.8644 23.064L85.7304 24.352C85.5064 24.072 85.217 23.8527 84.8624 23.694C84.5077 23.5353 84.153 23.456 83.7984 23.456C83.5744 23.456 83.383 23.4793 83.2244 23.526C83.075 23.5633 82.963 23.6193 82.8884 23.694C82.8137 23.7687 82.7764 23.862 82.7764 23.974C82.7764 24.0953 82.8324 24.2027 82.9444 24.296C83.0657 24.38 83.285 24.4547 83.6024 24.52L84.8764 24.772C85.595 24.9027 86.113 25.1407 86.4304 25.486C86.7477 25.8313 86.9064 26.2467 86.9064 26.732C86.9064 27.1893 86.785 27.6 86.5424 27.964C86.2997 28.328 85.9357 28.6173 85.4504 28.832C84.965 29.0373 84.3537 29.14 83.6164 29.14ZM91.5162 29.14C90.7415 29.14 90.0695 28.9953 89.5002 28.706C88.9402 28.4167 88.5062 28.0013 88.1982 27.46C87.8902 26.9187 87.7362 26.2653 87.7362 25.5C87.7362 24.7347 87.8902 24.0813 88.1982 23.54C88.5062 22.9987 88.9355 22.5833 89.4862 22.294C90.0462 22.0047 90.6855 21.86 91.4042 21.86C92.1415 21.86 92.7669 22.0047 93.2802 22.294C93.8029 22.574 94.1995 22.966 94.4702 23.47C94.7409 23.9647 94.8762 24.534 94.8762 25.178C94.8762 25.346 94.8715 25.514 94.8622 25.682C94.8529 25.85 94.8389 25.99 94.8202 26.102H89.2762V24.828H93.7702L92.6362 25.262C92.6362 24.702 92.5335 24.2727 92.3282 23.974C92.1322 23.6753 91.8242 23.526 91.4042 23.526C91.1055 23.526 90.8489 23.596 90.6342 23.736C90.4289 23.876 90.2702 24.0953 90.1582 24.394C90.0555 24.6927 90.0042 25.0753 90.0042 25.542C90.0042 25.9993 90.0649 26.3727 90.1862 26.662C90.3075 26.942 90.4802 27.1473 90.7042 27.278C90.9282 27.3993 91.1989 27.46 91.5162 27.46C91.8709 27.46 92.1509 27.39 92.3562 27.25C92.5709 27.11 92.7295 26.914 92.8322 26.662L94.7362 27.292C94.6055 27.6933 94.3769 28.034 94.0502 28.314C93.7329 28.5847 93.3502 28.79 92.9022 28.93C92.4635 29.07 92.0015 29.14 91.5162 29.14ZM98.5596 19.032V26.62C98.5596 26.928 98.6109 27.1473 98.7136 27.278C98.8163 27.4087 98.9889 27.474 99.2316 27.474C99.3716 27.474 99.4883 27.4647 99.5816 27.446C99.6749 27.4273 99.7869 27.3993 99.9176 27.362L99.7636 28.79C99.5956 28.8927 99.3763 28.9767 99.1056 29.042C98.8349 29.1073 98.5689 29.14 98.3076 29.14C97.5609 29.14 97.0196 28.9673 96.6836 28.622C96.3476 28.2767 96.1796 27.712 96.1796 26.928V19.032H98.5596ZM103.14 19.032V26.62C103.14 26.928 103.191 27.1473 103.294 27.278C103.396 27.4087 103.569 27.474 103.812 27.474C103.952 27.474 104.068 27.4647 104.162 27.446C104.255 27.4273 104.367 27.3993 104.498 27.362L104.344 28.79C104.176 28.8927 103.956 28.9767 103.686 29.042C103.415 29.1073 103.149 29.14 102.888 29.14C102.141 29.14 101.6 28.9673 101.264 28.622C100.928 28.2767 100.76 27.712 100.76 26.928V19.032H103.14ZM109.182 29V22H111.282L111.38 23.512C111.557 22.9893 111.819 22.5833 112.164 22.294C112.519 22.0047 112.967 21.86 113.508 21.86C113.685 21.86 113.835 21.874 113.956 21.902C114.087 21.93 114.189 21.9673 114.264 22.014L114.026 23.974C113.933 23.9367 113.811 23.9087 113.662 23.89C113.522 23.862 113.349 23.848 113.144 23.848C112.864 23.848 112.603 23.9087 112.36 24.03C112.117 24.1513 111.921 24.3333 111.772 24.576C111.632 24.8093 111.562 25.108 111.562 25.472V29H109.182ZM119.035 24.562C119.035 24.2353 118.942 23.9787 118.755 23.792C118.578 23.596 118.335 23.498 118.027 23.498C117.719 23.498 117.453 23.5773 117.229 23.736C117.015 23.8853 116.865 24.156 116.781 24.548L114.765 24.072C114.896 23.4 115.241 22.8633 115.801 22.462C116.361 22.0607 117.15 21.86 118.167 21.86C118.849 21.86 119.427 21.9627 119.903 22.168C120.389 22.364 120.757 22.6627 121.009 23.064C121.271 23.456 121.401 23.9413 121.401 24.52V27.082C121.401 27.446 121.565 27.628 121.891 27.628C122.059 27.628 122.195 27.6093 122.297 27.572L122.157 28.93C121.877 29.0607 121.537 29.126 121.135 29.126C120.771 29.126 120.449 29.07 120.169 28.958C119.889 28.8367 119.67 28.6593 119.511 28.426C119.353 28.1833 119.273 27.88 119.273 27.516V27.432L119.539 27.334C119.539 27.7353 119.418 28.0713 119.175 28.342C118.942 28.6127 118.634 28.8133 118.251 28.944C117.878 29.0747 117.486 29.14 117.075 29.14C116.599 29.14 116.184 29.0653 115.829 28.916C115.475 28.7667 115.199 28.552 115.003 28.272C114.817 27.9827 114.723 27.628 114.723 27.208C114.723 26.704 114.873 26.2887 115.171 25.962C115.479 25.626 115.96 25.3927 116.613 25.262L119.259 24.716L119.245 25.976L117.901 26.256C117.621 26.312 117.411 26.396 117.271 26.508C117.141 26.6107 117.075 26.7693 117.075 26.984C117.075 27.1893 117.15 27.3433 117.299 27.446C117.449 27.5487 117.626 27.6 117.831 27.6C117.99 27.6 118.139 27.5767 118.279 27.53C118.429 27.4833 118.559 27.4133 118.671 27.32C118.783 27.2173 118.872 27.0913 118.937 26.942C119.003 26.7927 119.035 26.6153 119.035 26.41V24.562ZM125.889 19.774V26.508C125.889 26.844 125.969 27.0867 126.127 27.236C126.295 27.376 126.524 27.446 126.813 27.446C127.037 27.446 127.229 27.4227 127.387 27.376C127.555 27.32 127.705 27.2407 127.835 27.138L128.087 28.608C127.854 28.776 127.56 28.9067 127.205 29C126.851 29.0933 126.487 29.14 126.113 29.14C125.581 29.14 125.119 29.0653 124.727 28.916C124.345 28.7667 124.046 28.5287 123.831 28.202C123.626 27.8753 123.519 27.4413 123.509 26.9V20.432L125.889 19.774ZM127.975 22V23.694H122.305V22H127.975ZM132.491 29.14C131.716 29.14 131.044 28.9953 130.475 28.706C129.915 28.4167 129.481 28.0013 129.173 27.46C128.865 26.9187 128.711 26.2653 128.711 25.5C128.711 24.7347 128.865 24.0813 129.173 23.54C129.481 22.9987 129.91 22.5833 130.461 22.294C131.021 22.0047 131.66 21.86 132.379 21.86C133.116 21.86 133.741 22.0047 134.255 22.294C134.777 22.574 135.174 22.966 135.445 23.47C135.715 23.9647 135.851 24.534 135.851 25.178C135.851 25.346 135.846 25.514 135.837 25.682C135.827 25.85 135.813 25.99 135.795 26.102H130.251V24.828H134.745L133.611 25.262C133.611 24.702 133.508 24.2727 133.303 23.974C133.107 23.6753 132.799 23.526 132.379 23.526C132.08 23.526 131.823 23.596 131.609 23.736C131.403 23.876 131.245 24.0953 131.133 24.394C131.03 24.6927 130.979 25.0753 130.979 25.542C130.979 25.9993 131.039 26.3727 131.161 26.662C131.282 26.942 131.455 27.1473 131.679 27.278C131.903 27.3993 132.173 27.46 132.491 27.46C132.845 27.46 133.125 27.39 133.331 27.25C133.545 27.11 133.704 26.914 133.807 26.662L135.711 27.292C135.58 27.6933 135.351 28.034 135.025 28.314C134.707 28.5847 134.325 28.79 133.877 28.93C133.438 29.07 132.976 29.14 132.491 29.14Z" fill="#0C0900"/>
<path d="M189 36C195.627 36 201 30.6274 201 24C201 17.3726 195.627 12 189 12C182.373 12 177 17.3726 177 24C177 30.6274 182.373 36 189 36Z" fill="#26A17B"/>
<path fill-rule="evenodd" clip-rule="evenodd" d="M190.442 25.0373V25.0358C190.359 25.0418 189.934 25.0673 188.985 25.0673C188.228 25.0673 187.694 25.0448 187.507 25.0358V25.038C184.591 24.9098 182.414 24.402 182.414 23.7945C182.414 23.1878 184.591 22.68 187.507 22.5495V24.5325C187.697 24.546 188.243 24.5783 188.998 24.5783C189.903 24.5783 190.357 24.5408 190.442 24.5333V22.551C193.352 22.6808 195.523 23.1885 195.523 23.7945C195.523 24.402 193.352 24.9083 190.442 25.0373ZM190.442 22.3448V20.5703H194.502V17.8643H183.446V20.5703H187.507V22.344C184.207 22.4955 181.725 23.1495 181.725 23.9325C181.725 24.7155 184.207 25.3688 187.507 25.521V31.2075H190.442V25.5195C193.736 25.368 196.212 24.7148 196.212 23.9325C196.212 23.1503 193.736 22.497 190.442 22.3448Z" fill="black"/>
<path d="M216.068 20.08V21.184H213.356V28H212.072V21.184H209.36V20.08H216.068ZM218.812 28.1201C218.212 28.1201 217.684 27.996 217.228 27.748C216.772 27.5 216.416 27.144 216.16 26.68C215.912 26.208 215.788 25.648 215.788 25C215.788 24.352 215.912 23.7961 216.16 23.3321C216.416 22.8601 216.768 22.5001 217.216 22.2521C217.664 22.0041 218.172 21.88 218.74 21.88C219.324 21.88 219.82 22 220.228 22.24C220.636 22.48 220.948 22.8081 221.164 23.2241C221.38 23.6401 221.488 24.112 221.488 24.64C221.488 24.784 221.484 24.92 221.476 25.048C221.468 25.176 221.456 25.2881 221.44 25.3841H216.616V24.4H220.876L220.24 24.592C220.24 24.048 220.104 23.632 219.832 23.344C219.56 23.048 219.188 22.9 218.716 22.9C218.372 22.9 218.072 22.98 217.816 23.14C217.56 23.3 217.364 23.5401 217.228 23.8601C217.092 24.1721 217.024 24.556 217.024 25.012C217.024 25.46 217.096 25.8401 217.24 26.1521C217.384 26.4641 217.588 26.7001 217.852 26.8601C218.116 27.0201 218.428 27.1 218.788 27.1C219.188 27.1 219.512 27.024 219.76 26.872C220.008 26.72 220.204 26.508 220.348 26.236L221.368 26.716C221.224 27.004 221.028 27.256 220.78 27.472C220.54 27.68 220.252 27.84 219.916 27.952C219.58 28.064 219.212 28.1201 218.812 28.1201ZM224.721 20.236V26.2001C224.721 26.4961 224.797 26.712 224.949 26.848C225.109 26.984 225.321 27.052 225.585 27.052C225.801 27.052 225.989 27.02 226.149 26.956C226.309 26.884 226.457 26.788 226.593 26.668L226.881 27.604C226.697 27.764 226.469 27.8921 226.197 27.9881C225.933 28.0761 225.637 28.1201 225.309 28.1201C224.965 28.1201 224.649 28.064 224.361 27.952C224.073 27.84 223.849 27.6601 223.689 27.4121C223.529 27.1561 223.445 26.824 223.437 26.416V20.5961L224.721 20.236ZM226.785 22V23.008H222.285V22H226.785ZM228.101 28V19.3H229.385V22.96C229.585 22.584 229.853 22.312 230.189 22.144C230.533 21.968 230.913 21.88 231.329 21.88C231.753 21.88 232.133 21.964 232.469 22.132C232.813 22.292 233.085 22.536 233.285 22.864C233.485 23.192 233.585 23.608 233.585 24.112V28H232.301V24.5201C232.301 23.9281 232.177 23.516 231.929 23.284C231.689 23.052 231.385 22.9361 231.017 22.9361C230.761 22.9361 230.505 23 230.249 23.128C230.001 23.248 229.793 23.4481 229.625 23.7281C229.465 24.0001 229.385 24.3681 229.385 24.8321V28H228.101ZM238.171 28.1201C237.571 28.1201 237.043 27.996 236.587 27.748C236.131 27.5 235.775 27.144 235.519 26.68C235.271 26.208 235.147 25.648 235.147 25C235.147 24.352 235.271 23.7961 235.519 23.3321C235.775 22.8601 236.127 22.5001 236.575 22.2521C237.023 22.0041 237.531 21.88 238.099 21.88C238.683 21.88 239.179 22 239.587 22.24C239.995 22.48 240.307 22.8081 240.523 23.2241C240.739 23.6401 240.847 24.112 240.847 24.64C240.847 24.784 240.843 24.92 240.835 25.048C240.827 25.176 240.815 25.2881 240.799 25.3841H235.975V24.4H240.235L239.599 24.592C239.599 24.048 239.463 23.632 239.191 23.344C238.919 23.048 238.547 22.9 238.075 22.9C237.731 22.9 237.431 22.98 237.175 23.14C236.919 23.3 236.723 23.5401 236.587 23.8601C236.451 24.1721 236.383 24.556 236.383 25.012C236.383 25.46 236.455 25.8401 236.599 26.1521C236.743 26.4641 236.947 26.7001 237.211 26.8601C237.475 27.0201 237.787 27.1 238.147 27.1C238.547 27.1 238.871 27.024 239.119 26.872C239.367 26.72 239.563 26.508 239.707 26.236L240.727 26.716C240.583 27.004 240.387 27.256 240.139 27.472C239.899 27.68 239.611 27.84 239.275 27.952C238.939 28.064 238.571 28.1201 238.171 28.1201ZM242.469 28V22H243.561L243.681 23.08C243.841 22.688 244.077 22.392 244.389 22.192C244.709 21.984 245.101 21.88 245.565 21.88C245.685 21.88 245.805 21.892 245.925 21.916C246.045 21.932 246.145 21.96 246.225 22L246.045 23.128C245.957 23.096 245.857 23.072 245.745 23.056C245.641 23.032 245.497 23.0201 245.313 23.0201C245.065 23.0201 244.821 23.0881 244.581 23.2241C244.341 23.3521 244.141 23.548 243.981 23.812C243.829 24.076 243.753 24.412 243.753 24.82V28H242.469ZM257.574 20.08V24.9641C257.574 26.0121 257.298 26.8 256.746 27.328C256.194 27.856 255.39 28.1201 254.334 28.1201C253.294 28.1201 252.494 27.856 251.934 27.328C251.382 26.8 251.106 26.0121 251.106 24.9641V20.08H252.39V24.8081C252.39 25.5521 252.55 26.1041 252.87 26.4641C253.19 26.8241 253.678 27.004 254.334 27.004C254.998 27.004 255.49 26.8241 255.81 26.4641C256.13 26.1041 256.29 25.5521 256.29 24.8081V20.08H257.574ZM262.47 19.96C263.182 19.96 263.798 20.096 264.318 20.368C264.838 20.632 265.278 21.0241 265.638 21.5441L264.774 22.372C264.47 21.908 264.126 21.576 263.742 21.376C263.366 21.168 262.918 21.064 262.398 21.064C262.014 21.064 261.698 21.116 261.45 21.22C261.202 21.324 261.018 21.464 260.898 21.64C260.786 21.808 260.73 22 260.73 22.216C260.73 22.464 260.814 22.68 260.982 22.864C261.158 23.048 261.482 23.192 261.954 23.296L263.562 23.656C264.33 23.824 264.874 24.08 265.194 24.424C265.514 24.768 265.674 25.204 265.674 25.732C265.674 26.22 265.542 26.644 265.278 27.004C265.014 27.364 264.646 27.6401 264.174 27.8321C263.71 28.0241 263.162 28.1201 262.53 28.1201C261.97 28.1201 261.466 28.048 261.018 27.904C260.57 27.76 260.178 27.564 259.842 27.316C259.506 27.068 259.23 26.7841 259.014 26.4641L259.902 25.576C260.07 25.856 260.282 26.1081 260.538 26.3321C260.794 26.5481 261.09 26.7161 261.426 26.8361C261.77 26.9561 262.15 27.0161 262.566 27.0161C262.934 27.0161 263.25 26.9721 263.514 26.8841C263.786 26.7961 263.99 26.668 264.126 26.5C264.27 26.324 264.342 26.116 264.342 25.876C264.342 25.644 264.262 25.44 264.102 25.264C263.95 25.088 263.662 24.9521 263.238 24.8561L261.498 24.46C261.018 24.356 260.622 24.2081 260.31 24.0161C259.998 23.8241 259.766 23.592 259.614 23.32C259.462 23.04 259.386 22.7281 259.386 22.3841C259.386 21.9361 259.506 21.5321 259.746 21.1721C259.994 20.8041 260.35 20.512 260.814 20.296C261.278 20.072 261.83 19.96 262.47 19.96ZM270.265 20.08C271.505 20.08 272.469 20.424 273.157 21.112C273.853 21.792 274.201 22.7681 274.201 24.0401C274.201 25.3121 273.853 26.292 273.157 26.98C272.469 27.66 271.505 28 270.265 28H267.469V20.08H270.265ZM270.265 26.9081C271.105 26.9081 271.745 26.66 272.185 26.164C272.633 25.66 272.857 24.9521 272.857 24.0401C272.857 23.1281 272.633 22.424 272.185 21.928C271.745 21.424 271.105 21.1721 270.265 21.1721H268.753V26.9081H270.265Z" fill="#191919"/>
<path d="M286.024 32V16.16H289.048L294.64 25.976L296.2 28.928H296.224L296.128 26.432V16.16H298.456V32H295.432L289.864 22.304L288.28 19.328H288.256L288.352 21.776V32H286.024ZM283.384 24.968V23.168H301.096V24.968H283.384ZM308.093 15.92C309.453 15.92 310.597 16.256 311.525 16.928C312.469 17.6 313.173 18.544 313.637 19.76C314.117 20.976 314.357 22.408 314.357 24.056C314.357 25.88 314.109 27.4 313.613 28.616C313.117 29.816 312.405 30.72 311.477 31.328C310.549 31.936 309.429 32.24 308.117 32.24C306.773 32.24 305.621 31.944 304.661 31.352C303.701 30.76 302.981 29.872 302.501 28.688L304.925 27.56C305.149 28.312 305.517 28.912 306.029 29.36C306.557 29.808 307.269 30.032 308.165 30.032C308.901 30.032 309.517 29.888 310.013 29.6C310.509 29.312 310.901 28.896 311.189 28.352C311.493 27.808 311.709 27.152 311.837 26.384C311.965 25.616 312.029 24.752 312.029 23.792C312.029 23.744 312.029 23.704 312.029 23.672C312.029 23.624 312.029 23.576 312.029 23.528H311.933C311.757 24.168 311.437 24.688 310.973 25.088C310.525 25.488 310.013 25.784 309.437 25.976C308.861 26.152 308.285 26.24 307.709 26.24C306.685 26.24 305.773 26.04 304.973 25.64C304.189 25.224 303.573 24.648 303.125 23.912C302.677 23.176 302.453 22.304 302.453 21.296C302.453 20.192 302.677 19.24 303.125 18.44C303.589 17.64 304.237 17.024 305.069 16.592C305.917 16.144 306.925 15.92 308.093 15.92ZM308.117 18.176C307.109 18.176 306.333 18.448 305.789 18.992C305.261 19.536 304.997 20.296 304.997 21.272C304.997 22.136 305.277 22.816 305.837 23.312C306.413 23.792 307.173 24.032 308.117 24.032C308.725 24.032 309.261 23.912 309.725 23.672C310.189 23.416 310.549 23.072 310.805 22.64C311.077 22.208 311.213 21.704 311.213 21.128C311.213 20.52 311.077 20 310.805 19.568C310.549 19.12 310.189 18.776 309.725 18.536C309.261 18.296 308.725 18.176 308.117 18.176ZM322.425 15.92C323.785 15.92 324.929 16.256 325.857 16.928C326.801 17.6 327.505 18.544 327.969 19.76C328.449 20.976 328.689 22.408 328.689 24.056C328.689 25.88 328.441 27.4 327.945 28.616C327.449 29.816 326.737 30.72 325.809 31.328C324.881 31.936 323.761 32.24 322.449 32.24C321.105 32.24 319.953 31.944 318.993 31.352C318.033 30.76 317.313 29.872 316.833 28.688L319.257 27.56C319.481 28.312 319.849 28.912 320.361 29.36C320.889 29.808 321.601 30.032 322.497 30.032C323.233 30.032 323.849 29.888 324.345 29.6C324.841 29.312 325.233 28.896 325.521 28.352C325.825 27.808 326.041 27.152 326.169 26.384C326.297 25.616 326.361 24.752 326.361 23.792C326.361 23.744 326.361 23.704 326.361 23.672C326.361 23.624 326.361 23.576 326.361 23.528H326.265C326.089 24.168 325.769 24.688 325.305 25.088C324.857 25.488 324.345 25.784 323.769 25.976C323.193 26.152 322.617 26.24 322.041 26.24C321.017 26.24 320.105 26.04 319.305 25.64C318.521 25.224 317.905 24.648 317.457 23.912C317.009 23.176 316.785 22.304 316.785 21.296C316.785 20.192 317.009 19.24 317.457 18.44C317.921 17.64 318.569 17.024 319.401 16.592C320.249 16.144 321.257 15.92 322.425 15.92ZM322.449 18.176C321.441 18.176 320.665 18.448 320.121 18.992C319.593 19.536 319.329 20.296 319.329 21.272C319.329 22.136 319.609 22.816 320.169 23.312C320.745 23.792 321.505 24.032 322.449 24.032C323.057 24.032 323.593 23.912 324.057 23.672C324.521 23.416 324.881 23.072 325.137 22.64C325.409 22.208 325.545 21.704 325.545 21.128C325.545 20.52 325.409 20 325.137 19.568C324.881 19.12 324.521 18.776 324.057 18.536C323.593 18.296 323.057 18.176 322.449 18.176ZM336.495 32.24C335.087 32.24 333.927 31.936 333.015 31.328C332.119 30.72 331.407 29.84 330.879 28.688L333.279 27.44C333.519 28.208 333.879 28.84 334.359 29.336C334.855 29.816 335.583 30.056 336.543 30.056C337.215 30.056 337.783 29.936 338.247 29.696C338.727 29.44 339.095 29.088 339.351 28.64C339.607 28.176 339.735 27.624 339.735 26.984C339.735 26.312 339.615 25.752 339.375 25.304C339.135 24.856 338.791 24.52 338.343 24.296C337.895 24.056 337.335 23.936 336.663 23.936C336.199 23.936 335.767 23.984 335.367 24.08C334.967 24.176 334.607 24.328 334.287 24.536C333.967 24.728 333.687 24.984 333.447 25.304L331.335 24.896L332.295 16.16H341.511V18.368H334.335L333.759 22.832L333.711 23.096H333.759C334.127 22.696 334.599 22.384 335.175 22.16C335.767 21.936 336.463 21.824 337.263 21.824C338.287 21.824 339.167 22.04 339.903 22.472C340.639 22.888 341.215 23.472 341.631 24.224C342.047 24.976 342.255 25.848 342.255 26.84C342.255 27.704 342.111 28.472 341.823 29.144C341.535 29.816 341.127 30.384 340.599 30.848C340.071 31.312 339.455 31.664 338.751 31.904C338.063 32.128 337.311 32.24 336.495 32.24Z" fill="#0C0900"/>
<path d="M391.641 26.9019C390.038 33.3339 383.521 37.2439 377.098 35.6405C370.666 34.0371 366.756 27.5208 368.36 21.0981C369.963 14.666 376.47 10.7561 382.902 12.3595C389.325 13.9535 393.244 20.4698 391.641 26.9019Z" fill="url(#paint0_linear_53_133)"/>
<path d="M385.714 22.5047C385.948 20.9109 384.739 20.0484 383.07 19.4766L383.614 17.3109L382.301 16.9828L381.776 19.0922C381.429 19.0078 381.073 18.9234 380.717 18.8484L381.242 16.7297L379.929 16.4016L379.395 18.5578C379.104 18.4922 378.823 18.4266 378.551 18.3609V18.3516L376.732 17.9016L376.385 19.3078C376.385 19.3078 377.36 19.5328 377.342 19.5422C377.876 19.6734 377.97 20.0297 377.951 20.3109L377.332 22.7766C377.37 22.7859 377.417 22.7953 377.473 22.8234C377.426 22.8141 377.379 22.8047 377.332 22.7859L376.47 26.2359C376.404 26.3953 376.235 26.6391 375.87 26.5453C375.879 26.5641 374.914 26.3109 374.914 26.3109L374.257 27.8203L375.973 28.2516C376.292 28.3359 376.601 28.4109 376.91 28.4953L376.367 30.6797L377.679 31.0078L378.223 28.8422C378.579 28.9359 378.935 29.0297 379.273 29.1141L378.739 31.2703L380.051 31.5984L380.595 29.4141C382.845 29.8359 384.532 29.6672 385.235 27.6328C385.807 26.0016 385.207 25.0547 384.026 24.4359C384.898 24.2391 385.545 23.6672 385.714 22.5047ZM382.704 26.7234C382.301 28.3547 379.545 27.4734 378.654 27.2484L379.376 24.3516C380.267 24.5766 383.135 25.0172 382.704 26.7234ZM383.117 22.4766C382.742 23.9672 380.454 23.2078 379.714 23.0203L380.37 20.3953C381.11 20.5828 383.501 20.9297 383.117 22.4766Z" fill="black"/>
<path d="M401.176 28V20.08H404.296C405.248 20.08 405.944 20.272 406.384 20.656C406.824 21.04 407.044 21.572 407.044 22.252C407.044 22.668 406.924 23.04 406.684 23.368C406.444 23.688 406.092 23.892 405.628 23.98V23.992C406.14 24.072 406.536 24.284 406.816 24.628C407.104 24.964 407.248 25.356 407.248 25.804C407.248 26.484 407 27.02 406.504 27.412C406.008 27.804 405.288 28 404.344 28H401.176ZM402.436 26.932H404.404C404.908 26.932 405.284 26.828 405.532 26.62C405.788 26.412 405.916 26.12 405.916 25.744C405.916 25.368 405.788 25.076 405.532 24.868C405.284 24.66 404.908 24.556 404.404 24.556H402.436V26.932ZM402.436 23.488H404.2C405.208 23.488 405.712 23.1 405.712 22.324C405.712 21.548 405.208 21.16 404.2 21.16H402.436V23.488ZM409.589 20.992C409.309 20.992 409.093 20.924 408.941 20.788C408.797 20.644 408.725 20.444 408.725 20.188C408.725 19.932 408.797 19.736 408.941 19.6C409.093 19.464 409.309 19.396 409.589 19.396C409.861 19.396 410.069 19.464 410.213 19.6C410.365 19.736 410.441 19.932 410.441 20.188C410.441 20.444 410.365 20.644 410.213 20.788C410.069 20.924 409.861 20.992 409.589 20.992ZM410.225 22V28H408.941V22H410.225ZM413.986 20.236V26.2C413.986 26.496 414.062 26.712 414.214 26.848C414.374 26.984 414.586 27.052 414.85 27.052C415.066 27.052 415.254 27.02 415.414 26.956C415.574 26.884 415.722 26.788 415.858 26.668L416.146 27.604C415.962 27.764 415.734 27.892 415.462 27.988C415.198 28.076 414.902 28.12 414.574 28.12C414.23 28.12 413.914 28.064 413.626 27.952C413.338 27.84 413.114 27.66 412.954 27.412C412.794 27.156 412.71 26.824 412.702 26.416V20.596L413.986 20.236ZM416.05 22V23.008H411.55V22H416.05ZM419.912 21.88C420.392 21.88 420.8 21.952 421.136 22.096C421.48 22.232 421.768 22.428 422 22.684C422.232 22.94 422.408 23.232 422.528 23.56L421.316 24.04C421.212 23.672 421.044 23.392 420.812 23.2C420.588 23 420.292 22.9 419.924 22.9C419.564 22.9 419.256 22.984 419 23.152C418.744 23.312 418.548 23.548 418.412 23.86C418.284 24.172 418.22 24.556 418.22 25.012C418.22 25.46 418.288 25.84 418.424 26.152C418.56 26.464 418.756 26.7 419.012 26.86C419.268 27.02 419.572 27.1 419.924 27.1C420.196 27.1 420.432 27.056 420.632 26.968C420.832 26.872 420.996 26.74 421.124 26.572C421.26 26.396 421.352 26.184 421.4 25.936L422.564 26.332C422.452 26.692 422.276 27.008 422.036 27.28C421.804 27.544 421.512 27.752 421.16 27.904C420.808 28.048 420.404 28.12 419.948 28.12C419.356 28.12 418.832 27.996 418.376 27.748C417.92 27.5 417.564 27.144 417.308 26.68C417.06 26.208 416.936 25.648 416.936 25C416.936 24.352 417.06 23.796 417.308 23.332C417.564 22.86 417.916 22.5 418.364 22.252C418.82 22.004 419.336 21.88 419.912 21.88ZM426.663 21.88C427.247 21.88 427.763 22.004 428.211 22.252C428.659 22.5 429.007 22.86 429.255 23.332C429.511 23.796 429.639 24.352 429.639 25C429.639 25.648 429.511 26.208 429.255 26.68C429.007 27.144 428.659 27.5 428.211 27.748C427.763 27.996 427.247 28.12 426.663 28.12C426.079 28.12 425.563 27.996 425.115 27.748C424.667 27.5 424.315 27.144 424.059 26.68C423.803 26.208 423.675 25.648 423.675 25C423.675 24.352 423.803 23.796 424.059 23.332C424.315 22.86 424.667 22.5 425.115 22.252C425.563 22.004 426.079 21.88 426.663 21.88ZM426.663 22.888C426.303 22.888 425.995 22.972 425.739 23.14C425.491 23.3 425.299 23.536 425.163 23.848C425.027 24.16 424.959 24.544 424.959 25C424.959 25.448 425.027 25.832 425.163 26.152C425.299 26.464 425.491 26.704 425.739 26.872C425.995 27.032 426.303 27.112 426.663 27.112C427.023 27.112 427.327 27.032 427.575 26.872C427.823 26.704 428.015 26.464 428.151 26.152C428.287 25.832 428.355 25.448 428.355 25C428.355 24.544 428.287 24.16 428.151 23.848C428.015 23.536 427.823 23.3 427.575 23.14C427.327 22.972 427.023 22.888 426.663 22.888ZM431.902 20.992C431.622 20.992 431.406 20.924 431.254 20.788C431.11 20.644 431.038 20.444 431.038 20.188C431.038 19.932 431.11 19.736 431.254 19.6C431.406 19.464 431.622 19.396 431.902 19.396C432.174 19.396 432.382 19.464 432.526 19.6C432.678 19.736 432.754 19.932 432.754 20.188C432.754 20.444 432.678 20.644 432.526 20.788C432.382 20.924 432.174 20.992 431.902 20.992ZM432.538 22V28H431.254V22H432.538ZM434.547 28V22H435.687L435.771 23.56L435.603 23.392C435.715 23.048 435.875 22.764 436.083 22.54C436.299 22.308 436.551 22.14 436.839 22.036C437.135 21.932 437.447 21.88 437.775 21.88C438.199 21.88 438.579 21.964 438.915 22.132C439.259 22.292 439.531 22.536 439.731 22.864C439.931 23.192 440.031 23.608 440.031 24.112V28H438.747V24.508C438.747 23.916 438.623 23.508 438.375 23.284C438.135 23.052 437.831 22.936 437.463 22.936C437.199 22.936 436.943 23 436.695 23.128C436.447 23.248 436.239 23.444 436.071 23.716C435.911 23.988 435.831 24.352 435.831 24.808V28H434.547Z" fill="#191919"/>
<path d="M452.024 32V16.16H455.048L460.64 25.976L462.2 28.928H462.224L462.128 26.432V16.16H464.456V32H461.432L455.864 22.304L454.28 19.328H454.256L454.352 21.776V32H452.024ZM449.384 24.968V23.168H467.096V24.968H449.384ZM474.093 15.92C475.453 15.92 476.597 16.256 477.525 16.928C478.469 17.6 479.173 18.544 479.637 19.76C480.117 20.976 480.357 22.408 480.357 24.056C480.357 25.88 480.109 27.4 479.613 28.616C479.117 29.816 478.405 30.72 477.477 31.328C476.549 31.936 475.429 32.24 474.117 32.24C472.773 32.24 471.621 31.944 470.661 31.352C469.701 30.76 468.981 29.872 468.501 28.688L470.925 27.56C471.149 28.312 471.517 28.912 472.029 29.36C472.557 29.808 473.269 30.032 474.165 30.032C474.901 30.032 475.517 29.888 476.013 29.6C476.509 29.312 476.901 28.896 477.189 28.352C477.493 27.808 477.709 27.152 477.837 26.384C477.965 25.616 478.029 24.752 478.029 23.792C478.029 23.744 478.029 23.704 478.029 23.672C478.029 23.624 478.029 23.576 478.029 23.528H477.933C477.757 24.168 477.437 24.688 476.973 25.088C476.525 25.488 476.013 25.784 475.437 25.976C474.861 26.152 474.285 26.24 473.709 26.24C472.685 26.24 471.773 26.04 470.973 25.64C470.189 25.224 469.573 24.648 469.125 23.912C468.677 23.176 468.453 22.304 468.453 21.296C468.453 20.192 468.677 19.24 469.125 18.44C469.589 17.64 470.237 17.024 471.069 16.592C471.917 16.144 472.925 15.92 474.093 15.92ZM474.117 18.176C473.109 18.176 472.333 18.448 471.789 18.992C471.261 19.536 470.997 20.296 470.997 21.272C470.997 22.136 471.277 22.816 471.837 23.312C472.413 23.792 473.173 24.032 474.117 24.032C474.725 24.032 475.261 23.912 475.725 23.672C476.189 23.416 476.549 23.072 476.805 22.64C477.077 22.208 477.213 21.704 477.213 21.128C477.213 20.52 477.077 20 476.805 19.568C476.549 19.12 476.189 18.776 475.725 18.536C475.261 18.296 474.725 18.176 474.117 18.176ZM488.425 15.92C489.785 15.92 490.929 16.256 491.857 16.928C492.801 17.6 493.505 18.544 493.969 19.76C494.449 20.976 494.689 22.408 494.689 24.056C494.689 25.88 494.441 27.4 493.945 28.616C493.449 29.816 492.737 30.72 491.809 31.328C490.881 31.936 489.761 32.24 488.449 32.24C487.105 32.24 485.953 31.944 484.993 31.352C484.033 30.76 483.313 29.872 482.833 28.688L485.257 27.56C485.481 28.312 485.849 28.912 486.361 29.36C486.889 29.808 487.601 30.032 488.497 30.032C489.233 30.032 489.849 29.888 490.345 29.6C490.841 29.312 491.233 28.896 491.521 28.352C491.825 27.808 492.041 27.152 492.169 26.384C492.297 25.616 492.361 24.752 492.361 23.792C492.361 23.744 492.361 23.704 492.361 23.672C492.361 23.624 492.361 23.576 492.361 23.528H492.265C492.089 24.168 491.769 24.688 491.305 25.088C490.857 25.488 490.345 25.784 489.769 25.976C489.193 26.152 488.617 26.24 488.041 26.24C487.017 26.24 486.105 26.04 485.305 25.64C484.521 25.224 483.905 24.648 483.457 23.912C483.009 23.176 482.785 22.304 482.785 21.296C482.785 20.192 483.009 19.24 483.457 18.44C483.921 17.64 484.569 17.024 485.401 16.592C486.249 16.144 487.257 15.92 488.425 15.92ZM488.449 18.176C487.441 18.176 486.665 18.448 486.121 18.992C485.593 19.536 485.329 20.296 485.329 21.272C485.329 22.136 485.609 22.816 486.169 23.312C486.745 23.792 487.505 24.032 488.449 24.032C489.057 24.032 489.593 23.912 490.057 23.672C490.521 23.416 490.881 23.072 491.137 22.64C491.409 22.208 491.545 21.704 491.545 21.128C491.545 20.52 491.409 20 491.137 19.568C490.881 19.12 490.521 18.776 490.057 18.536C489.593 18.296 489.057 18.176 488.449 18.176ZM502.495 32.24C501.087 32.24 499.927 31.936 499.015 31.328C498.119 30.72 497.407 29.84 496.879 28.688L499.279 27.44C499.519 28.208 499.879 28.84 500.359 29.336C500.855 29.816 501.583 30.056 502.543 30.056C503.215 30.056 503.783 29.936 504.247 29.696C504.727 29.44 505.095 29.088 505.351 28.64C505.607 28.176 505.735 27.624 505.735 26.984C505.735 26.312 505.615 25.752 505.375 25.304C505.135 24.856 504.791 24.52 504.343 24.296C503.895 24.056 503.335 23.936 502.663 23.936C502.199 23.936 501.767 23.984 501.367 24.08C500.967 24.176 500.607 24.328 500.287 24.536C499.967 24.728 499.687 24.984 499.447 25.304L497.335 24.896L498.295 16.16H507.511V18.368H500.335L499.759 22.832L499.711 23.096H499.759C500.127 22.696 500.599 22.384 501.175 22.16C501.767 21.936 502.463 21.824 503.263 21.824C504.287 21.824 505.167 22.04 505.903 22.472C506.639 22.888 507.215 23.472 507.631 24.224C508.047 24.976 508.255 25.848 508.255 26.84C508.255 27.704 508.111 28.472 507.823 29.144C507.535 29.816 507.127 30.384 506.599 30.848C506.071 31.312 505.455 31.664 504.751 31.904C504.063 32.128 503.311 32.24 502.495 32.24Z" fill="#0C0900"/>
</g>
<defs>
<linearGradient id="paint0_linear_53_133" x1="379.994" y1="11.9942" x2="379.994" y2="35.9976" gradientUnits="userSpaceOnUse">
<stop stop-color="#F9AA4B"/>
<stop offset="1" stop-color="#F7931A"/>
</linearGradient>
<clipPath id="clip0_53_133">
<rect width="534" height="48" fill="white"/>
</clipPath>
</defs>
</svg>
