<svg width="1924" height="1457" viewBox="0 0 1924 1457" fill="none" xmlns="http://www.w3.org/2000/svg">
<rect width="1924" height="1457" fill="#023436"/>
<g filter="url(#filter0_f_54_95)">
<rect x="412" y="492" width="1100" height="100" fill="white" fill-opacity="0.13"/>
</g>
<path d="M1260.5 89.5H1793.5V125C1793.5 131.351 1788.35 136.5 1782 136.5H1272C1265.65 136.5 1260.5 131.351 1260.5 125V89.5Z" fill="#E6F6F5"/>
<path d="M1260.5 89.5H1793.5V125C1793.5 131.351 1788.35 136.5 1782 136.5H1272C1265.65 136.5 1260.5 131.351 1260.5 125V89.5Z" stroke="#F4F4F4"/>
<path d="M1292.79 108.76V110.622H1289.78V118H1287.37V110.622H1284.35V108.76H1292.79ZM1296.03 110.86C1296.77 110.86 1297.41 111.005 1297.97 111.294C1298.53 111.574 1298.96 111.989 1299.27 112.54C1299.58 113.081 1299.74 113.735 1299.74 114.5C1299.74 115.265 1299.58 115.923 1299.27 116.474C1298.96 117.015 1298.53 117.431 1297.97 117.72C1297.41 118 1296.77 118.14 1296.03 118.14C1295.31 118.14 1294.68 118 1294.12 117.72C1293.56 117.431 1293.12 117.015 1292.8 116.474C1292.49 115.923 1292.34 115.265 1292.34 114.5C1292.34 113.735 1292.49 113.081 1292.8 112.54C1293.12 111.989 1293.56 111.574 1294.12 111.294C1294.68 111.005 1295.31 110.86 1296.03 110.86ZM1296.03 112.554C1295.76 112.554 1295.53 112.619 1295.33 112.75C1295.14 112.881 1294.99 113.091 1294.89 113.38C1294.78 113.669 1294.73 114.043 1294.73 114.5C1294.73 114.957 1294.78 115.331 1294.89 115.62C1294.99 115.9 1295.14 116.11 1295.33 116.25C1295.53 116.381 1295.76 116.446 1296.03 116.446C1296.31 116.446 1296.55 116.381 1296.75 116.25C1296.94 116.11 1297.09 115.9 1297.2 115.62C1297.3 115.331 1297.35 114.957 1297.35 114.5C1297.35 114.043 1297.3 113.669 1297.2 113.38C1297.09 113.091 1296.94 112.881 1296.75 112.75C1296.55 112.619 1296.31 112.554 1296.03 112.554ZM1303.66 118.14C1303.08 118.14 1302.57 118 1302.13 117.72C1301.7 117.431 1301.37 117.015 1301.12 116.474C1300.89 115.933 1300.77 115.284 1300.77 114.528C1300.77 113.744 1300.9 113.081 1301.14 112.54C1301.39 111.999 1301.74 111.583 1302.17 111.294C1302.62 111.005 1303.14 110.86 1303.71 110.86C1304.35 110.86 1304.86 111.056 1305.24 111.448C1305.63 111.831 1305.88 112.321 1306 112.918L1305.77 113.212V108.032H1308.15V118H1306.02L1305.87 115.62L1306.15 115.83C1306.09 116.297 1305.95 116.703 1305.72 117.048C1305.49 117.393 1305.2 117.664 1304.85 117.86C1304.5 118.047 1304.11 118.14 1303.66 118.14ZM1304.48 116.39C1304.76 116.39 1304.98 116.32 1305.17 116.18C1305.37 116.031 1305.52 115.811 1305.62 115.522C1305.72 115.233 1305.77 114.878 1305.77 114.458C1305.77 114.066 1305.72 113.735 1305.62 113.464C1305.53 113.184 1305.38 112.974 1305.18 112.834C1305 112.685 1304.77 112.61 1304.5 112.61C1304.09 112.61 1303.76 112.764 1303.52 113.072C1303.29 113.371 1303.17 113.847 1303.17 114.5C1303.17 115.153 1303.29 115.634 1303.52 115.942C1303.75 116.241 1304.07 116.39 1304.48 116.39ZM1313.77 113.562C1313.77 113.235 1313.67 112.979 1313.49 112.792C1313.31 112.596 1313.07 112.498 1312.76 112.498C1312.45 112.498 1312.18 112.577 1311.96 112.736C1311.75 112.885 1311.6 113.156 1311.51 113.548L1309.5 113.072C1309.63 112.4 1309.97 111.863 1310.53 111.462C1311.09 111.061 1311.88 110.86 1312.9 110.86C1313.58 110.86 1314.16 110.963 1314.63 111.168C1315.12 111.364 1315.49 111.663 1315.74 112.064C1316 112.456 1316.13 112.941 1316.13 113.52V116.082C1316.13 116.446 1316.3 116.628 1316.62 116.628C1316.79 116.628 1316.93 116.609 1317.03 116.572L1316.89 117.93C1316.61 118.061 1316.27 118.126 1315.87 118.126C1315.5 118.126 1315.18 118.07 1314.9 117.958C1314.62 117.837 1314.4 117.659 1314.24 117.426C1314.08 117.183 1314 116.88 1314 116.516V116.432L1314.27 116.334C1314.27 116.735 1314.15 117.071 1313.91 117.342C1313.67 117.613 1313.36 117.813 1312.98 117.944C1312.61 118.075 1312.22 118.14 1311.81 118.14C1311.33 118.14 1310.91 118.065 1310.56 117.916C1310.21 117.767 1309.93 117.552 1309.73 117.272C1309.55 116.983 1309.45 116.628 1309.45 116.208C1309.45 115.704 1309.6 115.289 1309.9 114.962C1310.21 114.626 1310.69 114.393 1311.34 114.262L1313.99 113.716L1313.98 114.976L1312.63 115.256C1312.35 115.312 1312.14 115.396 1312 115.508C1311.87 115.611 1311.81 115.769 1311.81 115.984C1311.81 116.189 1311.88 116.343 1312.03 116.446C1312.18 116.549 1312.36 116.6 1312.56 116.6C1312.72 116.6 1312.87 116.577 1313.01 116.53C1313.16 116.483 1313.29 116.413 1313.4 116.32C1313.51 116.217 1313.6 116.091 1313.67 115.942C1313.73 115.793 1313.77 115.615 1313.77 115.41V113.562ZM1324.56 111L1322.01 118C1321.75 118.737 1321.46 119.325 1321.16 119.764C1320.85 120.203 1320.48 120.52 1320.06 120.716C1319.64 120.912 1319.14 121.01 1318.55 121.01C1318.16 121.01 1317.8 120.968 1317.47 120.884C1317.15 120.8 1316.86 120.683 1316.62 120.534L1317.1 118.924C1317.26 119.045 1317.44 119.129 1317.63 119.176C1317.81 119.232 1318.05 119.26 1318.34 119.26C1318.61 119.26 1318.83 119.213 1319 119.12C1319.18 119.027 1319.32 118.849 1319.42 118.588L1319.6 118.154L1318.79 116.25L1316.69 111H1319.31L1320.39 114.99L1320.72 116.474L1321.11 114.934L1322.19 111H1324.56ZM1326.91 108.34C1327.26 108.34 1327.54 108.419 1327.76 108.578C1327.99 108.737 1328.15 108.947 1328.25 109.208C1328.37 109.46 1328.42 109.745 1328.42 110.062C1328.42 110.482 1328.33 110.888 1328.14 111.28C1327.97 111.663 1327.73 112.003 1327.43 112.302C1327.14 112.591 1326.82 112.811 1326.48 112.96L1325.51 112.246C1325.77 112.143 1326.01 112.013 1326.22 111.854C1326.45 111.695 1326.64 111.523 1326.8 111.336C1326.97 111.149 1327.09 110.958 1327.18 110.762L1327.11 110.72C1327.06 110.757 1327 110.785 1326.92 110.804C1326.85 110.823 1326.75 110.832 1326.63 110.832C1326.46 110.832 1326.29 110.79 1326.11 110.706C1325.94 110.622 1325.8 110.496 1325.68 110.328C1325.57 110.16 1325.51 109.945 1325.51 109.684C1325.51 109.385 1325.58 109.138 1325.71 108.942C1325.84 108.746 1326.01 108.597 1326.22 108.494C1326.44 108.391 1326.67 108.34 1326.91 108.34ZM1332.15 118.14C1331.45 118.14 1330.79 118.028 1330.19 117.804C1329.59 117.571 1329.09 117.239 1328.7 116.81L1329.82 115.494C1330.05 115.793 1330.36 116.045 1330.75 116.25C1331.14 116.446 1331.57 116.544 1332.05 116.544C1332.34 116.544 1332.57 116.502 1332.76 116.418C1332.95 116.334 1333.04 116.203 1333.04 116.026C1333.04 115.895 1332.99 115.793 1332.9 115.718C1332.81 115.634 1332.62 115.564 1332.34 115.508L1331.36 115.312C1330.48 115.135 1329.86 114.873 1329.49 114.528C1329.12 114.173 1328.94 113.711 1328.94 113.142C1328.94 112.759 1329.06 112.395 1329.29 112.05C1329.52 111.695 1329.88 111.411 1330.37 111.196C1330.85 110.972 1331.47 110.86 1332.23 110.86C1332.94 110.86 1333.56 110.963 1334.11 111.168C1334.65 111.373 1335.08 111.672 1335.39 112.064L1334.26 113.352C1334.04 113.072 1333.75 112.853 1333.39 112.694C1333.04 112.535 1332.68 112.456 1332.33 112.456C1332.1 112.456 1331.91 112.479 1331.75 112.526C1331.6 112.563 1331.49 112.619 1331.42 112.694C1331.34 112.769 1331.31 112.862 1331.31 112.974C1331.31 113.095 1331.36 113.203 1331.47 113.296C1331.59 113.38 1331.81 113.455 1332.13 113.52L1333.41 113.772C1334.12 113.903 1334.64 114.141 1334.96 114.486C1335.28 114.831 1335.44 115.247 1335.44 115.732C1335.44 116.189 1335.31 116.6 1335.07 116.964C1334.83 117.328 1334.46 117.617 1333.98 117.832C1333.49 118.037 1332.88 118.14 1332.15 118.14ZM1343.62 118.14C1342.92 118.14 1342.26 118.028 1341.66 117.804C1341.06 117.571 1340.56 117.239 1340.17 116.81L1341.29 115.494C1341.53 115.793 1341.83 116.045 1342.22 116.25C1342.61 116.446 1343.04 116.544 1343.52 116.544C1343.81 116.544 1344.05 116.502 1344.23 116.418C1344.42 116.334 1344.51 116.203 1344.51 116.026C1344.51 115.895 1344.47 115.793 1344.37 115.718C1344.28 115.634 1344.09 115.564 1343.81 115.508L1342.83 115.312C1341.95 115.135 1341.33 114.873 1340.96 114.528C1340.59 114.173 1340.41 113.711 1340.41 113.142C1340.41 112.759 1340.53 112.395 1340.76 112.05C1340.99 111.695 1341.35 111.411 1341.84 111.196C1342.32 110.972 1342.94 110.86 1343.7 110.86C1344.41 110.86 1345.03 110.963 1345.58 111.168C1346.12 111.373 1346.55 111.672 1346.86 112.064L1345.73 113.352C1345.51 113.072 1345.22 112.853 1344.86 112.694C1344.51 112.535 1344.15 112.456 1343.8 112.456C1343.57 112.456 1343.38 112.479 1343.22 112.526C1343.07 112.563 1342.96 112.619 1342.89 112.694C1342.81 112.769 1342.78 112.862 1342.78 112.974C1342.78 113.095 1342.83 113.203 1342.94 113.296C1343.07 113.38 1343.28 113.455 1343.6 113.52L1344.88 113.772C1345.59 113.903 1346.11 114.141 1346.43 114.486C1346.75 114.831 1346.91 115.247 1346.91 115.732C1346.91 116.189 1346.78 116.6 1346.54 116.964C1346.3 117.328 1345.94 117.617 1345.45 117.832C1344.96 118.037 1344.35 118.14 1343.62 118.14ZM1351.52 118.14C1350.74 118.14 1350.07 117.995 1349.5 117.706C1348.94 117.417 1348.51 117.001 1348.2 116.46C1347.89 115.919 1347.74 115.265 1347.74 114.5C1347.74 113.735 1347.89 113.081 1348.2 112.54C1348.51 111.999 1348.94 111.583 1349.49 111.294C1350.05 111.005 1350.69 110.86 1351.4 110.86C1352.14 110.86 1352.77 111.005 1353.28 111.294C1353.8 111.574 1354.2 111.966 1354.47 112.47C1354.74 112.965 1354.88 113.534 1354.88 114.178C1354.88 114.346 1354.87 114.514 1354.86 114.682C1354.85 114.85 1354.84 114.99 1354.82 115.102H1349.28V113.828H1353.77L1352.64 114.262C1352.64 113.702 1352.53 113.273 1352.33 112.974C1352.13 112.675 1351.82 112.526 1351.4 112.526C1351.11 112.526 1350.85 112.596 1350.63 112.736C1350.43 112.876 1350.27 113.095 1350.16 113.394C1350.06 113.693 1350 114.075 1350 114.542C1350 114.999 1350.06 115.373 1350.19 115.662C1350.31 115.942 1350.48 116.147 1350.7 116.278C1350.93 116.399 1351.2 116.46 1351.52 116.46C1351.87 116.46 1352.15 116.39 1352.36 116.25C1352.57 116.11 1352.73 115.914 1352.83 115.662L1354.74 116.292C1354.61 116.693 1354.38 117.034 1354.05 117.314C1353.73 117.585 1353.35 117.79 1352.9 117.93C1352.46 118.07 1352 118.14 1351.52 118.14ZM1358.56 108.032V115.62C1358.56 115.928 1358.61 116.147 1358.71 116.278C1358.82 116.409 1358.99 116.474 1359.23 116.474C1359.37 116.474 1359.49 116.465 1359.58 116.446C1359.67 116.427 1359.79 116.399 1359.92 116.362L1359.76 117.79C1359.6 117.893 1359.38 117.977 1359.11 118.042C1358.83 118.107 1358.57 118.14 1358.31 118.14C1357.56 118.14 1357.02 117.967 1356.68 117.622C1356.35 117.277 1356.18 116.712 1356.18 115.928V108.032H1358.56ZM1363.14 108.032V115.62C1363.14 115.928 1363.19 116.147 1363.29 116.278C1363.4 116.409 1363.57 116.474 1363.81 116.474C1363.95 116.474 1364.07 116.465 1364.16 116.446C1364.25 116.427 1364.37 116.399 1364.5 116.362L1364.34 117.79C1364.18 117.893 1363.96 117.977 1363.69 118.042C1363.41 118.107 1363.15 118.14 1362.89 118.14C1362.14 118.14 1361.6 117.967 1361.26 117.622C1360.93 117.277 1360.76 116.712 1360.76 115.928V108.032H1363.14ZM1369.18 118V111H1371.28L1371.38 112.512C1371.56 111.989 1371.82 111.583 1372.16 111.294C1372.52 111.005 1372.97 110.86 1373.51 110.86C1373.69 110.86 1373.83 110.874 1373.96 110.902C1374.09 110.93 1374.19 110.967 1374.26 111.014L1374.03 112.974C1373.93 112.937 1373.81 112.909 1373.66 112.89C1373.52 112.862 1373.35 112.848 1373.14 112.848C1372.86 112.848 1372.6 112.909 1372.36 113.03C1372.12 113.151 1371.92 113.333 1371.77 113.576C1371.63 113.809 1371.56 114.108 1371.56 114.472V118H1369.18ZM1379.04 113.562C1379.04 113.235 1378.94 112.979 1378.76 112.792C1378.58 112.596 1378.34 112.498 1378.03 112.498C1377.72 112.498 1377.45 112.577 1377.23 112.736C1377.01 112.885 1376.87 113.156 1376.78 113.548L1374.77 113.072C1374.9 112.4 1375.24 111.863 1375.8 111.462C1376.36 111.061 1377.15 110.86 1378.17 110.86C1378.85 110.86 1379.43 110.963 1379.9 111.168C1380.39 111.364 1380.76 111.663 1381.01 112.064C1381.27 112.456 1381.4 112.941 1381.4 113.52V116.082C1381.4 116.446 1381.56 116.628 1381.89 116.628C1382.06 116.628 1382.19 116.609 1382.3 116.572L1382.16 117.93C1381.88 118.061 1381.54 118.126 1381.14 118.126C1380.77 118.126 1380.45 118.07 1380.17 117.958C1379.89 117.837 1379.67 117.659 1379.51 117.426C1379.35 117.183 1379.27 116.88 1379.27 116.516V116.432L1379.54 116.334C1379.54 116.735 1379.42 117.071 1379.18 117.342C1378.94 117.613 1378.63 117.813 1378.25 117.944C1377.88 118.075 1377.49 118.14 1377.08 118.14C1376.6 118.14 1376.18 118.065 1375.83 117.916C1375.47 117.767 1375.2 117.552 1375 117.272C1374.82 116.983 1374.72 116.628 1374.72 116.208C1374.72 115.704 1374.87 115.289 1375.17 114.962C1375.48 114.626 1375.96 114.393 1376.61 114.262L1379.26 113.716L1379.25 114.976L1377.9 115.256C1377.62 115.312 1377.41 115.396 1377.27 115.508C1377.14 115.611 1377.08 115.769 1377.08 115.984C1377.08 116.189 1377.15 116.343 1377.3 116.446C1377.45 116.549 1377.63 116.6 1377.83 116.6C1377.99 116.6 1378.14 116.577 1378.28 116.53C1378.43 116.483 1378.56 116.413 1378.67 116.32C1378.78 116.217 1378.87 116.091 1378.94 115.942C1379 115.793 1379.04 115.615 1379.04 115.41V113.562ZM1385.89 108.774V115.508C1385.89 115.844 1385.97 116.087 1386.13 116.236C1386.3 116.376 1386.52 116.446 1386.81 116.446C1387.04 116.446 1387.23 116.423 1387.39 116.376C1387.56 116.32 1387.7 116.241 1387.84 116.138L1388.09 117.608C1387.85 117.776 1387.56 117.907 1387.21 118C1386.85 118.093 1386.49 118.14 1386.11 118.14C1385.58 118.14 1385.12 118.065 1384.73 117.916C1384.34 117.767 1384.05 117.529 1383.83 117.202C1383.63 116.875 1383.52 116.441 1383.51 115.9V109.432L1385.89 108.774ZM1387.98 111V112.694H1382.31V111H1387.98ZM1392.49 118.14C1391.72 118.14 1391.04 117.995 1390.47 117.706C1389.91 117.417 1389.48 117.001 1389.17 116.46C1388.86 115.919 1388.71 115.265 1388.71 114.5C1388.71 113.735 1388.86 113.081 1389.17 112.54C1389.48 111.999 1389.91 111.583 1390.46 111.294C1391.02 111.005 1391.66 110.86 1392.38 110.86C1393.12 110.86 1393.74 111.005 1394.25 111.294C1394.78 111.574 1395.17 111.966 1395.44 112.47C1395.72 112.965 1395.85 113.534 1395.85 114.178C1395.85 114.346 1395.85 114.514 1395.84 114.682C1395.83 114.85 1395.81 114.99 1395.79 115.102H1390.25V113.828H1394.74L1393.61 114.262C1393.61 113.702 1393.51 113.273 1393.3 112.974C1393.11 112.675 1392.8 112.526 1392.38 112.526C1392.08 112.526 1391.82 112.596 1391.61 112.736C1391.4 112.876 1391.24 113.095 1391.13 113.394C1391.03 113.693 1390.98 114.075 1390.98 114.542C1390.98 114.999 1391.04 115.373 1391.16 115.662C1391.28 115.942 1391.45 116.147 1391.68 116.278C1391.9 116.399 1392.17 116.46 1392.49 116.46C1392.85 116.46 1393.13 116.39 1393.33 116.25C1393.55 116.11 1393.7 115.914 1393.81 115.662L1395.71 116.292C1395.58 116.693 1395.35 117.034 1395.02 117.314C1394.71 117.585 1394.32 117.79 1393.88 117.93C1393.44 118.07 1392.98 118.14 1392.49 118.14Z" fill="#0C0900"/>
<path d="M1449 125C1455.63 125 1461 119.627 1461 113C1461 106.373 1455.63 101 1449 101C1442.37 101 1437 106.373 1437 113C1437 119.627 1442.37 125 1449 125Z" fill="#26A17B"/>
<path fill-rule="evenodd" clip-rule="evenodd" d="M1450.44 114.037V114.036C1450.36 114.042 1449.93 114.067 1448.98 114.067C1448.23 114.067 1447.69 114.045 1447.51 114.036V114.038C1444.59 113.91 1442.41 113.402 1442.41 112.795C1442.41 112.188 1444.59 111.68 1447.51 111.55V113.533C1447.7 113.546 1448.24 113.578 1449 113.578C1449.9 113.578 1450.36 113.541 1450.44 113.533V111.551C1453.35 111.681 1455.52 112.189 1455.52 112.795C1455.52 113.402 1453.35 113.908 1450.44 114.037M1450.44 111.345V109.57H1454.5V106.864H1443.45V109.57H1447.51V111.344C1444.21 111.496 1441.72 112.15 1441.72 112.933C1441.72 113.716 1444.21 114.369 1447.51 114.521V120.208H1450.44V114.52C1453.74 114.368 1456.21 113.715 1456.21 112.933C1456.21 112.15 1453.74 111.497 1450.44 111.345" fill="black"/>
<path d="M1476.07 109.08V110.184H1473.36V117H1472.07V110.184H1469.36V109.08H1476.07ZM1478.81 117.12C1478.21 117.12 1477.68 116.996 1477.23 116.748C1476.77 116.5 1476.42 116.144 1476.16 115.68C1475.91 115.208 1475.79 114.648 1475.79 114C1475.79 113.352 1475.91 112.796 1476.16 112.332C1476.42 111.86 1476.77 111.5 1477.22 111.252C1477.66 111.004 1478.17 110.88 1478.74 110.88C1479.32 110.88 1479.82 111 1480.23 111.24C1480.64 111.48 1480.95 111.808 1481.16 112.224C1481.38 112.64 1481.49 113.112 1481.49 113.64C1481.49 113.784 1481.48 113.92 1481.48 114.048C1481.47 114.176 1481.46 114.288 1481.44 114.384H1476.62V113.4H1480.88L1480.24 113.592C1480.24 113.048 1480.1 112.632 1479.83 112.344C1479.56 112.048 1479.19 111.9 1478.72 111.9C1478.37 111.9 1478.07 111.98 1477.82 112.14C1477.56 112.3 1477.36 112.54 1477.23 112.86C1477.09 113.172 1477.02 113.556 1477.02 114.012C1477.02 114.46 1477.1 114.84 1477.24 115.152C1477.38 115.464 1477.59 115.7 1477.85 115.86C1478.12 116.02 1478.43 116.1 1478.79 116.1C1479.19 116.1 1479.51 116.024 1479.76 115.872C1480.01 115.72 1480.2 115.508 1480.35 115.236L1481.37 115.716C1481.22 116.004 1481.03 116.256 1480.78 116.472C1480.54 116.68 1480.25 116.84 1479.92 116.952C1479.58 117.064 1479.21 117.12 1478.81 117.12ZM1484.72 109.236V115.2C1484.72 115.496 1484.8 115.712 1484.95 115.848C1485.11 115.984 1485.32 116.052 1485.58 116.052C1485.8 116.052 1485.99 116.02 1486.15 115.956C1486.31 115.884 1486.46 115.788 1486.59 115.668L1486.88 116.604C1486.7 116.764 1486.47 116.892 1486.2 116.988C1485.93 117.076 1485.64 117.12 1485.31 117.12C1484.96 117.12 1484.65 117.064 1484.36 116.952C1484.07 116.84 1483.85 116.66 1483.69 116.412C1483.53 116.156 1483.44 115.824 1483.44 115.416V109.596L1484.72 109.236ZM1486.78 111V112.008H1482.28V111H1486.78ZM1488.1 117V108.3H1489.39V111.96C1489.59 111.584 1489.85 111.312 1490.19 111.144C1490.53 110.968 1490.91 110.88 1491.33 110.88C1491.75 110.88 1492.13 110.964 1492.47 111.132C1492.81 111.292 1493.09 111.536 1493.29 111.864C1493.49 112.192 1493.59 112.608 1493.59 113.112V117H1492.3V113.52C1492.3 112.928 1492.18 112.516 1491.93 112.284C1491.69 112.052 1491.39 111.936 1491.02 111.936C1490.76 111.936 1490.51 112 1490.25 112.128C1490 112.248 1489.79 112.448 1489.63 112.728C1489.47 113 1489.39 113.368 1489.39 113.832V117H1488.1ZM1498.17 117.12C1497.57 117.12 1497.04 116.996 1496.59 116.748C1496.13 116.5 1495.78 116.144 1495.52 115.68C1495.27 115.208 1495.15 114.648 1495.15 114C1495.15 113.352 1495.27 112.796 1495.52 112.332C1495.78 111.86 1496.13 111.5 1496.58 111.252C1497.02 111.004 1497.53 110.88 1498.1 110.88C1498.68 110.88 1499.18 111 1499.59 111.24C1500 111.48 1500.31 111.808 1500.52 112.224C1500.74 112.64 1500.85 113.112 1500.85 113.64C1500.85 113.784 1500.84 113.92 1500.84 114.048C1500.83 114.176 1500.82 114.288 1500.8 114.384H1495.98V113.4H1500.24L1499.6 113.592C1499.6 113.048 1499.46 112.632 1499.19 112.344C1498.92 112.048 1498.55 111.9 1498.08 111.9C1497.73 111.9 1497.43 111.98 1497.18 112.14C1496.92 112.3 1496.72 112.54 1496.59 112.86C1496.45 113.172 1496.38 113.556 1496.38 114.012C1496.38 114.46 1496.46 114.84 1496.6 115.152C1496.74 115.464 1496.95 115.7 1497.21 115.86C1497.48 116.02 1497.79 116.1 1498.15 116.1C1498.55 116.1 1498.87 116.024 1499.12 115.872C1499.37 115.72 1499.56 115.508 1499.71 115.236L1500.73 115.716C1500.58 116.004 1500.39 116.256 1500.14 116.472C1499.9 116.68 1499.61 116.84 1499.28 116.952C1498.94 117.064 1498.57 117.12 1498.17 117.12ZM1502.47 117V111H1503.56L1503.68 112.08C1503.84 111.688 1504.08 111.392 1504.39 111.192C1504.71 110.984 1505.1 110.88 1505.56 110.88C1505.68 110.88 1505.8 110.892 1505.92 110.916C1506.04 110.932 1506.14 110.96 1506.22 111L1506.04 112.128C1505.96 112.096 1505.86 112.072 1505.74 112.056C1505.64 112.032 1505.5 112.02 1505.31 112.02C1505.06 112.02 1504.82 112.088 1504.58 112.224C1504.34 112.352 1504.14 112.548 1503.98 112.812C1503.83 113.076 1503.75 113.412 1503.75 113.82V117H1502.47ZM1517.57 109.08V113.964C1517.57 115.012 1517.3 115.8 1516.75 116.328C1516.19 116.856 1515.39 117.12 1514.33 117.12C1513.29 117.12 1512.49 116.856 1511.93 116.328C1511.38 115.8 1511.11 115.012 1511.11 113.964V109.08H1512.39V113.808C1512.39 114.552 1512.55 115.104 1512.87 115.464C1513.19 115.824 1513.68 116.004 1514.33 116.004C1515 116.004 1515.49 115.824 1515.81 115.464C1516.13 115.104 1516.29 114.552 1516.29 113.808V109.08H1517.57ZM1522.47 108.96C1523.18 108.96 1523.8 109.096 1524.32 109.368C1524.84 109.632 1525.28 110.024 1525.64 110.544L1524.77 111.372C1524.47 110.908 1524.13 110.576 1523.74 110.376C1523.37 110.168 1522.92 110.064 1522.4 110.064C1522.01 110.064 1521.7 110.116 1521.45 110.22C1521.2 110.324 1521.02 110.464 1520.9 110.64C1520.79 110.808 1520.73 111 1520.73 111.216C1520.73 111.464 1520.81 111.68 1520.98 111.864C1521.16 112.048 1521.48 112.192 1521.95 112.296L1523.56 112.656C1524.33 112.824 1524.87 113.08 1525.19 113.424C1525.51 113.768 1525.67 114.204 1525.67 114.732C1525.67 115.22 1525.54 115.644 1525.28 116.004C1525.01 116.364 1524.65 116.64 1524.17 116.832C1523.71 117.024 1523.16 117.12 1522.53 117.12C1521.97 117.12 1521.47 117.048 1521.02 116.904C1520.57 116.76 1520.18 116.564 1519.84 116.316C1519.51 116.068 1519.23 115.784 1519.01 115.464L1519.9 114.576C1520.07 114.856 1520.28 115.108 1520.54 115.332C1520.79 115.548 1521.09 115.716 1521.43 115.836C1521.77 115.956 1522.15 116.016 1522.57 116.016C1522.93 116.016 1523.25 115.972 1523.51 115.884C1523.79 115.796 1523.99 115.668 1524.13 115.5C1524.27 115.324 1524.34 115.116 1524.34 114.876C1524.34 114.644 1524.26 114.44 1524.1 114.264C1523.95 114.088 1523.66 113.952 1523.24 113.856L1521.5 113.46C1521.02 113.356 1520.62 113.208 1520.31 113.016C1520 112.824 1519.77 112.592 1519.61 112.32C1519.46 112.04 1519.39 111.728 1519.39 111.384C1519.39 110.936 1519.51 110.532 1519.75 110.172C1519.99 109.804 1520.35 109.512 1520.81 109.296C1521.28 109.072 1521.83 108.96 1522.47 108.96ZM1530.26 109.08C1531.5 109.08 1532.47 109.424 1533.16 110.112C1533.85 110.792 1534.2 111.768 1534.2 113.04C1534.2 114.312 1533.85 115.292 1533.16 115.98C1532.47 116.66 1531.5 117 1530.26 117H1527.47V109.08H1530.26ZM1530.26 115.908C1531.1 115.908 1531.74 115.66 1532.18 115.164C1532.63 114.66 1532.86 113.952 1532.86 113.04C1532.86 112.128 1532.63 111.424 1532.18 110.928C1531.74 110.424 1531.1 110.172 1530.26 110.172H1528.75V115.908H1530.26Z" fill="#191919"/>
<path d="M1546.02 121V105.16H1549.05L1554.64 114.976L1556.2 117.928H1556.22L1556.13 115.432V105.16H1558.46V121H1555.43L1549.86 111.304L1548.28 108.328H1548.26L1548.35 110.776V121H1546.02ZM1543.38 113.968V112.168H1561.1V113.968H1543.38ZM1568.09 104.92C1569.45 104.92 1570.6 105.256 1571.52 105.928C1572.47 106.6 1573.17 107.544 1573.64 108.76C1574.12 109.976 1574.36 111.408 1574.36 113.056C1574.36 114.88 1574.11 116.4 1573.61 117.616C1573.12 118.816 1572.4 119.72 1571.48 120.328C1570.55 120.936 1569.43 121.24 1568.12 121.24C1566.77 121.24 1565.62 120.944 1564.66 120.352C1563.7 119.76 1562.98 118.872 1562.5 117.688L1564.92 116.56C1565.15 117.312 1565.52 117.912 1566.03 118.36C1566.56 118.808 1567.27 119.032 1568.16 119.032C1568.9 119.032 1569.52 118.888 1570.01 118.6C1570.51 118.312 1570.9 117.896 1571.19 117.352C1571.49 116.808 1571.71 116.152 1571.84 115.384C1571.96 114.616 1572.03 113.752 1572.03 112.792C1572.03 112.744 1572.03 112.704 1572.03 112.672C1572.03 112.624 1572.03 112.576 1572.03 112.528H1571.93C1571.76 113.168 1571.44 113.688 1570.97 114.088C1570.52 114.488 1570.01 114.784 1569.44 114.976C1568.86 115.152 1568.28 115.24 1567.71 115.24C1566.68 115.24 1565.77 115.04 1564.97 114.64C1564.19 114.224 1563.57 113.648 1563.12 112.912C1562.68 112.176 1562.45 111.304 1562.45 110.296C1562.45 109.192 1562.68 108.24 1563.12 107.44C1563.59 106.64 1564.24 106.024 1565.07 105.592C1565.92 105.144 1566.92 104.92 1568.09 104.92ZM1568.12 107.176C1567.11 107.176 1566.33 107.448 1565.79 107.992C1565.26 108.536 1565 109.296 1565 110.272C1565 111.136 1565.28 111.816 1565.84 112.312C1566.41 112.792 1567.17 113.032 1568.12 113.032C1568.72 113.032 1569.26 112.912 1569.72 112.672C1570.19 112.416 1570.55 112.072 1570.8 111.64C1571.08 111.208 1571.21 110.704 1571.21 110.128C1571.21 109.52 1571.08 109 1570.8 108.568C1570.55 108.12 1570.19 107.776 1569.72 107.536C1569.26 107.296 1568.72 107.176 1568.12 107.176ZM1582.43 104.92C1583.79 104.92 1584.93 105.256 1585.86 105.928C1586.8 106.6 1587.51 107.544 1587.97 108.76C1588.45 109.976 1588.69 111.408 1588.69 113.056C1588.69 114.88 1588.44 116.4 1587.95 117.616C1587.45 118.816 1586.74 119.72 1585.81 120.328C1584.88 120.936 1583.76 121.24 1582.45 121.24C1581.11 121.24 1579.95 120.944 1578.99 120.352C1578.03 119.76 1577.31 118.872 1576.83 117.688L1579.26 116.56C1579.48 117.312 1579.85 117.912 1580.36 118.36C1580.89 118.808 1581.6 119.032 1582.5 119.032C1583.23 119.032 1583.85 118.888 1584.35 118.6C1584.84 118.312 1585.23 117.896 1585.52 117.352C1585.83 116.808 1586.04 116.152 1586.17 115.384C1586.3 114.616 1586.36 113.752 1586.36 112.792C1586.36 112.744 1586.36 112.704 1586.36 112.672C1586.36 112.624 1586.36 112.576 1586.36 112.528H1586.27C1586.09 113.168 1585.77 113.688 1585.31 114.088C1584.86 114.488 1584.35 114.784 1583.77 114.976C1583.19 115.152 1582.62 115.24 1582.04 115.24C1581.02 115.24 1580.11 115.04 1579.31 114.64C1578.52 114.224 1577.91 113.648 1577.46 112.912C1577.01 112.176 1576.79 111.304 1576.79 110.296C1576.79 109.192 1577.01 108.24 1577.46 107.44C1577.92 106.64 1578.57 106.024 1579.4 105.592C1580.25 105.144 1581.26 104.92 1582.43 104.92ZM1582.45 107.176C1581.44 107.176 1580.67 107.448 1580.12 107.992C1579.59 108.536 1579.33 109.296 1579.33 110.272C1579.33 111.136 1579.61 111.816 1580.17 112.312C1580.75 112.792 1581.51 113.032 1582.45 113.032C1583.06 113.032 1583.59 112.912 1584.06 112.672C1584.52 112.416 1584.88 112.072 1585.14 111.64C1585.41 111.208 1585.55 110.704 1585.55 110.128C1585.55 109.52 1585.41 109 1585.14 108.568C1584.88 108.12 1584.52 107.776 1584.06 107.536C1583.59 107.296 1583.06 107.176 1582.45 107.176ZM1596.49 121.24C1595.09 121.24 1593.93 120.936 1593.01 120.328C1592.12 119.72 1591.41 118.84 1590.88 117.688L1593.28 116.44C1593.52 117.208 1593.88 117.84 1594.36 118.336C1594.85 118.816 1595.58 119.056 1596.54 119.056C1597.21 119.056 1597.78 118.936 1598.25 118.696C1598.73 118.44 1599.09 118.088 1599.35 117.64C1599.61 117.176 1599.73 116.624 1599.73 115.984C1599.73 115.312 1599.61 114.752 1599.37 114.304C1599.13 113.856 1598.79 113.52 1598.34 113.296C1597.89 113.056 1597.33 112.936 1596.66 112.936C1596.2 112.936 1595.77 112.984 1595.37 113.08C1594.97 113.176 1594.61 113.328 1594.29 113.536C1593.97 113.728 1593.69 113.984 1593.45 114.304L1591.33 113.896L1592.29 105.16H1601.51V107.368H1594.33L1593.76 111.832L1593.71 112.096H1593.76C1594.13 111.696 1594.6 111.384 1595.17 111.16C1595.77 110.936 1596.46 110.824 1597.26 110.824C1598.29 110.824 1599.17 111.04 1599.9 111.472C1600.64 111.888 1601.21 112.472 1601.63 113.224C1602.05 113.976 1602.25 114.848 1602.25 115.84C1602.25 116.704 1602.11 117.472 1601.82 118.144C1601.53 118.816 1601.13 119.384 1600.6 119.848C1600.07 120.312 1599.45 120.664 1598.75 120.904C1598.06 121.128 1597.31 121.24 1596.49 121.24Z" fill="#0C0900"/>
<path d="M1651.64 115.902C1650.04 122.334 1643.52 126.244 1637.1 124.64C1630.67 123.037 1626.76 116.521 1628.36 110.098C1629.96 103.666 1636.47 99.7561 1642.9 101.36C1649.33 102.953 1653.24 109.47 1651.64 115.902Z" fill="url(#paint0_linear_54_95)"/>
<path d="M1645.71 111.505C1645.95 109.911 1644.74 109.048 1643.07 108.477L1643.61 106.311L1642.3 105.983L1641.78 108.092C1641.43 108.008 1641.07 107.923 1640.72 107.848L1641.24 105.73L1639.93 105.402L1639.4 107.558C1639.1 107.492 1638.82 107.427 1638.55 107.361V107.352L1636.73 106.902L1636.39 108.308C1636.39 108.308 1637.36 108.533 1637.34 108.542C1637.88 108.673 1637.97 109.03 1637.95 109.311L1637.33 111.777C1637.37 111.786 1637.42 111.795 1637.47 111.823C1637.43 111.814 1637.38 111.805 1637.33 111.786L1636.47 115.236C1636.4 115.395 1636.24 115.639 1635.87 115.545C1635.88 115.564 1634.91 115.311 1634.91 115.311L1634.26 116.82L1635.97 117.252C1636.29 117.336 1636.6 117.411 1636.91 117.495L1636.37 119.68L1637.68 120.008L1638.22 117.842C1638.58 117.936 1638.94 118.03 1639.27 118.114L1638.74 120.27L1640.05 120.598L1640.6 118.414C1642.85 118.836 1644.53 118.667 1645.24 116.633C1645.81 115.002 1645.21 114.055 1644.03 113.436C1644.9 113.239 1645.55 112.667 1645.71 111.505V111.505ZM1642.7 115.723C1642.3 117.355 1639.55 116.473 1638.65 116.248L1639.38 113.352C1640.27 113.577 1643.14 114.017 1642.7 115.723ZM1643.12 111.477C1642.74 112.967 1640.45 112.208 1639.71 112.02L1640.37 109.395C1641.11 109.583 1643.5 109.93 1643.12 111.477Z" fill="black"/>
<path d="M1661.18 117V109.08H1664.3C1665.25 109.08 1665.94 109.272 1666.38 109.656C1666.82 110.04 1667.04 110.572 1667.04 111.252C1667.04 111.668 1666.92 112.04 1666.68 112.368C1666.44 112.688 1666.09 112.892 1665.63 112.98V112.992C1666.14 113.072 1666.54 113.284 1666.82 113.628C1667.1 113.964 1667.25 114.356 1667.25 114.804C1667.25 115.484 1667 116.02 1666.5 116.412C1666.01 116.804 1665.29 117 1664.34 117H1661.18ZM1662.44 115.932H1664.4C1664.91 115.932 1665.28 115.828 1665.53 115.62C1665.79 115.412 1665.92 115.12 1665.92 114.744C1665.92 114.368 1665.79 114.076 1665.53 113.868C1665.28 113.66 1664.91 113.556 1664.4 113.556H1662.44V115.932ZM1662.44 112.488H1664.2C1665.21 112.488 1665.71 112.1 1665.71 111.324C1665.71 110.548 1665.21 110.16 1664.2 110.16H1662.44V112.488ZM1669.59 109.992C1669.31 109.992 1669.09 109.924 1668.94 109.788C1668.8 109.644 1668.73 109.444 1668.73 109.188C1668.73 108.932 1668.8 108.736 1668.94 108.6C1669.09 108.464 1669.31 108.396 1669.59 108.396C1669.86 108.396 1670.07 108.464 1670.21 108.6C1670.37 108.736 1670.44 108.932 1670.44 109.188C1670.44 109.444 1670.37 109.644 1670.21 109.788C1670.07 109.924 1669.86 109.992 1669.59 109.992ZM1670.23 111V117H1668.94V111H1670.23ZM1673.99 109.236V115.2C1673.99 115.496 1674.06 115.712 1674.21 115.848C1674.37 115.984 1674.59 116.052 1674.85 116.052C1675.07 116.052 1675.25 116.02 1675.41 115.956C1675.57 115.884 1675.72 115.788 1675.86 115.668L1676.15 116.604C1675.96 116.764 1675.73 116.892 1675.46 116.988C1675.2 117.076 1674.9 117.12 1674.57 117.12C1674.23 117.12 1673.91 117.064 1673.63 116.952C1673.34 116.84 1673.11 116.66 1672.95 116.412C1672.79 116.156 1672.71 115.824 1672.7 115.416V109.596L1673.99 109.236ZM1676.05 111V112.008H1671.55V111H1676.05ZM1679.91 110.88C1680.39 110.88 1680.8 110.952 1681.14 111.096C1681.48 111.232 1681.77 111.428 1682 111.684C1682.23 111.94 1682.41 112.232 1682.53 112.56L1681.32 113.04C1681.21 112.672 1681.04 112.392 1680.81 112.2C1680.59 112 1680.29 111.9 1679.92 111.9C1679.56 111.9 1679.26 111.984 1679 112.152C1678.74 112.312 1678.55 112.548 1678.41 112.86C1678.28 113.172 1678.22 113.556 1678.22 114.012C1678.22 114.46 1678.29 114.84 1678.42 115.152C1678.56 115.464 1678.76 115.7 1679.01 115.86C1679.27 116.02 1679.57 116.1 1679.92 116.1C1680.2 116.1 1680.43 116.056 1680.63 115.968C1680.83 115.872 1681 115.74 1681.12 115.572C1681.26 115.396 1681.35 115.184 1681.4 114.936L1682.56 115.332C1682.45 115.692 1682.28 116.008 1682.04 116.28C1681.8 116.544 1681.51 116.752 1681.16 116.904C1680.81 117.048 1680.4 117.12 1679.95 117.12C1679.36 117.12 1678.83 116.996 1678.38 116.748C1677.92 116.5 1677.56 116.144 1677.31 115.68C1677.06 115.208 1676.94 114.648 1676.94 114C1676.94 113.352 1677.06 112.796 1677.31 112.332C1677.56 111.86 1677.92 111.5 1678.36 111.252C1678.82 111.004 1679.34 110.88 1679.91 110.88ZM1686.66 110.88C1687.25 110.88 1687.76 111.004 1688.21 111.252C1688.66 111.5 1689.01 111.86 1689.25 112.332C1689.51 112.796 1689.64 113.352 1689.64 114C1689.64 114.648 1689.51 115.208 1689.25 115.68C1689.01 116.144 1688.66 116.5 1688.21 116.748C1687.76 116.996 1687.25 117.12 1686.66 117.12C1686.08 117.12 1685.56 116.996 1685.11 116.748C1684.67 116.5 1684.31 116.144 1684.06 115.68C1683.8 115.208 1683.67 114.648 1683.67 114C1683.67 113.352 1683.8 112.796 1684.06 112.332C1684.31 111.86 1684.67 111.5 1685.11 111.252C1685.56 111.004 1686.08 110.88 1686.66 110.88ZM1686.66 111.888C1686.3 111.888 1685.99 111.972 1685.74 112.14C1685.49 112.3 1685.3 112.536 1685.16 112.848C1685.03 113.16 1684.96 113.544 1684.96 114C1684.96 114.448 1685.03 114.832 1685.16 115.152C1685.3 115.464 1685.49 115.704 1685.74 115.872C1685.99 116.032 1686.3 116.112 1686.66 116.112C1687.02 116.112 1687.33 116.032 1687.57 115.872C1687.82 115.704 1688.01 115.464 1688.15 115.152C1688.29 114.832 1688.35 114.448 1688.35 114C1688.35 113.544 1688.29 113.16 1688.15 112.848C1688.01 112.536 1687.82 112.3 1687.57 112.14C1687.33 111.972 1687.02 111.888 1686.66 111.888ZM1691.9 109.992C1691.62 109.992 1691.41 109.924 1691.25 109.788C1691.11 109.644 1691.04 109.444 1691.04 109.188C1691.04 108.932 1691.11 108.736 1691.25 108.6C1691.41 108.464 1691.62 108.396 1691.9 108.396C1692.17 108.396 1692.38 108.464 1692.53 108.6C1692.68 108.736 1692.75 108.932 1692.75 109.188C1692.75 109.444 1692.68 109.644 1692.53 109.788C1692.38 109.924 1692.17 109.992 1691.9 109.992ZM1692.54 111V117H1691.25V111H1692.54ZM1694.55 117V111H1695.69L1695.77 112.56L1695.6 112.392C1695.71 112.048 1695.87 111.764 1696.08 111.54C1696.3 111.308 1696.55 111.14 1696.84 111.036C1697.13 110.932 1697.45 110.88 1697.77 110.88C1698.2 110.88 1698.58 110.964 1698.91 111.132C1699.26 111.292 1699.53 111.536 1699.73 111.864C1699.93 112.192 1700.03 112.608 1700.03 113.112V117H1698.75V113.508C1698.75 112.916 1698.62 112.508 1698.37 112.284C1698.13 112.052 1697.83 111.936 1697.46 111.936C1697.2 111.936 1696.94 112 1696.69 112.128C1696.45 112.248 1696.24 112.444 1696.07 112.716C1695.91 112.988 1695.83 113.352 1695.83 113.808V117H1694.55Z" fill="#191919"/>
<path d="M1712.02 121V105.16H1715.05L1720.64 114.976L1722.2 117.928H1722.22L1722.13 115.432V105.16H1724.46V121H1721.43L1715.86 111.304L1714.28 108.328H1714.26L1714.35 110.776V121H1712.02ZM1709.38 113.968V112.168H1727.1V113.968H1709.38ZM1734.09 104.92C1735.45 104.92 1736.6 105.256 1737.52 105.928C1738.47 106.6 1739.17 107.544 1739.64 108.76C1740.12 109.976 1740.36 111.408 1740.36 113.056C1740.36 114.88 1740.11 116.4 1739.61 117.616C1739.12 118.816 1738.4 119.72 1737.48 120.328C1736.55 120.936 1735.43 121.24 1734.12 121.24C1732.77 121.24 1731.62 120.944 1730.66 120.352C1729.7 119.76 1728.98 118.872 1728.5 117.688L1730.92 116.56C1731.15 117.312 1731.52 117.912 1732.03 118.36C1732.56 118.808 1733.27 119.032 1734.16 119.032C1734.9 119.032 1735.52 118.888 1736.01 118.6C1736.51 118.312 1736.9 117.896 1737.19 117.352C1737.49 116.808 1737.71 116.152 1737.84 115.384C1737.96 114.616 1738.03 113.752 1738.03 112.792C1738.03 112.744 1738.03 112.704 1738.03 112.672C1738.03 112.624 1738.03 112.576 1738.03 112.528H1737.93C1737.76 113.168 1737.44 113.688 1736.97 114.088C1736.52 114.488 1736.01 114.784 1735.44 114.976C1734.86 115.152 1734.28 115.24 1733.71 115.24C1732.68 115.24 1731.77 115.04 1730.97 114.64C1730.19 114.224 1729.57 113.648 1729.12 112.912C1728.68 112.176 1728.45 111.304 1728.45 110.296C1728.45 109.192 1728.68 108.24 1729.12 107.44C1729.59 106.64 1730.24 106.024 1731.07 105.592C1731.92 105.144 1732.92 104.92 1734.09 104.92ZM1734.12 107.176C1733.11 107.176 1732.33 107.448 1731.79 107.992C1731.26 108.536 1731 109.296 1731 110.272C1731 111.136 1731.28 111.816 1731.84 112.312C1732.41 112.792 1733.17 113.032 1734.12 113.032C1734.72 113.032 1735.26 112.912 1735.72 112.672C1736.19 112.416 1736.55 112.072 1736.8 111.64C1737.08 111.208 1737.21 110.704 1737.21 110.128C1737.21 109.52 1737.08 109 1736.8 108.568C1736.55 108.12 1736.19 107.776 1735.72 107.536C1735.26 107.296 1734.72 107.176 1734.12 107.176ZM1748.43 104.92C1749.79 104.92 1750.93 105.256 1751.86 105.928C1752.8 106.6 1753.51 107.544 1753.97 108.76C1754.45 109.976 1754.69 111.408 1754.69 113.056C1754.69 114.88 1754.44 116.4 1753.95 117.616C1753.45 118.816 1752.74 119.72 1751.81 120.328C1750.88 120.936 1749.76 121.24 1748.45 121.24C1747.11 121.24 1745.95 120.944 1744.99 120.352C1744.03 119.76 1743.31 118.872 1742.83 117.688L1745.26 116.56C1745.48 117.312 1745.85 117.912 1746.36 118.36C1746.89 118.808 1747.6 119.032 1748.5 119.032C1749.23 119.032 1749.85 118.888 1750.35 118.6C1750.84 118.312 1751.23 117.896 1751.52 117.352C1751.83 116.808 1752.04 116.152 1752.17 115.384C1752.3 114.616 1752.36 113.752 1752.36 112.792C1752.36 112.744 1752.36 112.704 1752.36 112.672C1752.36 112.624 1752.36 112.576 1752.36 112.528H1752.27C1752.09 113.168 1751.77 113.688 1751.31 114.088C1750.86 114.488 1750.35 114.784 1749.77 114.976C1749.19 115.152 1748.62 115.24 1748.04 115.24C1747.02 115.24 1746.11 115.04 1745.31 114.64C1744.52 114.224 1743.91 113.648 1743.46 112.912C1743.01 112.176 1742.79 111.304 1742.79 110.296C1742.79 109.192 1743.01 108.24 1743.46 107.44C1743.92 106.64 1744.57 106.024 1745.4 105.592C1746.25 105.144 1747.26 104.92 1748.43 104.92ZM1748.45 107.176C1747.44 107.176 1746.67 107.448 1746.12 107.992C1745.59 108.536 1745.33 109.296 1745.33 110.272C1745.33 111.136 1745.61 111.816 1746.17 112.312C1746.75 112.792 1747.51 113.032 1748.45 113.032C1749.06 113.032 1749.59 112.912 1750.06 112.672C1750.52 112.416 1750.88 112.072 1751.14 111.64C1751.41 111.208 1751.55 110.704 1751.55 110.128C1751.55 109.52 1751.41 109 1751.14 108.568C1750.88 108.12 1750.52 107.776 1750.06 107.536C1749.59 107.296 1749.06 107.176 1748.45 107.176ZM1762.49 121.24C1761.09 121.24 1759.93 120.936 1759.01 120.328C1758.12 119.72 1757.41 118.84 1756.88 117.688L1759.28 116.44C1759.52 117.208 1759.88 117.84 1760.36 118.336C1760.85 118.816 1761.58 119.056 1762.54 119.056C1763.21 119.056 1763.78 118.936 1764.25 118.696C1764.73 118.44 1765.09 118.088 1765.35 117.64C1765.61 117.176 1765.73 116.624 1765.73 115.984C1765.73 115.312 1765.61 114.752 1765.37 114.304C1765.13 113.856 1764.79 113.52 1764.34 113.296C1763.89 113.056 1763.33 112.936 1762.66 112.936C1762.2 112.936 1761.77 112.984 1761.37 113.08C1760.97 113.176 1760.61 113.328 1760.29 113.536C1759.97 113.728 1759.69 113.984 1759.45 114.304L1757.33 113.896L1758.29 105.16H1767.51V107.368H1760.33L1759.76 111.832L1759.71 112.096H1759.76C1760.13 111.696 1760.6 111.384 1761.17 111.16C1761.77 110.936 1762.46 110.824 1763.26 110.824C1764.29 110.824 1765.17 111.04 1765.9 111.472C1766.64 111.888 1767.21 112.472 1767.63 113.224C1768.05 113.976 1768.25 114.848 1768.25 115.84C1768.25 116.704 1768.11 117.472 1767.82 118.144C1767.53 118.816 1767.13 119.384 1766.6 119.848C1766.07 120.312 1765.45 120.664 1764.75 120.904C1764.06 121.128 1763.31 121.24 1762.49 121.24Z" fill="#0C0900"/>
<rect opacity="0.12" x="1820" y="422" width="40" height="40" fill="#168B3F"/>
<rect opacity="0.12" x="1700" y="462" width="40" height="40" fill="#168B3F"/>
<rect opacity="0.12" x="1700" y="1053.81" width="40" height="40" fill="#E2E2E4"/>
<rect opacity="0.12" x="1620" y="1093.81" width="40" height="40" fill="#E2E2E4"/>
<rect opacity="0.12" x="1740" y="1133.81" width="40" height="40" fill="#E2E2E4"/>
<rect opacity="0.12" x="1646.25" y="308" width="12" height="12" fill="#168B3F"/>
<defs>
<filter id="filter0_f_54_95" x="337" y="417" width="1250" height="250" filterUnits="userSpaceOnUse" color-interpolation-filters="sRGB">
<feFlood flood-opacity="0" result="BackgroundImageFix"/>
<feBlend mode="normal" in="SourceGraphic" in2="BackgroundImageFix" result="shape"/>
<feGaussianBlur stdDeviation="37.5" result="effect1_foregroundBlur_54_95"/>
</filter>
<linearGradient id="paint0_linear_54_95" x1="1639.99" y1="100.994" x2="1639.99" y2="124.998" gradientUnits="userSpaceOnUse">
<stop stop-color="#F9AA4B"/>
<stop offset="1" stop-color="#F7931A"/>
</linearGradient>
</defs>
</svg>
