<svg width="246" height="246" viewBox="0 0 246 246" fill="none" xmlns="http://www.w3.org/2000/svg">
<path d="M69.4761 69.1816L45.8837 62.0548C44.9681 61.7782 44.0016 62.2962 43.725 63.2118L39.5288 77.1027C39.2522 78.0183 39.7702 78.9848 40.6858 79.2614L64.2782 86.3882C65.1938 86.6648 66.1603 86.1468 66.4369 85.2312L70.6331 71.3403C70.9097 70.4247 70.3917 69.4582 69.4761 69.1816Z" fill="#00B99A" stroke="#263238" stroke-width="0.4934" stroke-miterlimit="10"/>
<path d="M42.8928 65.3572L69.7117 73.485" stroke="#263238" stroke-width="0.492" stroke-miterlimit="10"/>
<path d="M42.0759 68.0486L68.8998 76.1764" stroke="#263238" stroke-width="0.492" stroke-miterlimit="10"/>
<path d="M60.7374 81.2094C60.6692 81.4359 60.6475 81.6738 60.6737 81.9089C60.6999 82.144 60.7735 82.3713 60.89 82.5772C60.4879 82.7758 60.0255 82.8144 59.596 82.6854C59.3225 82.6028 59.0735 82.4544 58.8707 82.2531C58.6679 82.0518 58.5176 81.8039 58.4329 81.531C58.3483 81.2582 58.3318 80.9687 58.3851 80.688C58.4383 80.4073 58.5596 80.144 58.7383 79.9211C58.9169 79.6981 59.1476 79.5225 59.41 79.4094C59.6723 79.2964 59.9584 79.2494 60.2432 79.2726C60.5279 79.2959 60.8026 79.3886 61.0432 79.5427C61.2838 79.6968 61.4829 79.9076 61.623 80.1565C61.4127 80.2641 61.2259 80.4127 61.0738 80.5935C60.9217 80.7743 60.8074 80.9837 60.7374 81.2094Z" fill="#00B99A" stroke="#263238" stroke-width="0.492" stroke-miterlimit="10"/>
<path d="M64.0783 82.2229C63.9776 82.5533 63.7812 82.8465 63.5139 83.0654C63.2465 83.2842 62.9203 83.4189 62.5765 83.4523C62.2326 83.4857 61.8866 83.4164 61.5821 83.2532C61.2776 83.0899 61.0284 82.84 60.866 82.5351C60.7036 82.2302 60.6352 81.884 60.6695 81.5402C60.7039 81.1964 60.8394 80.8706 61.059 80.6038C61.2786 80.3371 61.5723 80.1415 61.9031 80.0417C62.2338 79.9419 62.5867 79.9425 62.9172 80.0433C63.3601 80.1784 63.7313 80.484 63.949 80.8927C64.1667 81.3014 64.2132 81.7799 64.0783 82.2229Z" fill="#00B99A" stroke="#263238" stroke-width="0.492" stroke-miterlimit="10"/>
<path d="M229.831 102.713L210.323 96.8012C209.41 96.5245 208.446 97.0402 208.17 97.953L204.751 109.235C204.474 110.147 204.99 111.112 205.902 111.388L225.41 117.3C226.323 117.577 227.287 117.061 227.563 116.148L230.982 104.867C231.259 103.954 230.743 102.99 229.831 102.713Z" fill="#00B99A" stroke="#263238" stroke-width="0.492" stroke-miterlimit="10"/>
<path d="M207.644 99.6892L230.458 106.602" stroke="#263238" stroke-width="0.492" stroke-miterlimit="10"/>
<path d="M206.95 101.982L229.759 108.895" stroke="#263238" stroke-width="0.492" stroke-miterlimit="10"/>
<path d="M222.822 113.16C222.763 113.352 222.744 113.554 222.766 113.754C222.788 113.953 222.851 114.146 222.95 114.321C222.735 114.426 222.497 114.477 222.258 114.469C222.018 114.461 221.784 114.396 221.576 114.278C221.368 114.159 221.191 113.992 221.062 113.791C220.933 113.589 220.854 113.359 220.834 113.12C220.813 112.882 220.851 112.642 220.944 112.421C221.037 112.2 221.182 112.005 221.367 111.853C221.552 111.701 221.772 111.597 222.006 111.548C222.241 111.5 222.484 111.509 222.714 111.576C223.079 111.686 223.388 111.932 223.575 112.265C223.395 112.355 223.235 112.481 223.106 112.635C222.977 112.789 222.88 112.967 222.822 113.16Z" fill="#00B99A" stroke="#263238" stroke-width="0.492" stroke-miterlimit="10"/>
<path d="M225.661 114.036C225.574 114.313 225.407 114.559 225.18 114.742C224.954 114.925 224.678 115.037 224.388 115.064C224.098 115.091 223.807 115.031 223.551 114.893C223.294 114.754 223.085 114.543 222.948 114.286C222.812 114.029 222.755 113.737 222.784 113.447C222.813 113.158 222.927 112.883 223.112 112.658C223.296 112.433 223.544 112.267 223.822 112.183C224.101 112.098 224.398 112.097 224.677 112.181C224.864 112.237 225.038 112.33 225.189 112.454C225.34 112.578 225.465 112.73 225.556 112.903C225.648 113.075 225.704 113.264 225.722 113.459C225.74 113.653 225.719 113.849 225.661 114.036Z" fill="#00B99A" stroke="#263238" stroke-width="0.492" stroke-miterlimit="10"/>
<path d="M198.61 48.8136L170.132 61.8518L176.916 76.6679L205.394 63.6296L198.61 48.8136Z" fill="#00B99A" stroke="#263238" stroke-width="0.492" stroke-miterlimit="10"/>
<path d="M202.945 61.5L198.635 52.088C198.233 52.2718 197.773 52.2886 197.358 52.1346C196.943 51.9806 196.606 51.6684 196.421 51.2664L173.401 61.805C173.584 62.2077 173.601 62.6668 173.447 63.0817C173.293 63.4967 172.981 63.8338 172.579 64.019L176.889 73.431C177.088 73.3394 177.304 73.2882 177.523 73.2802C177.743 73.2722 177.962 73.3077 178.167 73.3845C178.373 73.4613 178.562 73.5779 178.722 73.7277C178.883 73.8776 179.012 74.0576 179.103 74.2575L202.119 63.714C202.027 63.5144 201.976 63.2987 201.968 63.0793C201.96 62.8598 201.995 62.641 202.072 62.4353C202.149 62.2296 202.265 62.0411 202.415 61.8806C202.565 61.7201 202.745 61.5907 202.945 61.5Z" fill="#00B99A" stroke="#263238" stroke-width="0.492" stroke-miterlimit="10"/>
<path d="M190.371 66.1393C192.245 64.6992 192.598 62.012 191.158 60.1372C189.717 58.2625 187.03 57.9101 185.155 59.3502C183.281 60.7903 182.928 63.4775 184.369 65.3523C185.809 67.227 188.496 67.5793 190.371 66.1393Z" fill="#00B99A" stroke="#263238" stroke-width="0.492" stroke-miterlimit="10"/>
<path d="M188.928 64.8162L189.248 65.5149L188.943 65.6526L188.628 64.9638C188.089 65.1983 187.485 65.2366 186.921 65.0721V64.644C187.419 64.7949 187.955 64.7688 188.436 64.5702L187.713 62.9761C186.965 63.1188 186.193 63.2271 185.824 62.4202C185.558 61.8396 185.745 61.141 186.64 60.6441L186.321 59.9405L186.626 59.8027L186.96 60.5161C187.403 60.3241 187.89 60.2594 188.367 60.3292V60.7572C187.947 60.6965 187.518 60.7457 187.122 60.8999L187.86 62.5137C188.623 62.3611 189.435 62.2234 189.828 63.0401C190.074 63.6059 189.863 64.3193 188.928 64.8162ZM187.521 62.5481L186.822 61.0081C186.217 61.3476 186.084 61.8003 186.261 62.184C186.468 62.6662 186.96 62.6465 187.516 62.5481H187.521ZM189.376 63.2418C189.159 62.7498 188.638 62.799 188.057 62.9122L188.751 64.4325C189.42 64.0782 189.548 63.6305 189.371 63.2418H189.376Z" fill="#00B99A"/>
<path d="M41.4482 116.305L19.5493 118.276L20.5744 129.665L42.4733 127.695L41.4482 116.305Z" fill="#00B99A" stroke="#263238" stroke-width="0.493989" stroke-miterlimit="10"/>
<path d="M40.7132 125.391L40.0933 118.183C39.7848 118.209 39.4787 118.112 39.2417 117.913C39.0048 117.714 38.8563 117.429 38.8288 117.121L21.1955 118.646C21.2202 118.954 21.1224 119.259 20.9236 119.496C20.7247 119.733 20.4406 119.881 20.1328 119.91L20.7527 127.118C20.9056 127.105 21.0596 127.121 21.2059 127.167C21.3523 127.214 21.4881 127.288 21.6056 127.387C21.723 127.486 21.8199 127.607 21.8905 127.743C21.9611 127.879 22.0042 128.028 22.0172 128.181L39.6505 126.656C39.6258 126.347 39.7235 126.042 39.9224 125.805C40.1213 125.569 40.4054 125.42 40.7132 125.391Z" fill="#00B99A" stroke="#263238" stroke-width="0.492" stroke-miterlimit="10"/>
<path d="M33.4068 122.395C33.4582 122.985 33.3332 123.578 33.0478 124.097C32.7624 124.617 32.3293 125.04 31.8034 125.313C31.2775 125.586 30.6823 125.698 30.0932 125.633C29.504 125.568 28.9474 125.329 28.4937 124.948C28.04 124.567 27.7097 124.059 27.5444 123.49C27.3791 122.921 27.3864 122.315 27.5652 121.75C27.7441 121.185 28.0865 120.686 28.5492 120.315C29.0119 119.945 29.574 119.72 30.1646 119.669C30.5565 119.635 30.9514 119.678 31.3266 119.796C31.7019 119.915 32.05 120.106 32.3512 120.359C32.6524 120.613 32.9007 120.923 33.0818 121.272C33.2629 121.621 33.3734 122.003 33.4068 122.395Z" fill="#00B99A" stroke="#263238" stroke-width="0.492" stroke-miterlimit="10"/>
<path d="M30.701 124.294L30.7453 124.83H30.514L30.4648 124.299C30.056 124.326 29.6504 124.209 29.3185 123.969L29.4267 123.694C29.7203 123.907 30.0776 124.015 30.4402 123.999L30.3369 122.774C29.8105 122.695 29.2742 122.582 29.225 121.967C29.1856 121.519 29.471 121.101 30.1795 120.983L30.1352 120.447H30.3664L30.4107 120.973C30.752 120.951 31.0926 121.024 31.3947 121.185L31.3012 121.465C31.0387 121.329 30.7459 121.261 30.4501 121.268L30.5534 122.503C31.0897 122.582 31.6604 122.685 31.7145 123.31C31.744 123.768 31.4341 124.186 30.701 124.294ZM30.3074 122.469L30.2041 121.303C29.7121 121.386 29.535 121.652 29.5596 121.947C29.5842 122.242 29.9138 122.405 30.3074 122.469ZM31.3652 123.364C31.3308 122.995 30.9814 122.872 30.5731 122.833L30.6715 123.999C31.1832 123.915 31.3898 123.659 31.3652 123.364Z" fill="#00B99A"/>
<path d="M218.611 55.4534C220.975 55.4534 222.891 53.537 222.891 51.173C222.891 48.809 220.975 46.8926 218.611 46.8926C216.247 46.8926 214.33 48.809 214.33 51.173C214.33 53.537 216.247 55.4534 218.611 55.4534Z" fill="#00B99A" stroke="#263238" stroke-width="0.492" stroke-miterlimit="10"/>
<path d="M218.802 53.5493V54.3168H218.448V53.5542C217.861 53.5426 217.297 53.3289 216.849 52.9491L217.041 52.5653C217.432 52.9088 217.928 53.11 218.448 53.136V51.3796C217.71 51.1975 216.972 50.9712 216.972 50.0856C216.972 49.446 217.435 48.8901 218.448 48.8113V48.0291H218.783V48.7917C219.266 48.8019 219.736 48.9467 220.141 49.2098L219.973 49.6035C219.617 49.3733 219.207 49.2394 218.783 49.2148V50.986C219.536 51.168 220.333 51.3796 220.333 52.2799C220.352 52.9245 219.865 53.4902 218.802 53.5493ZM218.468 50.8974V49.2295C217.779 49.2886 217.484 49.6428 217.484 50.0659C217.464 50.5727 217.917 50.7596 218.448 50.8974H218.468ZM219.865 52.3045C219.865 51.7781 219.373 51.5961 218.802 51.4534V53.136C219.536 53.0721 219.865 52.7326 219.865 52.3045Z" fill="#00B99A"/>
<path d="M190.418 108.437C192.719 107.895 194.145 105.59 193.602 103.289C193.06 100.988 190.755 99.5626 188.454 100.105C186.153 100.647 184.728 102.952 185.27 105.253C185.812 107.554 188.117 108.98 190.418 108.437Z" fill="#00B99A" stroke="#263238" stroke-width="0.492" stroke-miterlimit="10"/>
<path d="M188.357 106.39L187.959 107.045L187.674 106.867L188.072 106.218C187.577 105.903 187.207 105.424 187.029 104.865L187.393 104.639C187.547 105.134 187.865 105.562 188.293 105.854L189.218 104.353C188.682 103.817 188.166 103.232 188.628 102.479C188.963 101.933 189.646 101.701 190.562 102.169L190.965 101.51L191.25 101.687L190.852 102.336C191.255 102.599 191.58 102.966 191.792 103.399L191.442 103.65C191.257 103.268 190.977 102.94 190.63 102.695L189.701 104.206C190.252 104.757 190.817 105.352 190.345 106.12C190.006 106.671 189.297 106.892 188.357 106.39ZM189.464 103.93L190.335 102.508C189.72 102.198 189.273 102.336 189.051 102.695C188.785 103.153 189.066 103.551 189.464 103.955V103.93ZM189.917 105.859C190.193 105.411 189.873 105.003 189.455 104.58L188.579 106.006C189.233 106.37 189.691 106.272 189.912 105.883L189.917 105.859Z" fill="#00B99A"/>
<path d="M128.009 21.6479C128.36 22.418 128.476 23.275 128.34 24.1106C128.205 24.9462 127.824 25.7229 127.248 26.3425C126.671 26.962 125.923 27.3966 125.099 27.5912C124.275 27.7859 123.412 27.7319 122.619 27.4361C121.826 27.1403 121.138 26.616 120.643 25.9294C120.148 25.2428 119.868 24.4248 119.837 23.5788C119.807 22.7329 120.028 21.8969 120.473 21.1766C120.918 20.4564 121.566 19.8841 122.336 19.5323C122.847 19.298 123.4 19.1669 123.962 19.1464C124.524 19.1259 125.084 19.2165 125.611 19.4131C126.138 19.6096 126.621 19.9082 127.033 20.2917C127.444 20.6751 127.776 21.136 128.009 21.6479Z" fill="#00B99A" stroke="#263238" stroke-width="0.492" stroke-miterlimit="10"/>
<path d="M125.278 25.5006L125.598 26.1992L125.293 26.3419L124.968 25.6482C124.429 25.8827 123.825 25.921 123.261 25.7564V25.3284C123.757 25.4785 124.29 25.4541 124.771 25.2595L124.043 23.6556C123.295 23.7983 122.523 23.9016 122.154 23.0996C121.888 22.5141 122.075 21.8204 122.975 21.3235L122.656 20.6199L122.956 20.4822L123.276 21.1759C123.718 20.9839 124.205 20.9192 124.683 20.9889V21.417C124.262 21.3574 123.834 21.4065 123.438 21.5597L124.176 23.1734C124.939 23.0209 125.75 22.8881 126.144 23.6999C126.444 24.2903 126.218 25.0037 125.278 25.5006ZM123.871 23.2325L123.177 21.7122C122.572 22.0517 122.439 22.5043 122.616 22.8831C122.828 23.3456 123.315 23.3309 123.871 23.2325ZM125.726 23.9262C125.504 23.4342 124.988 23.4883 124.407 23.5965L125.101 25.1168C125.745 24.7626 125.903 24.3198 125.726 23.9262Z" fill="#00B99A"/>
<path d="M113.593 194.994C114.121 196.151 114.295 197.439 114.091 198.694C113.887 199.949 113.316 201.116 112.45 202.047C111.583 202.978 110.46 203.631 109.222 203.923C107.984 204.216 106.688 204.134 105.496 203.69C104.305 203.246 103.272 202.458 102.528 201.426C101.784 200.395 101.363 199.166 101.317 197.895C101.272 196.624 101.604 195.368 102.272 194.286C102.941 193.204 103.915 192.344 105.072 191.816C105.84 191.465 106.67 191.269 107.514 191.239C108.358 191.209 109.199 191.345 109.991 191.64C110.782 191.935 111.507 192.383 112.125 192.959C112.744 193.534 113.242 194.226 113.593 194.994Z" fill="#00B99A" stroke="#263238" stroke-width="0.492" stroke-miterlimit="10"/>
<path d="M109.485 200.79L109.977 201.843L109.519 202.05L109.027 201.007C108.219 201.361 107.312 201.42 106.464 201.174L106.493 200.534C107.24 200.757 108.041 200.717 108.761 200.421L107.664 198.02C106.548 198.232 105.381 198.389 104.83 197.184C104.427 196.308 104.712 195.26 106.06 194.512L105.568 193.464L106.021 193.253L106.513 194.296C107.179 194.009 107.911 193.912 108.629 194.015V194.655C107.999 194.566 107.357 194.641 106.764 194.871L107.866 197.292C109.012 197.066 110.233 196.864 110.793 198.084C111.217 198.975 110.902 200.047 109.485 200.79ZM107.379 197.381L106.331 195.098C105.431 195.59 105.229 196.283 105.495 196.864C105.809 197.558 106.538 197.533 107.379 197.381ZM110.164 198.429C109.834 197.705 109.052 197.764 108.196 197.937L109.239 200.219C110.208 199.683 110.429 199.014 110.164 198.429Z" fill="#00B99A"/>
<path d="M21.4808 95.0689C20.5254 95.9081 19.3425 96.4452 18.0819 96.6123C16.8212 96.7793 15.5393 96.5689 14.3983 96.0075C13.2572 95.4461 12.3082 94.5589 11.6713 93.4582C11.0344 92.3576 10.7381 91.0927 10.82 89.8237C10.9018 88.5546 11.3581 87.3383 12.1312 86.3286C12.9042 85.3188 13.9593 84.561 15.163 84.1508C16.3667 83.7406 17.665 83.6966 18.8938 84.0242C20.1225 84.3518 21.2266 85.0364 22.0663 85.9915C22.6241 86.6258 23.0514 87.3639 23.3239 88.1635C23.5963 88.9631 23.7086 89.8085 23.6542 90.6515C23.5998 91.4944 23.3799 92.3184 23.007 93.0764C22.6341 93.8343 22.1155 94.5114 21.4808 95.0689Z" fill="#00B99A" stroke="#263238" stroke-width="0.492" stroke-miterlimit="10"/>
<path d="M14.7601 92.8061L13.8942 93.5687L13.5596 93.1899L14.4206 92.4371C13.8502 91.7621 13.5319 90.91 13.5203 90.0263L14.1451 89.8689C14.1454 90.6439 14.4072 91.3963 14.888 92.0041L16.856 90.2625C16.3296 89.2539 15.8425 88.1813 16.856 87.3105C17.5842 86.6758 18.6666 86.6463 19.7687 87.7188L20.6641 86.9611L20.9937 87.3351L20.1327 88.0927C20.5908 88.6499 20.8869 89.3221 20.9888 90.0361L20.3787 90.2379C20.2807 89.6088 20.0252 89.0147 19.6358 88.5109L17.6334 90.2674C18.1795 91.2957 18.7256 92.4076 17.717 93.2981C16.9839 93.9377 15.8671 93.9721 14.7601 92.8061ZM17.4169 89.8049L19.3013 88.1469C18.5534 87.4285 17.8253 87.4335 17.3726 87.8517C16.7822 88.3535 17.0184 89.0521 17.4021 89.8049H17.4169ZM17.2152 92.7569C17.8154 92.2354 17.535 91.5023 17.1217 90.7151L15.2373 92.3731C16.0098 93.1653 16.7281 93.1948 17.2201 92.7717L17.2152 92.7569Z" fill="#00B99A"/>
<path d="M50.9184 149.917C50.987 148.202 49.6527 146.757 47.9381 146.688C46.2235 146.62 44.778 147.954 44.7094 149.669C44.6408 151.383 45.9752 152.829 47.6897 152.897C49.4043 152.966 50.8499 151.632 50.9184 149.917Z" fill="#00B99A" stroke="#263238" stroke-width="0.492393" stroke-miterlimit="10"/>
<path d="M48.7081 150.395L49.0624 150.823L48.8803 150.975L48.5261 150.552C48.1932 150.82 47.7772 150.962 47.3502 150.955L47.2813 150.65C47.6569 150.66 48.0246 150.542 48.3244 150.316L47.5077 149.332C47.0157 149.573 46.4941 149.794 46.0809 149.302C45.7857 148.948 45.7857 148.422 46.317 147.9L45.9579 147.472L46.1448 147.32L46.4991 147.743C46.773 147.525 47.1015 147.387 47.4486 147.344L47.5372 147.639C47.2331 147.682 46.9441 147.798 46.6959 147.979L47.5175 148.963C48.0095 148.712 48.5655 148.471 48.9935 148.963C49.2936 149.327 49.2838 149.868 48.7081 150.395ZM47.301 149.076L46.5237 148.146C46.1694 148.5 46.1645 148.84 46.3564 149.076C46.5483 149.312 46.932 149.248 47.301 149.076ZM48.7327 149.209C48.4867 148.919 48.1325 149.042 47.7487 149.233L48.5261 150.163C48.9049 149.789 48.9295 149.445 48.7327 149.204V149.209Z" fill="#00B99A"/>
<path d="M146.414 211.152C146.807 211.624 147.051 212.201 147.116 212.812C147.18 213.422 147.062 214.038 146.777 214.582C146.491 215.125 146.051 215.572 145.512 215.865C144.972 216.159 144.358 216.285 143.747 216.23C143.135 216.174 142.554 215.938 142.077 215.552C141.599 215.166 141.247 214.647 141.064 214.061C140.882 213.475 140.877 212.848 141.051 212.259C141.225 211.67 141.569 211.146 142.041 210.753C142.674 210.227 143.49 209.974 144.31 210.048C145.13 210.123 145.887 210.52 146.414 211.152Z" fill="#00B99A" stroke="#263238" stroke-width="0.492" stroke-miterlimit="10"/>
<path d="M145.234 214.374L145.593 214.802L145.406 214.955L145.052 214.532C144.721 214.799 144.306 214.942 143.881 214.935L143.812 214.63C144.188 214.642 144.556 214.524 144.855 214.296L144.038 213.312C143.546 213.553 143.02 213.774 142.611 213.282C142.311 212.928 142.311 212.401 142.843 211.88L142.488 211.452L142.675 211.299L143.03 211.722C143.303 211.503 143.632 211.365 143.979 211.324L144.068 211.619C143.762 211.661 143.472 211.778 143.222 211.959L144.048 212.943C144.54 212.692 145.096 212.451 145.524 212.943C145.809 213.307 145.8 213.848 145.234 214.374ZM143.822 213.036L143.044 212.106C142.685 212.46 142.68 212.8 142.877 213.036C143.074 213.272 143.448 213.228 143.822 213.036ZM145.249 213.174C145.003 212.879 144.648 213.002 144.265 213.174L145.042 214.104C145.426 213.769 145.45 213.425 145.249 213.189V213.174Z" fill="#00B99A"/>
<path d="M61.4446 34.2844C61.6012 32.5769 60.344 31.0659 58.6366 30.9093C56.9292 30.7527 55.4181 32.0099 55.2616 33.7173C55.105 35.4247 56.3622 36.9358 58.0696 37.0924C59.777 37.249 61.2881 35.9918 61.4446 34.2844Z" fill="#00B99A" stroke="#263238" stroke-width="0.492" stroke-miterlimit="10"/>
<path d="M59.5666 35.2374L59.9209 35.6654L59.7339 35.8179L59.3797 35.3948C59.0491 35.6631 58.6344 35.806 58.2087 35.7982L58.1398 35.4932C58.5154 35.5031 58.8831 35.3851 59.1829 35.1586L58.3661 34.1746C57.8741 34.4157 57.3477 34.6371 56.9393 34.1451C56.6441 33.7909 56.6392 33.2644 57.1755 32.7429L56.8163 32.3149L57.0033 32.1624L57.3575 32.5855C57.6309 32.367 57.9597 32.229 58.3071 32.187L58.3957 32.4822C58.0916 32.5243 57.8026 32.6409 57.5543 32.8216L58.376 33.8056C58.868 33.5547 59.4239 33.3136 59.852 33.8056C60.1423 34.1697 60.1275 34.7109 59.5666 35.2374ZM58.1497 33.9139L57.3723 32.9643C57.0181 33.3186 57.0082 33.658 57.205 33.8942C57.4018 34.1304 57.7757 34.091 58.1497 33.9139ZM59.5814 34.0467C59.3354 33.7564 58.9762 33.8794 58.5974 34.0467L59.3747 34.9766C59.7536 34.6322 59.7782 34.2878 59.5814 34.0467Z" fill="#00B99A"/>
<path opacity="0.2" d="M128.318 161.283C128.318 161.283 124.525 180.535 101.258 184.899C101.258 184.899 95.1821 189.745 93.1599 192.613C91.1378 195.482 80.3679 200.357 69.3963 215.57C58.4247 230.783 42.0903 182.473 42.0903 182.473L78.1933 135.585L128.318 161.283Z" fill="black" fill-opacity="0.7"/>
<path d="M148.997 70.8873C148.997 70.8873 161.543 64.7521 164.303 65.8099C167.063 66.8677 169.715 73.2145 159.162 79.2907C148.608 85.3669 151.757 96.6878 151.757 96.6878H159.285C159.285 96.6878 163.801 98.5279 165.558 100.894C167.314 103.261 168.569 111.33 169.573 114.065C170.576 116.801 170.065 119.541 167.314 120.432C167.314 120.432 165.558 128.087 166.06 131.482C166.561 134.877 166.311 137.061 163.049 137.475C162.228 137.56 161.398 137.466 160.617 137.199C159.837 136.932 159.123 136.499 158.526 135.929C157.93 135.359 157.464 134.666 157.162 133.898C156.859 133.13 156.728 132.306 156.776 131.482L154.266 140.574L156.023 144.067C158.504 145.028 160.797 146.417 162.798 148.171C166.311 151.182 169.823 152.003 168.82 155.359C167.816 158.714 165.809 162.33 155.27 158.139C144.731 153.947 135.949 137.475 135.949 137.475L129.617 80.0385L148.997 70.8873Z" fill="#C99589"/>
<path opacity="0.4" d="M162.202 103.881C156.515 111.635 162.808 120.565 162.808 120.565C162.808 120.565 158.871 122.759 158.758 128.358C158.714 130.685 159.3 133.937 159.998 136.948C158.975 136.465 158.122 135.685 157.548 134.711C156.974 133.736 156.707 132.611 156.781 131.482L154.266 140.574L156.023 144.063C157.871 144.77 159.612 145.728 161.199 146.911C159.639 150.493 159.162 154.921 159.3 159.487C157.929 159.123 156.583 158.673 155.27 158.139C144.731 153.942 135.949 137.475 135.949 137.475L129.617 80.0337L148.997 70.8874C148.997 70.8874 155.851 67.5369 160.544 66.2134C160.18 70.602 161.036 75.1432 161.656 77.6721C160.856 78.2579 160.023 78.7983 159.162 79.2907C148.623 85.3669 151.757 96.6879 151.757 96.6879H159.29C159.29 96.6879 163.58 98.4394 165.42 100.717C164.162 101.564 163.071 102.637 162.202 103.881Z" fill="#4D3934"/>
<path d="M129.396 152.028C129.396 152.028 115.748 178.788 91.1478 184.859C91.1478 184.859 90.208 190.153 86.0457 192.426C83.8219 193.637 74.8478 207.083 66.9709 219.358L23.3403 192.594C26.0267 189.937 29.0869 186.877 32.1963 183.684C41.2983 174.404 51.0104 164.004 53.9821 158.857C56.6389 154.282 59.9993 146.341 62.9267 138.877C66.6757 129.332 69.7261 120.565 69.7261 120.565L84.2696 104.398L107.133 78.9761L108.117 82.2282L129.396 152.028Z" fill="#C99589"/>
<path opacity="0.4" d="M107.153 78.9761L129.396 152.028C129.396 152.028 115.748 178.788 91.1479 184.859C91.1479 184.859 90.2081 190.153 86.0458 192.426C84.0483 193.514 76.6142 204.461 69.4211 215.55C72.0878 206.399 79.8073 191.811 79.8073 191.811C74.8528 185.942 76.2993 179.757 78.2821 181.519C80.2648 183.28 85.2488 188.23 85.5637 188.54C83.3743 185.961 82.8675 181.922 82.8675 181.922C82.8675 181.922 89.0077 186.006 89.5046 179.462C90.0015 172.919 85.8244 156.929 85.8244 156.929L74.8577 114.882L107.153 78.9761Z" fill="#9D7D76"/>
<path d="M129.617 80.0385L148.997 70.8873C148.997 70.8873 161.543 64.7521 164.303 65.8099C167.063 66.8677 169.715 73.2145 159.162 79.2907C148.608 85.3669 151.757 96.6878 151.757 96.6878H159.285C159.285 96.6878 163.801 98.5279 165.558 100.894C167.314 103.261 168.569 111.33 169.573 114.065C170.576 116.801 170.065 119.541 167.314 120.432C167.314 120.432 165.558 128.087 166.06 131.482C166.561 134.877 166.311 137.061 163.049 137.475C162.228 137.56 161.398 137.466 160.617 137.199C159.837 136.932 159.123 136.499 158.526 135.929C157.93 135.359 157.464 134.666 157.162 133.898C156.859 133.13 156.728 132.306 156.776 131.482L154.266 140.574L156.023 144.067C158.504 145.028 160.797 146.417 162.798 148.171C166.311 151.182 169.823 152.003 168.82 155.359C167.816 158.714 165.809 162.33 155.27 158.139C144.731 153.947 135.949 137.475 135.949 137.475" stroke="#263238" stroke-width="0.492" stroke-linecap="round" stroke-linejoin="round"/>
<path d="M167.314 120.432C163.551 121.45 159.162 120.698 157.528 114.036C155.895 107.374 159.162 100.26 161.292 99.6055" stroke="#263238" stroke-width="0.492" stroke-linecap="round" stroke-linejoin="round"/>
<path d="M156.776 131.482C156.776 131.482 156.525 122.916 159.664 120.801" stroke="#263238" stroke-width="0.492" stroke-linecap="round" stroke-linejoin="round"/>
<path opacity="0.4" d="M65.2489 174.025C65.2489 174.025 56.0535 172.879 54.0018 168.766C52.3044 165.361 43.104 178.114 32.2161 183.683C41.3181 174.404 51.0301 164.003 54.0018 158.857C56.6586 154.281 60.019 146.341 62.9464 138.877C62.7988 145.066 59.5024 154.542 60.4421 159.477C59.4352 159.743 58.5737 160.396 58.0442 161.292C57.5147 162.189 57.3598 163.259 57.6131 164.269C58.3167 168.19 65.2489 174.025 65.2489 174.025Z" fill="#806964"/>
<path d="M129.396 152.028C129.396 152.028 115.748 178.788 91.1429 184.859C91.1429 184.859 90.2081 190.153 86.0458 192.426C83.822 193.637 74.8528 207.083 66.9661 219.358" stroke="#263238" stroke-width="0.492" stroke-linecap="round" stroke-linejoin="round"/>
<path d="M23.3403 192.594C33.8495 182.208 50.0018 165.74 54.0018 158.857C60.0534 148.442 69.7458 120.56 69.7458 120.56L107.138 78.9761" stroke="#263238" stroke-width="0.492" stroke-linecap="round" stroke-linejoin="round"/>
<path d="M85.7998 110.735C85.7998 110.735 91.5464 115.881 93.1798 120.575" stroke="#263238" stroke-width="0.492" stroke-linecap="round" stroke-linejoin="round"/>
<path d="M153.632 35.7781H91.8021C89.9734 35.7781 88.491 37.2605 88.491 39.0892V170.714C88.491 172.543 89.9734 174.025 91.8021 174.025H153.632C155.46 174.025 156.943 172.543 156.943 170.714V39.0892C156.943 37.2605 155.46 35.7781 153.632 35.7781Z" fill="#263238"/>
<path d="M136.284 39.542L134.975 41.9381C134.837 42.1981 134.631 42.4158 134.379 42.5683C134.126 42.7207 133.838 42.8022 133.543 42.804H111.895C111.601 42.8024 111.313 42.7222 111.06 42.5717C110.808 42.4212 110.6 42.2058 110.459 41.9479L109.155 39.5519C109.015 39.293 108.807 39.0767 108.554 38.926C108.302 38.7753 108.013 38.6958 107.718 38.6958H92.5893C92.3737 38.6964 92.1604 38.7396 91.9615 38.8229C91.7627 38.9061 91.5822 39.0278 91.4305 39.1809C91.2787 39.334 91.1587 39.5156 91.0773 39.7151C90.9958 39.9147 90.9545 40.1284 90.9558 40.344V169.74C90.9558 170.174 91.1278 170.59 91.434 170.897C91.7402 171.204 92.1556 171.377 92.5893 171.378H152.84C153.056 171.38 153.27 171.338 153.47 171.257C153.67 171.175 153.851 171.054 154.004 170.902C154.158 170.75 154.279 170.569 154.362 170.369C154.445 170.17 154.488 169.956 154.488 169.74V40.344C154.488 39.9095 154.315 39.4928 154.008 39.1855C153.701 38.8783 153.284 38.7056 152.849 38.7056H137.725C137.432 38.7028 137.144 38.779 136.89 38.9262C136.636 39.0733 136.427 39.2861 136.284 39.542Z" fill="#06A38B" stroke="#263238" stroke-width="0.492" stroke-linecap="round" stroke-linejoin="round"/>
<path d="M118.021 40.7033C118.507 40.7033 118.901 40.309 118.901 39.8226C118.901 39.3362 118.507 38.9419 118.021 38.9419C117.534 38.9419 117.14 39.3362 117.14 39.8226C117.14 40.309 117.534 40.7033 118.021 40.7033Z" stroke="white" stroke-width="0.492" stroke-miterlimit="10"/>
<path d="M128.289 39.8225C128.288 39.9303 128.255 40.0354 128.194 40.1246C128.134 40.2137 128.048 40.283 127.948 40.3236C127.848 40.3641 127.739 40.3742 127.633 40.3526C127.527 40.331 127.431 40.2786 127.355 40.202C127.279 40.1255 127.227 40.0282 127.207 39.9224C127.186 39.8166 127.197 39.707 127.239 39.6075C127.28 39.508 127.35 39.423 127.44 39.3632C127.529 39.3034 127.635 39.2715 127.743 39.2715C127.815 39.2715 127.886 39.2858 127.953 39.3135C128.019 39.3413 128.08 39.3819 128.131 39.4332C128.181 39.4844 128.221 39.5452 128.249 39.612C128.276 39.6788 128.289 39.7504 128.289 39.8225Z" stroke="white" stroke-width="0.492" stroke-miterlimit="10"/>
<path d="M125.839 39.478H120.486C120.441 39.478 120.396 39.487 120.355 39.5043C120.313 39.5217 120.276 39.5471 120.244 39.5792C120.212 39.6112 120.187 39.6492 120.171 39.691C120.154 39.7328 120.146 39.7774 120.146 39.8224C120.146 39.9125 120.182 39.9988 120.246 40.0625C120.309 40.1261 120.396 40.1619 120.486 40.1619H125.839C125.929 40.1619 126.015 40.1261 126.079 40.0625C126.142 39.9988 126.178 39.9125 126.178 39.8224C126.179 39.7774 126.171 39.7328 126.154 39.691C126.137 39.6492 126.112 39.6112 126.081 39.5792C126.049 39.5471 126.011 39.5217 125.97 39.5043C125.928 39.487 125.884 39.478 125.839 39.478Z" fill="white"/>
<path d="M102.159 41.9773H96.3875V44.4275H102.159V41.9773Z" stroke="#263238" stroke-width="0.492" stroke-linecap="round" stroke-linejoin="round"/>
<path d="M103.049 42.3906H102.154V44.0191H103.049V42.3906Z" stroke="#263238" stroke-width="0.492" stroke-linecap="round" stroke-linejoin="round"/>
<path d="M143.054 43.542H142.03V44.4325H143.054V43.542Z" stroke="#263238" stroke-width="0.492" stroke-linecap="round" stroke-linejoin="round"/>
<path d="M145.051 42.6465H144.028V44.4324H145.051V42.6465Z" stroke="#263238" stroke-width="0.492" stroke-linecap="round" stroke-linejoin="round"/>
<path d="M147.049 41.7512H146.025V44.4277H147.049V41.7512Z" stroke="#263238" stroke-width="0.492" stroke-linecap="round" stroke-linejoin="round"/>
<path d="M149.041 40.8557H148.018V44.4276H149.041V40.8557Z" stroke="#263238" stroke-width="0.492" stroke-linecap="round" stroke-linejoin="round"/>
<path opacity="0.5" d="M154.065 67.2859H91.3643V127.088H154.065V67.2859Z" fill="white"/>
<path d="M108.683 57.7362V58.7743C108.683 60.0584 108.068 60.7423 106.808 60.7423H106.213V63.7484H104.953V55.7534H106.808C108.068 55.7534 108.683 56.4521 108.683 57.7362ZM106.223 56.8998V59.6107H106.818C107.217 59.6107 107.433 59.4287 107.433 58.8579V57.6525C107.433 57.0818 107.217 56.8998 106.818 56.8998H106.223Z" fill="#263238"/>
<path d="M113.194 63.7632H111.925L111.703 62.3118H110.163L109.942 63.7632H108.786L110.07 55.7534H111.91L113.194 63.7632ZM110.321 61.2245H111.536L110.941 57.1753H110.916L110.321 61.2245Z" fill="#263238"/>
<path d="M114.395 61.1113L112.806 55.7534H114.144L115.093 59.4041H115.118L116.068 55.7534H117.268L115.679 61.1113V63.7632H114.419L114.395 61.1113Z" fill="#263238"/>
<path d="M120.402 61.4409H120.427L121.273 55.7534H123.025V63.7632H121.834V58.0215L120.988 63.7632H119.797L118.882 58.1003V63.7632H117.736V55.7534H119.487L120.402 61.4409Z" fill="#263238"/>
<path d="M125.199 59.1285H126.936V60.2749H125.209V62.6217H127.383V63.7632H123.939V55.7534H127.383V56.8998H125.209L125.199 59.1285Z" fill="#263238"/>
<path d="M129.298 57.9625H129.273V63.7632H128.141V55.7534H129.721L130.99 60.5504V55.7534H132.112V63.7632H130.823L129.298 57.9625Z" fill="#263238"/>
<path d="M132.672 55.7534H136.564V56.8998H135.246V63.7632H133.986V56.8998H132.672V55.7534Z" fill="#263238"/>
<path d="M138.808 55.6648C140.028 55.6648 140.658 56.3979 140.658 57.6771V57.928H139.467V57.5984C139.467 57.0227 139.241 56.8062 138.837 56.8062C138.434 56.8062 138.212 57.0227 138.212 57.5984C138.212 58.174 138.463 58.6168 139.285 59.3351C140.338 60.265 140.672 60.9243 140.672 61.8394C140.672 63.1235 140.028 63.8566 138.793 63.8566C137.558 63.8566 136.918 63.1235 136.918 61.8394V61.3474H138.109V61.923C138.109 62.4938 138.36 62.7004 138.759 62.7004C139.157 62.7004 139.413 62.4938 139.413 61.923C139.413 61.3523 139.162 60.9046 138.335 60.1814C137.283 59.2564 136.953 58.5922 136.953 57.6771C136.953 56.3979 137.583 55.6648 138.808 55.6648Z" fill="#263238"/>
<path d="M149.041 74.5332H96.3875V82.4003H149.041V74.5332Z" fill="white" stroke="#263238" stroke-width="0.492" stroke-linecap="round" stroke-linejoin="round"/>
<path d="M149.041 89.2881H96.3875V97.1552H149.041V89.2881Z" fill="white" stroke="#263238" stroke-width="0.492" stroke-linecap="round" stroke-linejoin="round"/>
<path d="M149.041 102.705H96.3875V110.572H149.041V102.705Z" fill="white" stroke="#263238" stroke-width="0.492" stroke-linecap="round" stroke-linejoin="round"/>
<path d="M121.317 113.44H96.3875V122.651H121.317V113.44Z" fill="white" stroke="#263238" stroke-width="0.492" stroke-linecap="round" stroke-linejoin="round"/>
<path d="M149.046 113.44H124.117V122.651H149.046V113.44Z" fill="white" stroke="#263238" stroke-width="0.492" stroke-linecap="round" stroke-linejoin="round"/>
<path d="M99.6694 73.1605V73.3721H98.0212V71.0449H99.6202V71.2565H98.2722V72.088H99.4726V72.2946H98.2722V73.1605H99.6694Z" fill="#263238"/>
<path d="M103.084 72.3584V73.3719H102.828V72.3879C102.828 72.0189 102.641 71.827 102.336 71.827C102.254 71.8235 102.172 71.838 102.096 71.8693C102.02 71.9007 101.952 71.9482 101.896 72.0087C101.84 72.0691 101.798 72.1409 101.773 72.2191C101.748 72.2973 101.74 72.3801 101.75 72.4617V73.3768H101.514V72.3928C101.514 72.0238 101.327 71.8319 101.022 71.8319C100.94 71.8284 100.858 71.8429 100.782 71.8743C100.706 71.9056 100.638 71.9532 100.582 72.0136C100.527 72.074 100.485 72.1458 100.459 72.224C100.434 72.3023 100.427 72.385 100.437 72.4666V73.3817H100.2V71.6351H100.427V71.9549C100.494 71.8462 100.589 71.7577 100.703 71.6988C100.816 71.6399 100.944 71.6128 101.071 71.6204C101.2 71.6095 101.329 71.6392 101.44 71.7054C101.552 71.7716 101.639 71.8709 101.691 71.9894C101.763 71.8711 101.865 71.7743 101.987 71.7093C102.109 71.6444 102.247 71.6136 102.385 71.6204C102.482 71.6138 102.579 71.6288 102.669 71.6642C102.76 71.6995 102.841 71.7544 102.908 71.8249C102.975 71.8954 103.025 71.9798 103.055 72.072C103.086 72.1642 103.095 72.262 103.084 72.3584Z" fill="#263238"/>
<path d="M105.047 72.2897V73.3722H104.82V73.1016C104.754 73.1989 104.663 73.2771 104.557 73.3281C104.451 73.379 104.333 73.401 104.215 73.3918C103.822 73.3918 103.581 73.1852 103.581 72.8998C103.581 72.6145 103.753 72.4078 104.255 72.4078H104.796V72.2996C104.796 71.9995 104.624 71.8371 104.304 71.8371C104.092 71.8338 103.886 71.9072 103.723 72.0437L103.615 71.8666C103.819 71.7089 104.071 71.6256 104.328 71.6305C104.421 71.6153 104.516 71.6214 104.606 71.6482C104.696 71.6751 104.779 71.722 104.848 71.7855C104.917 71.849 104.971 71.9274 105.005 72.0147C105.04 72.1021 105.054 72.1961 105.047 72.2897ZM104.811 72.8506V72.5603H104.26C103.92 72.5603 103.812 72.6932 103.812 72.8752C103.812 73.0573 103.974 73.2049 104.255 73.2049C104.37 73.2082 104.484 73.1761 104.581 73.1127C104.678 73.0494 104.753 72.9579 104.796 72.8506H104.811Z" fill="#263238"/>
<path d="M105.632 71.0743C105.634 71.0295 105.652 70.9869 105.684 70.9557C105.717 70.9244 105.76 70.907 105.805 70.907C105.849 70.907 105.891 70.9246 105.923 70.956C105.954 70.9874 105.972 71.0299 105.972 71.0743C105.972 71.1186 105.954 71.1612 105.923 71.1925C105.891 71.2239 105.849 71.2415 105.805 71.2415C105.76 71.2416 105.717 71.2241 105.684 71.1929C105.652 71.1616 105.634 71.1191 105.632 71.0743ZM105.686 71.6253H105.923V73.3719H105.686V71.6253Z" fill="#263238"/>
<path d="M106.582 70.907H106.818V73.367H106.582V70.907Z" fill="#263238"/>
<path d="M101.298 79.2123V79.4238H99.6497V77.0967H101.249V77.3082H99.876V78.1348H101.081V78.3464H99.876V79.2123H101.298Z" fill="#263238"/>
<path d="M104.712 78.4001V79.4136H104.476V78.4296C104.476 78.0606 104.289 77.8687 103.984 77.8687C103.902 77.8645 103.821 77.8783 103.745 77.909C103.669 77.9398 103.6 77.9869 103.544 78.0469C103.489 78.107 103.447 78.1785 103.422 78.2565C103.396 78.3345 103.389 78.4171 103.399 78.4985V79.4185H103.163V78.4345C103.163 78.0655 102.976 77.8736 102.671 77.8736C102.589 77.8694 102.507 77.8832 102.431 77.914C102.355 77.9448 102.287 77.9918 102.231 78.0519C102.175 78.1119 102.133 78.1835 102.108 78.2615C102.083 78.3395 102.075 78.4221 102.085 78.5034V79.4234H101.844V77.6719H102.07V77.9917C102.139 77.8843 102.234 77.797 102.348 77.7391C102.461 77.6811 102.588 77.6545 102.715 77.6621C102.844 77.6527 102.972 77.683 103.083 77.749C103.194 77.815 103.282 77.9135 103.335 78.0311C103.406 77.9124 103.508 77.8154 103.63 77.7503C103.753 77.6853 103.89 77.6548 104.028 77.6621C104.124 77.6578 104.22 77.6744 104.308 77.7108C104.397 77.7471 104.476 77.8023 104.541 77.8726C104.607 77.9428 104.656 78.0264 104.685 78.1175C104.715 78.2086 104.724 78.305 104.712 78.4001Z" fill="#263238"/>
<path d="M106.671 78.3315V79.4139H106.444V79.1433C106.379 79.2401 106.289 79.3177 106.183 79.3679C106.077 79.418 105.96 79.439 105.844 79.4287C105.45 79.4287 105.204 79.222 105.204 78.9367C105.204 78.6513 105.381 78.4447 105.883 78.4447H106.439V78.3413C106.439 78.0412 106.267 77.8789 105.947 77.8789C105.734 77.8761 105.526 77.9494 105.362 78.0855L105.258 77.9084C105.461 77.7478 105.714 77.6641 105.972 77.6722C106.063 77.6603 106.156 77.6688 106.243 77.6972C106.331 77.7255 106.411 77.7729 106.478 77.8361C106.545 77.8992 106.597 77.9764 106.63 78.0621C106.663 78.1477 106.677 78.2398 106.671 78.3315ZM106.439 78.8875V78.6021H105.888C105.549 78.6021 105.441 78.7349 105.441 78.917C105.441 79.099 105.603 79.2466 105.883 79.2466C106.002 79.2535 106.12 79.2224 106.22 79.1578C106.32 79.0932 106.397 78.9986 106.439 78.8875Z" fill="#263238"/>
<path d="M107.256 77.1112C107.257 77.0664 107.276 77.0238 107.308 76.9926C107.34 76.9614 107.383 76.9439 107.428 76.9439C107.45 76.9433 107.473 76.9471 107.494 76.9552C107.514 76.9633 107.533 76.9755 107.55 76.9911C107.566 77.0067 107.578 77.0254 107.587 77.046C107.596 77.0666 107.6 77.0888 107.6 77.1112C107.6 77.1569 107.582 77.2007 107.55 77.233C107.518 77.2653 107.474 77.2834 107.428 77.2834C107.382 77.2834 107.339 77.2653 107.306 77.233C107.274 77.2007 107.256 77.1569 107.256 77.1112ZM107.31 77.6622H107.546V79.4138H107.31V77.6622Z" fill="#263238"/>
<path d="M108.21 76.9438H108.441V79.4038H108.21V76.9438Z" fill="#263238"/>
<path d="M110.7 78.4001V79.4136H110.464V78.4296C110.474 78.3569 110.468 78.2828 110.446 78.2127C110.424 78.1426 110.387 78.0783 110.337 78.0245C110.287 77.9707 110.226 77.9288 110.157 77.9018C110.089 77.8749 110.015 77.8636 109.942 77.8687C109.858 77.8617 109.774 77.8733 109.695 77.9027C109.616 77.9321 109.545 77.9786 109.486 78.0387C109.428 78.0989 109.383 78.1713 109.355 78.2508C109.328 78.3303 109.318 78.4149 109.327 78.4985V79.4185H109.091V77.667H109.317V77.9917C109.389 77.8822 109.488 77.7935 109.604 77.7347C109.721 77.6759 109.851 77.6491 109.982 77.6572C110.08 77.6493 110.179 77.6633 110.272 77.6982C110.364 77.7331 110.447 77.788 110.516 77.859C110.585 77.9301 110.637 78.0154 110.669 78.109C110.7 78.2025 110.711 78.3019 110.7 78.4001Z" fill="#263238"/>
<path d="M112.668 78.3314V79.4138H112.441V79.1432C112.376 79.2401 112.286 79.3176 112.18 79.3678C112.075 79.418 111.958 79.439 111.841 79.4286C111.443 79.4286 111.202 79.222 111.202 78.9366C111.202 78.6512 111.374 78.4446 111.876 78.4446H112.432V78.3413C112.432 78.0412 112.264 77.8788 111.94 77.8788C111.728 77.8755 111.521 77.9489 111.359 78.0854L111.251 77.9083C111.454 77.7485 111.706 77.6649 111.964 77.6722C112.056 77.6594 112.149 77.6674 112.237 77.6953C112.325 77.7233 112.406 77.7706 112.473 77.8338C112.541 77.897 112.593 77.9745 112.627 78.0606C112.661 78.1467 112.675 78.2393 112.668 78.3314ZM112.432 78.8874V78.602H111.886C111.546 78.602 111.433 78.7349 111.433 78.9169C111.433 79.099 111.595 79.2466 111.876 79.2466C111.995 79.2545 112.114 79.2239 112.215 79.1592C112.316 79.0946 112.394 78.9993 112.437 78.8874H112.432Z" fill="#263238"/>
<path d="M116.2 78.4003V79.4139H115.964V78.4299C115.964 78.0609 115.777 77.869 115.472 77.869C115.39 77.8648 115.309 77.8785 115.233 77.9093C115.157 77.9401 115.088 77.9872 115.033 78.0472C114.977 78.1073 114.935 78.1788 114.91 78.2568C114.884 78.3348 114.877 78.4174 114.887 78.4987V79.4188H114.636V78.4348C114.636 78.0658 114.449 77.8739 114.144 77.8739C114.062 77.8697 113.98 77.8834 113.904 77.9142C113.828 77.945 113.76 77.9921 113.704 78.0521C113.648 78.1122 113.606 78.1837 113.581 78.2617C113.556 78.3397 113.548 78.4223 113.558 78.5037V79.4237H113.322V77.6722H113.549V77.992C113.617 77.8845 113.713 77.7973 113.826 77.7393C113.939 77.6814 114.066 77.6548 114.193 77.6623C114.322 77.6515 114.451 77.6812 114.562 77.7474C114.673 77.8136 114.761 77.9128 114.813 78.0313C114.885 77.913 114.987 77.8163 115.109 77.7513C115.231 77.6864 115.369 77.6556 115.507 77.6623C115.603 77.6566 115.7 77.6721 115.79 77.7078C115.879 77.7435 115.96 77.7985 116.026 77.8689C116.093 77.9393 116.143 78.0234 116.173 78.1153C116.203 78.2071 116.212 78.3044 116.2 78.4003Z" fill="#263238"/>
<path d="M118.37 78.6117H116.894C116.907 78.7833 116.987 78.9428 117.117 79.0553C117.247 79.1678 117.416 79.2242 117.588 79.212C117.689 79.2147 117.789 79.1955 117.881 79.1555C117.974 79.1156 118.057 79.056 118.124 78.9807L118.257 79.1333C118.131 79.2651 117.97 79.3569 117.792 79.3972C117.615 79.4376 117.429 79.4246 117.259 79.36C117.089 79.2954 116.941 79.182 116.835 79.034C116.729 78.886 116.669 78.71 116.663 78.5281C116.657 78.4127 116.674 78.2973 116.715 78.189C116.755 78.0808 116.818 77.982 116.898 77.8989C116.978 77.8158 117.075 77.7502 117.182 77.7061C117.289 77.662 117.403 77.6403 117.519 77.6425C117.634 77.6402 117.748 77.6619 117.855 77.7061C117.961 77.7503 118.057 77.8161 118.137 77.8994C118.216 77.9826 118.278 78.0815 118.317 78.1897C118.356 78.298 118.373 78.4132 118.365 78.5281C118.365 78.5281 118.37 78.5871 118.37 78.6117ZM116.894 78.4346H118.134C118.134 78.2702 118.069 78.1125 117.952 77.9963C117.836 77.88 117.678 77.8147 117.514 77.8147C117.35 77.8147 117.192 77.88 117.076 77.9963C116.959 78.1125 116.894 78.2702 116.894 78.4346Z" fill="#263238"/>
<path d="M121.795 78.533C121.795 79.0988 121.583 79.4285 121.239 79.4285C121.19 79.4312 121.141 79.4239 121.096 79.407C121.05 79.3901 121.009 79.364 120.973 79.3303C120.938 79.2966 120.911 79.256 120.892 79.2111C120.873 79.1662 120.864 79.118 120.865 79.0693C120.796 79.1831 120.698 79.2764 120.582 79.3396C120.465 79.4027 120.333 79.4335 120.2 79.4285C119.973 79.4285 119.756 79.3383 119.595 79.1777C119.435 79.0172 119.344 78.7995 119.344 78.5724C119.344 78.3454 119.435 78.1276 119.595 77.9671C119.756 77.8065 119.973 77.7163 120.2 77.7163C120.331 77.7107 120.462 77.7401 120.577 77.8015C120.693 77.8629 120.791 77.9541 120.86 78.0656V77.736H121.076V78.9955C121.076 79.1825 121.17 79.2514 121.283 79.2514C121.485 79.2514 121.617 78.9955 121.617 78.5478C121.623 78.3701 121.591 78.1932 121.523 78.0287C121.456 77.8641 121.355 77.7156 121.226 77.5927C121.098 77.4697 120.945 77.3752 120.777 77.3151C120.61 77.2551 120.432 77.2308 120.255 77.244C120.079 77.244 119.905 77.2786 119.742 77.3459C119.58 77.4131 119.433 77.5117 119.308 77.636C119.184 77.7602 119.085 77.9078 119.018 78.0701C118.951 78.2325 118.916 78.4065 118.916 78.5823C118.916 78.758 118.951 78.932 119.018 79.0944C119.085 79.2567 119.184 79.4043 119.308 79.5285C119.433 79.6528 119.58 79.7514 119.742 79.8186C119.905 79.8859 120.079 79.9205 120.255 79.9205C120.476 79.9199 120.695 79.8695 120.894 79.7729L120.948 79.9353C120.731 80.0373 120.494 80.0894 120.255 80.0878C119.855 80.0878 119.472 79.9292 119.19 79.6468C118.908 79.3645 118.749 78.9815 118.749 78.5823C118.749 78.183 118.908 77.8 119.19 77.5177C119.472 77.2354 119.855 77.0767 120.255 77.0767C120.453 77.0624 120.653 77.0895 120.841 77.1565C121.029 77.2235 121.2 77.3289 121.345 77.4658C121.49 77.6028 121.605 77.7684 121.682 77.9522C121.759 78.1359 121.798 78.3337 121.795 78.533ZM120.86 78.5675C120.867 78.4798 120.857 78.3914 120.829 78.308C120.8 78.2246 120.755 78.148 120.696 78.0831C120.636 78.0181 120.564 77.9663 120.483 77.9308C120.403 77.8953 120.316 77.877 120.227 77.877C120.139 77.877 120.052 77.8953 119.972 77.9308C119.891 77.9663 119.819 78.0181 119.759 78.0831C119.7 78.148 119.655 78.2246 119.626 78.308C119.598 78.3914 119.588 78.4798 119.595 78.5675C119.588 78.6552 119.598 78.7436 119.626 78.827C119.655 78.9104 119.7 78.987 119.759 79.0519C119.819 79.1169 119.891 79.1687 119.972 79.2042C120.052 79.2397 120.139 79.258 120.227 79.258C120.316 79.258 120.403 79.2397 120.483 79.2042C120.564 79.1687 120.636 79.1169 120.696 79.0519C120.755 78.987 120.8 78.9104 120.829 78.827C120.857 78.7436 120.867 78.6552 120.86 78.5675Z" fill="#263238"/>
<path d="M123.812 78.6117H122.336C122.341 78.697 122.363 78.7805 122.4 78.8574C122.437 78.9343 122.489 79.003 122.553 79.0597C122.617 79.1164 122.692 79.1599 122.773 79.1877C122.854 79.2155 122.939 79.2271 123.025 79.2217C123.125 79.2245 123.226 79.2052 123.318 79.1653C123.411 79.1254 123.494 79.0657 123.561 78.9905L123.694 79.143C123.568 79.2748 123.406 79.3667 123.229 79.407C123.051 79.4473 122.866 79.4344 122.696 79.3698C122.525 79.3051 122.378 79.1918 122.272 79.0438C122.166 78.8958 122.106 78.7198 122.1 78.5379C122.093 78.4225 122.111 78.307 122.152 78.1988C122.192 78.0905 122.254 77.9918 122.335 77.9087C122.415 77.8256 122.512 77.76 122.619 77.7158C122.725 77.6717 122.84 77.6501 122.956 77.6523C123.071 77.65 123.185 77.6716 123.291 77.7158C123.398 77.7601 123.494 77.8259 123.573 77.9091C123.653 77.9924 123.714 78.0913 123.754 78.1995C123.793 78.3077 123.809 78.423 123.802 78.5379C123.802 78.5379 123.812 78.5871 123.812 78.6117ZM122.336 78.4345H123.576C123.576 78.2701 123.51 78.1125 123.394 77.9962C123.278 77.8799 123.12 77.8146 122.956 77.8146C122.791 77.8146 122.634 77.8799 122.517 77.9962C122.401 78.1125 122.336 78.2701 122.336 78.4345Z" fill="#263238"/>
<path d="M127.187 78.4002V79.4137H126.936V78.4297C126.936 78.0607 126.749 77.8688 126.444 77.8688C126.362 77.8646 126.28 77.8784 126.204 77.9092C126.128 77.94 126.06 77.987 126.004 78.0471C125.948 78.1071 125.906 78.1786 125.881 78.2567C125.856 78.3347 125.848 78.4172 125.858 78.4986V79.4186H125.622V78.4346C125.622 78.0656 125.435 77.8737 125.13 77.8737C125.048 77.8695 124.967 77.8833 124.891 77.9141C124.815 77.9449 124.746 77.9919 124.691 78.052C124.635 78.112 124.593 78.1836 124.568 78.2616C124.542 78.3396 124.535 78.4222 124.545 78.5035V79.4235H124.309V77.672H124.535V77.9918C124.602 77.8848 124.697 77.7977 124.81 77.7398C124.922 77.6818 125.048 77.655 125.175 77.6622C125.304 77.6525 125.433 77.6826 125.545 77.7486C125.657 77.8146 125.745 77.9132 125.799 78.0312C125.869 77.9125 125.971 77.8154 126.092 77.7503C126.214 77.6852 126.351 77.6548 126.488 77.6622C126.585 77.6557 126.682 77.6706 126.773 77.706C126.863 77.7413 126.944 77.7962 127.011 77.8667C127.078 77.9372 127.128 78.0216 127.159 78.1138C127.189 78.206 127.199 78.3038 127.187 78.4002Z" fill="#263238"/>
<path d="M129.145 78.3312V79.4136H128.904V79.143C128.838 79.2394 128.748 79.3167 128.642 79.3668C128.537 79.417 128.42 79.4382 128.304 79.4283C127.905 79.4283 127.664 79.2217 127.664 78.9363C127.664 78.651 127.836 78.4443 128.338 78.4443H128.904V78.341C128.904 78.0409 128.737 77.8785 128.412 77.8785C128.2 77.8752 127.994 77.9486 127.831 78.0852L127.723 77.9081C127.926 77.7482 128.178 77.6646 128.436 77.6719C128.528 77.6584 128.622 77.6657 128.711 77.6933C128.8 77.7209 128.881 77.7681 128.949 77.8314C129.017 77.8947 129.07 77.9725 129.104 78.059C129.138 78.1455 129.152 78.2385 129.145 78.3312ZM128.909 78.8871V78.6018H128.363C128.023 78.6018 127.91 78.7346 127.91 78.9166C127.91 79.0987 128.072 79.2463 128.353 79.2463C128.471 79.2521 128.588 79.2205 128.687 79.156C128.785 79.0915 128.862 78.9974 128.904 78.8871H128.909Z" fill="#263238"/>
<path d="M129.735 77.1112C129.735 77.0771 129.745 77.0438 129.764 77.0155C129.783 76.9872 129.81 76.9651 129.842 76.9521C129.873 76.939 129.908 76.9356 129.941 76.9423C129.975 76.9489 130.005 76.9653 130.029 76.9894C130.053 77.0135 130.07 77.0442 130.076 77.0776C130.083 77.111 130.08 77.1456 130.067 77.1771C130.054 77.2085 130.032 77.2354 130.003 77.2543C129.975 77.2733 129.942 77.2834 129.908 77.2834C129.862 77.2834 129.818 77.2652 129.786 77.2329C129.753 77.2006 129.735 77.1568 129.735 77.1112ZM129.785 77.6622H130.021V79.4137H129.785V77.6622Z" fill="#263238"/>
<path d="M130.68 76.9438H130.916V79.4038H130.68V76.9438Z" fill="#263238"/>
<path d="M131.423 79.2463C131.422 79.2228 131.426 79.1995 131.435 79.1777C131.444 79.1559 131.457 79.1361 131.473 79.1195C131.49 79.1029 131.51 79.0899 131.531 79.0813C131.553 79.0726 131.577 79.0685 131.6 79.0692C131.647 79.0692 131.692 79.0878 131.725 79.121C131.759 79.1543 131.777 79.1993 131.777 79.2463C131.777 79.2937 131.759 79.3393 131.726 79.3733C131.693 79.4073 131.647 79.427 131.6 79.4283C131.576 79.4283 131.553 79.4236 131.531 79.4144C131.509 79.4052 131.49 79.3917 131.473 79.3747C131.457 79.3577 131.444 79.3376 131.435 79.3156C131.426 79.2935 131.422 79.27 131.423 79.2463Z" fill="#263238"/>
<path d="M132.053 78.5381C132.049 78.4196 132.07 78.3016 132.114 78.1916C132.159 78.0816 132.225 77.9819 132.31 77.8988C132.394 77.8156 132.495 77.7508 132.606 77.7085C132.716 77.6661 132.835 77.647 132.953 77.6525C133.088 77.6436 133.223 77.6709 133.344 77.7314C133.465 77.7919 133.568 77.8836 133.642 77.9969L133.465 78.115C133.409 78.0359 133.336 77.9714 133.25 77.9269C133.164 77.8823 133.069 77.8591 132.973 77.8592C132.802 77.8737 132.643 77.9518 132.527 78.0779C132.411 78.2041 132.347 78.3692 132.347 78.5406C132.347 78.7119 132.411 78.877 132.527 79.0032C132.643 79.1294 132.802 79.2075 132.973 79.222C133.07 79.2229 133.165 79.2001 133.251 79.1554C133.337 79.1108 133.41 79.0458 133.465 78.9662L133.642 79.0842C133.567 79.1969 133.464 79.288 133.344 79.3484C133.223 79.4088 133.088 79.4365 132.953 79.4286C132.834 79.4342 132.716 79.415 132.604 79.3723C132.493 79.3296 132.392 79.2644 132.308 79.1807C132.223 79.097 132.157 78.9967 132.113 78.8861C132.069 78.7755 132.049 78.657 132.053 78.5381Z" fill="#263238"/>
<path d="M133.898 78.538C133.898 78.3619 133.95 78.1897 134.048 78.0432C134.146 77.8968 134.285 77.7826 134.447 77.7152C134.61 77.6478 134.789 77.6302 134.962 77.6646C135.135 77.6989 135.293 77.7837 135.418 77.9083C135.543 78.0328 135.627 78.1915 135.662 78.3642C135.696 78.537 135.678 78.716 135.611 78.8788C135.544 79.0415 135.429 79.1806 135.283 79.2784C135.137 79.3763 134.964 79.4285 134.788 79.4285C134.67 79.4326 134.553 79.4124 134.443 79.3691C134.333 79.3258 134.233 79.2604 134.149 79.1768C134.066 79.0933 134 78.9935 133.957 78.8836C133.914 78.7737 133.894 78.656 133.898 78.538ZM135.438 78.538C135.434 78.4084 135.391 78.283 135.316 78.1776C135.241 78.0721 135.136 77.9915 135.014 77.9458C134.893 77.9001 134.761 77.8914 134.635 77.9209C134.509 77.9504 134.394 78.0167 134.306 78.1114C134.217 78.2061 134.159 78.3249 134.138 78.4528C134.117 78.5807 134.135 78.7119 134.188 78.8298C134.242 78.9477 134.33 79.047 134.44 79.115C134.55 79.1831 134.678 79.2168 134.808 79.212C134.894 79.2108 134.979 79.1922 135.058 79.1574C135.137 79.1225 135.208 79.0721 135.266 79.0091C135.325 78.9462 135.371 78.872 135.4 78.791C135.43 78.7101 135.442 78.624 135.438 78.538Z" fill="#263238"/>
<path d="M139.044 78.4002V79.4137H138.808V78.4297C138.808 78.0607 138.621 77.8688 138.316 77.8688C138.234 77.8646 138.152 77.8784 138.076 77.9092C138 77.94 137.932 77.987 137.876 78.0471C137.82 78.1071 137.778 78.1786 137.753 78.2567C137.728 78.3347 137.72 78.4172 137.73 78.4986V79.4186H137.494V78.4346C137.494 78.0656 137.307 77.8737 137.002 77.8737C136.92 77.8695 136.839 77.8833 136.763 77.9141C136.687 77.9449 136.618 77.9919 136.563 78.052C136.507 78.112 136.465 78.1836 136.44 78.2616C136.414 78.3396 136.407 78.4222 136.417 78.5035V79.4235H136.181V77.672H136.407V77.9918C136.474 77.8848 136.569 77.7977 136.682 77.7398C136.794 77.6818 136.92 77.655 137.047 77.6622C137.176 77.6525 137.305 77.6826 137.417 77.7486C137.529 77.8146 137.617 77.9132 137.671 78.0312C137.742 77.9129 137.843 77.8161 137.965 77.751C138.086 77.686 138.223 77.6553 138.36 77.6622C138.456 77.6579 138.551 77.6745 138.64 77.7109C138.729 77.7472 138.808 77.8025 138.873 77.8727C138.938 77.9429 138.987 78.0265 139.017 78.1176C139.046 78.2087 139.056 78.3051 139.044 78.4002Z" fill="#263238"/>
<path d="M100.068 93.2635L100.481 93.4996L100.407 93.6374L99.989 93.3963V93.8883H99.8365V93.3963L99.4183 93.6374L99.3396 93.4996L99.7578 93.2635L99.3396 93.0322L99.4183 92.8896L99.8365 93.1356V92.6436H99.989V93.1356L100.407 92.8896L100.481 93.0322L100.068 93.2635Z" fill="#263238"/>
<path d="M101.421 93.2635L101.834 93.4996L101.755 93.6374L101.342 93.3963V93.8883H101.185V93.3963L100.771 93.6374L100.688 93.4996L101.106 93.2635L100.688 93.0322L100.771 92.8896L101.185 93.1356V92.6436H101.352V93.1356L101.765 92.8896L101.844 93.0322L101.421 93.2635Z" fill="#263238"/>
<path d="M102.769 93.2635L103.182 93.4996L103.103 93.6374L102.69 93.3963V93.8883H102.538V93.3963L102.124 93.6374L102.046 93.4996L102.459 93.2635L102.046 93.0322L102.124 92.8896L102.538 93.1356V92.6436H102.69V93.1356L103.103 92.8896L103.182 93.0322L102.769 93.2635Z" fill="#263238"/>
<path d="M104.117 93.2635L104.53 93.4996L104.456 93.6374L104.038 93.3963V93.8883H103.886V93.3963L103.467 93.6374L103.389 93.4996L103.807 93.2635L103.389 93.0322L103.467 92.8896L103.886 93.1356V92.6436H104.038V93.1356L104.456 92.8896L104.53 93.0322L104.117 93.2635Z" fill="#263238"/>
<path d="M105.47 93.2635L105.883 93.4996L105.804 93.6374L105.391 93.3963V93.8883H105.234V93.3963L104.82 93.6374L104.737 93.4996L105.155 93.2635L104.737 93.0322L104.82 92.8896L105.234 93.1356V92.6436H105.391V93.1356L105.804 92.8896L105.883 93.0322L105.47 93.2635Z" fill="#263238"/>
<path d="M106.818 93.2635L107.231 93.4996L107.153 93.6374L106.739 93.3963V93.8883H106.587V93.3963L106.173 93.6374L106.095 93.4996L106.508 93.2635L106.095 93.0322L106.173 92.8896L106.587 93.1356V92.6436H106.764V93.1356L107.177 92.8896L107.256 93.0322L106.818 93.2635Z" fill="#263238"/>
<path d="M108.166 93.2635L108.579 93.4996L108.505 93.6374L108.087 93.3963V93.8883H107.935V93.3963L107.516 93.6374L107.438 93.4996L107.856 93.2635L107.438 93.0322L107.516 92.8896L107.935 93.1356V92.6436H108.087V93.1356L108.505 92.8896L108.579 93.0322L108.166 93.2635Z" fill="#263238"/>
<path d="M109.519 93.2635L109.932 93.4996L109.854 93.6374L109.435 93.3963V93.8883H109.283V93.3963L108.87 93.6374L108.786 93.4996L109.204 93.2635L108.786 93.0322L108.87 92.8896L109.283 93.1356V92.6436H109.435V93.1356L109.854 92.8896L109.932 93.0322L109.519 93.2635Z" fill="#263238"/>
<path d="M110.867 93.2635L111.28 93.4996L111.202 93.6374L110.788 93.3963V93.8883H110.636V93.3963L110.223 93.6374L110.144 93.4996L110.557 93.2635L110.144 93.0322L110.223 92.8896L110.636 93.1356V92.6436H110.788V93.1356L111.202 92.8896L111.28 93.0322L110.867 93.2635Z" fill="#263238"/>
<path d="M112.215 93.2635L112.628 93.4996L112.555 93.6374L112.136 93.3963V93.8883H111.984V93.3963L111.566 93.6374L111.487 93.4996L111.9 93.2635L111.487 93.0322L111.566 92.8896L111.984 93.1356V92.6436H112.136V93.1356L112.555 92.8896L112.628 93.0322L112.215 93.2635Z" fill="#263238"/>
<path d="M113.568 93.2635L113.977 93.4996L113.903 93.6374L113.485 93.3963V93.8883H113.332V93.3963L112.919 93.6374L112.835 93.4996L113.253 93.2635L112.835 93.0322L112.919 92.8896L113.332 93.1356V92.6436H113.485V93.1356L113.903 92.8896L113.977 93.0322L113.568 93.2635Z" fill="#263238"/>
<path d="M99.8466 86.5919C99.8466 87.0839 99.4874 87.3889 98.897 87.3889H98.2722V88.122H98.0212V85.8047H98.8921C99.4874 85.8047 99.8466 86.0999 99.8466 86.5919ZM99.6006 86.5919C99.6006 86.218 99.3546 86.0064 98.8872 86.0064H98.2722V87.1724H98.8921C99.3546 87.1823 99.6006 86.9707 99.6006 86.5919Z" fill="#263238"/>
<path d="M101.632 87.0495V88.1319H101.406V87.8613C101.339 87.9581 101.248 88.0356 101.142 88.0857C101.036 88.1358 100.918 88.1569 100.801 88.1466C100.407 88.1466 100.166 87.9449 100.166 87.6546C100.166 87.3643 100.338 87.1626 100.84 87.1626H101.396V87.0593C101.396 86.7592 101.224 86.5968 100.904 86.5968C100.692 86.5935 100.486 86.6669 100.323 86.8035L100.215 86.6263C100.418 86.4665 100.67 86.3829 100.929 86.3902C101.02 86.3775 101.113 86.3854 101.202 86.4133C101.29 86.4413 101.37 86.4886 101.438 86.5518C101.505 86.615 101.558 86.6925 101.591 86.7786C101.625 86.8647 101.639 86.9573 101.632 87.0495ZM101.396 87.6054V87.3201H100.86C100.52 87.3201 100.412 87.4529 100.412 87.6349C100.412 87.817 100.574 87.9646 100.855 87.9646C100.971 87.9683 101.086 87.9357 101.183 87.8713C101.28 87.807 101.354 87.714 101.396 87.6054Z" fill="#263238"/>
<path d="M102.031 87.9352L102.134 87.7483C102.317 87.8768 102.535 87.9456 102.759 87.9451C103.089 87.9451 103.226 87.8319 103.226 87.6548C103.226 87.2022 102.095 87.5613 102.095 86.8676C102.095 86.5822 102.341 86.3756 102.784 86.3756C103.001 86.3728 103.215 86.4289 103.403 86.5379L103.3 86.7249C103.147 86.6251 102.967 86.5737 102.784 86.5773C102.469 86.5773 102.331 86.7003 102.331 86.8676C102.331 87.3596 103.462 86.9857 103.462 87.6548C103.462 87.9598 103.197 88.1468 102.739 88.1468C102.486 88.155 102.238 88.0807 102.031 87.9352Z" fill="#263238"/>
<path d="M103.655 87.9353L103.763 87.7483C103.944 87.8774 104.161 87.9462 104.383 87.9451C104.717 87.9451 104.875 87.832 104.875 87.6548C104.875 87.2022 103.743 87.5614 103.743 86.8676C103.743 86.5823 103.989 86.3756 104.437 86.3756C104.653 86.3722 104.866 86.4284 105.052 86.538L104.949 86.725C104.802 86.6295 104.631 86.5783 104.457 86.5774C104.137 86.5774 103.999 86.7004 103.999 86.8676C103.999 87.3596 105.131 86.9857 105.131 87.6548C105.131 87.9599 104.865 88.1468 104.412 88.1468C104.143 88.1658 103.875 88.0911 103.655 87.9353Z" fill="#263238"/>
<path d="M108.058 86.3853L107.394 88.1319H107.172L106.621 86.7001L106.07 88.1319H105.844L105.189 86.3853H105.416L105.962 87.8613L106.523 86.3853H106.729L107.285 87.8613L107.841 86.3853H108.058Z" fill="#263238"/>
<path d="M108.186 87.2562C108.186 87.0801 108.238 86.9079 108.336 86.7615C108.434 86.6151 108.573 86.5009 108.736 86.4335C108.898 86.3661 109.077 86.3485 109.25 86.3828C109.423 86.4172 109.581 86.502 109.706 86.6265C109.831 86.7511 109.915 86.9098 109.95 87.0825C109.984 87.2553 109.966 87.4343 109.899 87.597C109.832 87.7598 109.718 87.8988 109.571 87.9967C109.425 88.0945 109.252 88.1468 109.076 88.1468C108.958 88.1509 108.841 88.1307 108.731 88.0874C108.621 88.0441 108.521 87.9786 108.437 87.8951C108.354 87.8116 108.289 87.7118 108.245 87.6018C108.202 87.4919 108.182 87.3743 108.186 87.2562ZM109.726 87.2562C109.726 87.084 109.657 86.9188 109.536 86.797C109.414 86.6752 109.249 86.6068 109.076 86.6068C108.904 86.6068 108.739 86.6752 108.617 86.797C108.495 86.9188 108.427 87.084 108.427 87.2562C108.427 87.4285 108.495 87.5937 108.617 87.7155C108.739 87.8373 108.904 87.9057 109.076 87.9057C109.249 87.9057 109.414 87.8373 109.536 87.7155C109.657 87.5937 109.726 87.4285 109.726 87.2562Z" fill="#263238"/>
<path d="M111.33 86.3706V86.592H111.271C111.188 86.5882 111.105 86.6029 111.028 86.6348C110.951 86.6668 110.882 86.7152 110.827 86.7768C110.771 86.8383 110.729 86.9114 110.705 86.9908C110.68 87.0703 110.673 87.1542 110.685 87.2365V88.127H110.449V86.3804H110.7V86.7199C110.759 86.6064 110.85 86.5129 110.962 86.4508C111.074 86.3887 111.202 86.3608 111.33 86.3706Z" fill="#263238"/>
<path d="M113.332 85.667V88.127H113.106V87.7826C113.035 87.8972 112.936 87.9909 112.818 88.054C112.699 88.1172 112.566 88.1475 112.432 88.1418C112.207 88.1251 111.998 88.0243 111.845 87.8596C111.692 87.6949 111.607 87.4785 111.607 87.2537C111.607 87.029 111.692 86.8126 111.845 86.6479C111.998 86.4832 112.207 86.3824 112.432 86.3657C112.563 86.3607 112.693 86.3898 112.809 86.4502C112.926 86.5105 113.024 86.6001 113.096 86.7101V85.6621L113.332 85.667ZM113.101 87.2562C113.094 87.1294 113.05 87.0074 112.975 86.9052C112.9 86.8031 112.796 86.7252 112.677 86.6813C112.558 86.6374 112.428 86.6293 112.305 86.6581C112.181 86.687 112.069 86.7514 111.981 86.8434C111.894 86.9355 111.835 87.0511 111.813 87.1761C111.791 87.301 111.805 87.4298 111.855 87.5465C111.905 87.6631 111.988 87.7626 112.094 87.8326C112.2 87.9025 112.324 87.9399 112.451 87.9401C112.54 87.9416 112.628 87.9248 112.71 87.8905C112.792 87.8562 112.865 87.8053 112.926 87.741C112.987 87.6767 113.035 87.6004 113.065 87.5169C113.095 87.4335 113.107 87.3447 113.101 87.2562Z" fill="#263238"/>
<path d="M116.83 105.78V108.112H116.604V105.997H116.053V105.78H116.83Z" fill="#263238"/>
<path d="M118.975 107.886V108.102H117.342V107.93L118.326 106.98C118.587 106.725 118.641 106.567 118.641 106.41C118.641 106.139 118.449 105.972 118.095 105.972C117.976 105.964 117.857 105.984 117.747 106.029C117.637 106.074 117.539 106.144 117.46 106.233L117.288 106.085C117.393 105.972 117.521 105.884 117.664 105.826C117.807 105.768 117.961 105.742 118.114 105.75C118.606 105.75 118.887 105.992 118.887 106.38C118.879 106.522 118.841 106.661 118.775 106.786C118.709 106.912 118.616 107.022 118.503 107.108L117.711 107.886H118.975Z" fill="#263238"/>
<path d="M120.815 107.433C120.815 107.822 120.53 108.122 119.969 108.122C119.662 108.132 119.363 108.024 119.133 107.822L119.246 107.63C119.443 107.811 119.702 107.908 119.969 107.901C120.358 107.901 120.569 107.723 120.569 107.433C120.569 107.143 120.373 106.971 119.94 106.971H119.772V106.794L120.417 105.987H119.226V105.78H120.702V105.952L120.048 106.764C120.565 106.798 120.815 107.059 120.815 107.433Z" fill="#263238"/>
<path d="M123.128 107.487H122.66V108.102H122.424V107.487H121.111V107.315L122.346 105.77H122.611L121.421 107.256H122.429V106.715H122.66V107.256H123.128V107.487Z" fill="#263238"/>
<path d="M125.799 107.413C125.799 107.812 125.524 108.122 124.953 108.122C124.646 108.131 124.348 108.024 124.117 107.822L124.235 107.63C124.33 107.72 124.442 107.791 124.564 107.837C124.687 107.884 124.817 107.905 124.948 107.901C125.347 107.901 125.553 107.709 125.553 107.409C125.553 107.108 125.366 106.917 124.776 106.917H124.284L124.407 105.746H125.681V105.962H124.614L124.535 106.7H124.835C125.534 106.725 125.799 107.005 125.799 107.413Z" fill="#263238"/>
<path d="M127.851 107.404C127.85 107.505 127.828 107.604 127.787 107.696C127.745 107.788 127.685 107.87 127.61 107.938C127.535 108.006 127.447 108.057 127.351 108.088C127.256 108.12 127.154 108.132 127.054 108.122C126.434 108.122 126.099 107.689 126.099 106.956C126.099 106.223 126.532 105.751 127.162 105.751C127.355 105.743 127.547 105.787 127.718 105.878L127.62 106.07C127.482 105.992 127.325 105.954 127.167 105.962C126.675 105.962 126.34 106.282 126.34 106.917C126.34 106.971 126.34 107.035 126.34 107.104C126.408 106.975 126.512 106.87 126.638 106.799C126.765 106.728 126.909 106.696 127.054 106.705C127.153 106.693 127.254 106.701 127.35 106.731C127.446 106.76 127.534 106.809 127.609 106.875C127.685 106.941 127.745 107.022 127.787 107.114C127.828 107.205 127.85 107.304 127.851 107.404ZM127.615 107.404C127.615 107.094 127.388 106.912 127.029 106.912C126.957 106.903 126.884 106.909 126.814 106.929C126.745 106.949 126.68 106.983 126.624 107.029C126.568 107.075 126.522 107.132 126.488 107.196C126.455 107.261 126.434 107.331 126.429 107.404C126.429 107.66 126.641 107.896 127.044 107.896C127.114 107.907 127.186 107.903 127.254 107.884C127.323 107.865 127.386 107.832 127.44 107.786C127.494 107.74 127.538 107.683 127.568 107.619C127.598 107.555 127.614 107.484 127.615 107.414V107.404Z" fill="#263238"/>
<path d="M129.74 105.78V105.952L128.756 108.112H128.496L129.455 105.997H128.259V106.429H128.023V105.78H129.74Z" fill="#263238"/>
<path d="M131.782 107.453C131.782 107.866 131.433 108.122 130.877 108.122C130.321 108.122 129.981 107.866 129.981 107.453C129.98 107.32 130.023 107.191 130.105 107.087C130.186 106.982 130.3 106.908 130.429 106.877C130.322 106.848 130.227 106.784 130.161 106.695C130.095 106.605 130.061 106.496 130.065 106.385C130.065 106.006 130.385 105.77 130.877 105.77C131.369 105.77 131.698 106.006 131.698 106.385C131.697 106.496 131.659 106.604 131.592 106.692C131.525 106.781 131.431 106.846 131.324 106.877C131.455 106.907 131.571 106.98 131.654 107.085C131.737 107.189 131.782 107.319 131.782 107.453ZM131.536 107.453C131.536 107.167 131.29 106.985 130.877 106.985C130.463 106.985 130.222 107.167 130.222 107.453C130.222 107.738 130.463 107.945 130.877 107.945C131.29 107.945 131.536 107.748 131.536 107.448V107.453ZM130.872 106.793C131.236 106.793 131.452 106.631 131.452 106.375C131.452 106.119 131.221 105.957 130.872 105.957C130.522 105.957 130.296 106.114 130.296 106.375C130.296 106.636 130.513 106.793 130.872 106.793Z" fill="#263238"/>
<path d="M134.665 106.917C134.665 107.709 134.232 108.122 133.597 108.122C133.406 108.129 133.216 108.085 133.046 107.994L133.145 107.802C133.282 107.881 133.439 107.918 133.597 107.91C134.089 107.91 134.419 107.586 134.419 106.956C134.424 106.894 134.424 106.831 134.419 106.769C134.353 106.898 134.251 107.004 134.125 107.075C133.999 107.145 133.855 107.178 133.711 107.168C133.612 107.179 133.512 107.169 133.418 107.139C133.323 107.109 133.236 107.059 133.162 106.993C133.087 106.927 133.028 106.847 132.987 106.756C132.946 106.666 132.924 106.568 132.923 106.469C132.924 106.368 132.946 106.268 132.988 106.176C133.029 106.084 133.089 106.002 133.164 105.935C133.239 105.867 133.327 105.816 133.423 105.784C133.519 105.752 133.62 105.741 133.72 105.751C134.316 105.751 134.665 106.184 134.665 106.917ZM134.335 106.454C134.335 106.198 134.124 105.962 133.72 105.962C133.649 105.951 133.577 105.955 133.508 105.974C133.439 105.994 133.375 106.028 133.32 106.075C133.266 106.122 133.223 106.18 133.193 106.246C133.164 106.311 133.149 106.382 133.15 106.454C133.15 106.764 133.376 106.946 133.735 106.946C133.877 106.957 134.018 106.912 134.126 106.819C134.235 106.727 134.303 106.596 134.316 106.454H134.335Z" fill="#263238"/>
<path d="M135.649 105.78V108.112H135.408V105.997H134.857V105.78H135.649Z" fill="#263238"/>
<path d="M136.2 106.936C136.2 106.193 136.594 105.75 137.13 105.75C137.666 105.75 138.06 106.193 138.06 106.936C138.06 107.679 137.671 108.122 137.13 108.122C136.589 108.122 136.2 107.679 136.2 106.936ZM137.814 106.936C137.814 106.316 137.538 105.952 137.13 105.952C136.722 105.952 136.446 106.296 136.446 106.936C136.446 107.576 136.727 107.92 137.13 107.92C137.534 107.92 137.814 107.556 137.814 106.936Z" fill="#263238"/>
<path d="M139.044 105.78V108.112H138.803V105.997H138.252V105.78H139.044Z" fill="#263238"/>
<path d="M141.115 105.78V108.112H140.874V105.997H140.323V105.78H141.115Z" fill="#263238"/>
<path d="M142.311 105.78V108.112H142.075V105.997H141.524V105.78H142.311Z" fill="#263238"/>
<path d="M144.456 107.886V108.102H142.823V107.93L143.807 106.981C144.067 106.725 144.122 106.567 144.122 106.41C144.122 106.139 143.93 105.972 143.575 105.972C143.457 105.964 143.338 105.984 143.228 106.029C143.118 106.074 143.02 106.144 142.941 106.233L142.769 106.085C142.874 105.973 143.002 105.885 143.145 105.827C143.288 105.769 143.441 105.743 143.595 105.751C144.087 105.751 144.368 105.992 144.368 106.38C144.36 106.522 144.322 106.661 144.255 106.786C144.189 106.912 144.097 107.022 143.984 107.108L143.172 107.886H144.456Z" fill="#263238"/>
<path d="M145.401 105.78V108.112H145.14V105.997H144.594V105.78H145.401Z" fill="#263238"/>
<path d="M106.168 105.239V104.884C106.168 104.72 106.103 104.562 105.987 104.446C105.871 104.33 105.713 104.264 105.549 104.264H99.2657C99.1013 104.264 98.9436 104.33 98.8273 104.446C98.7111 104.562 98.6458 104.72 98.6458 104.884V105.239H106.168Z" fill="#263238"/>
<path d="M98.6458 105.726V108.333C98.6458 108.498 98.7111 108.656 98.8273 108.772C98.9436 108.888 99.1013 108.953 99.2657 108.953H105.549C105.713 108.953 105.871 108.888 105.987 108.772C106.103 108.656 106.168 108.498 106.168 108.333V105.726H98.6458Z" fill="#263238"/>
<path d="M98.7393 119.458C98.7393 118.715 99.1279 118.277 99.6691 118.277C100.21 118.277 100.599 118.715 100.599 119.458C100.599 120.201 100.205 120.643 99.6691 120.643C99.1329 120.643 98.7393 120.201 98.7393 119.458ZM100.353 119.458C100.353 118.838 100.073 118.474 99.6691 118.474C99.2657 118.474 98.9853 118.818 98.9853 119.458C98.9853 120.097 99.2608 120.442 99.6691 120.442C100.077 120.442 100.368 120.082 100.368 119.458H100.353Z" fill="#263238"/>
<path d="M102.73 119.974C102.73 120.387 102.38 120.643 101.824 120.643C101.268 120.643 100.929 120.387 100.929 119.974C100.927 119.842 100.97 119.713 101.051 119.609C101.133 119.505 101.248 119.433 101.377 119.403C101.272 119.37 101.181 119.304 101.116 119.216C101.05 119.128 101.014 119.021 101.012 118.911C101.012 118.533 101.332 118.296 101.824 118.296C102.316 118.296 102.646 118.533 102.646 118.911C102.643 119.022 102.606 119.128 102.54 119.216C102.474 119.304 102.382 119.37 102.277 119.403C102.406 119.433 102.521 119.505 102.604 119.609C102.686 119.713 102.731 119.842 102.73 119.974ZM102.484 119.974C102.484 119.689 102.238 119.512 101.824 119.512C101.411 119.512 101.17 119.689 101.17 119.974C101.17 120.259 101.416 120.466 101.824 120.466C102.233 120.466 102.484 120.259 102.484 119.969V119.974ZM101.844 119.315C102.208 119.315 102.424 119.152 102.424 118.902C102.424 118.651 102.193 118.478 101.844 118.478C101.495 118.478 101.268 118.636 101.268 118.897C101.268 119.157 101.465 119.315 101.844 119.315Z" fill="#263238"/>
<path d="M103.905 117.824H104.122L103.02 120.953H102.828L103.905 117.824Z" fill="#263238"/>
<path d="M105.78 120.407V120.624H104.146V120.452L105.13 119.507C105.391 119.246 105.44 119.089 105.44 118.931C105.44 118.661 105.253 118.493 104.899 118.493C104.78 118.486 104.66 118.505 104.549 118.55C104.439 118.595 104.34 118.665 104.26 118.754L104.092 118.607C104.197 118.494 104.326 118.406 104.469 118.349C104.612 118.292 104.765 118.267 104.919 118.277C105.411 118.277 105.686 118.513 105.686 118.902C105.681 119.044 105.645 119.183 105.579 119.309C105.514 119.435 105.421 119.544 105.308 119.63L104.515 120.407H105.78Z" fill="#263238"/>
<path d="M107.645 119.935C107.645 120.333 107.369 120.643 106.798 120.643C106.492 120.652 106.193 120.545 105.962 120.343L106.08 120.151C106.175 120.242 106.287 120.312 106.409 120.358C106.532 120.405 106.662 120.426 106.793 120.422C107.192 120.422 107.399 120.23 107.399 119.93C107.399 119.63 107.217 119.438 106.621 119.438H106.129L106.247 118.272H107.522V118.483H106.454L106.375 119.226H106.675C107.379 119.251 107.645 119.526 107.645 119.935Z" fill="#263238"/>
<path d="M99.8266 116.796V116.929H98.8032V115.482H99.7872V115.62H98.9508V116.112H99.6987V116.245H98.9508V116.781L99.8266 116.796Z" fill="#263238"/>
<path d="M101.071 116.929L100.609 116.289L100.117 116.929H99.9397L100.491 116.186L99.9987 115.482H100.171L100.609 116.073L101.042 115.482H101.204L100.712 116.181L101.263 116.929H101.071Z" fill="#263238"/>
<path d="M102.606 115.979C102.606 116.284 102.38 116.471 102.016 116.471H101.627V116.929H101.475V115.482H102.016C102.38 115.482 102.606 115.669 102.606 115.979ZM102.454 115.979C102.454 115.748 102.301 115.615 102.011 115.615H101.627V116.338H102.011C102.301 116.338 102.454 116.205 102.454 115.979Z" fill="#263238"/>
<path d="M103.502 115.482H104.087C104.279 115.482 104.463 115.558 104.599 115.694C104.734 115.83 104.81 116.014 104.81 116.205C104.81 116.397 104.734 116.581 104.599 116.717C104.463 116.852 104.279 116.929 104.087 116.929H103.502V115.482ZM104.077 116.796C104.234 116.796 104.384 116.734 104.495 116.623C104.606 116.512 104.668 116.362 104.668 116.205C104.668 116.049 104.606 115.899 104.495 115.788C104.384 115.677 104.234 115.615 104.077 115.615H103.654V116.796H104.077Z" fill="#263238"/>
<path d="M105.996 116.255V116.929H105.854V116.757C105.814 116.818 105.758 116.868 105.692 116.9C105.626 116.932 105.553 116.945 105.48 116.939C105.239 116.939 105.086 116.811 105.086 116.624C105.086 116.437 105.194 116.314 105.504 116.314H105.849V116.25C105.853 116.21 105.848 116.169 105.834 116.13C105.82 116.092 105.797 116.058 105.768 116.03C105.738 116.002 105.703 115.981 105.664 115.969C105.625 115.957 105.584 115.954 105.544 115.96C105.411 115.958 105.282 116.003 105.18 116.088L105.116 115.979C105.241 115.88 105.398 115.828 105.559 115.832C105.617 115.823 105.676 115.828 105.732 115.846C105.788 115.864 105.839 115.895 105.882 115.935C105.924 115.976 105.956 116.026 105.976 116.082C105.996 116.137 106.003 116.196 105.996 116.255ZM105.849 116.599V116.422H105.509C105.298 116.422 105.229 116.506 105.229 116.619C105.229 116.732 105.332 116.821 105.504 116.821C105.577 116.826 105.65 116.808 105.712 116.769C105.774 116.73 105.822 116.672 105.849 116.604V116.599Z" fill="#263238"/>
<path d="M106.966 116.86C106.903 116.914 106.822 116.942 106.739 116.938C106.697 116.943 106.653 116.938 106.613 116.924C106.572 116.91 106.535 116.887 106.505 116.857C106.474 116.827 106.451 116.79 106.436 116.75C106.421 116.709 106.416 116.666 106.419 116.624V115.964H106.228V115.841H106.419V115.62H106.567V115.856H106.897V115.979H106.567V116.604C106.563 116.63 106.565 116.656 106.573 116.681C106.581 116.706 106.594 116.729 106.612 116.748C106.631 116.767 106.653 116.781 106.677 116.791C106.702 116.8 106.728 116.803 106.754 116.801C106.813 116.802 106.87 116.783 106.916 116.747L106.966 116.86Z" fill="#263238"/>
<path d="M108.141 116.432H107.256C107.263 116.538 107.313 116.637 107.393 116.707C107.473 116.777 107.578 116.812 107.684 116.806C107.747 116.808 107.809 116.797 107.867 116.772C107.925 116.747 107.977 116.71 108.018 116.663L108.102 116.761C108.048 116.82 107.983 116.866 107.91 116.896C107.837 116.927 107.758 116.941 107.679 116.939C107.604 116.943 107.53 116.931 107.46 116.905C107.39 116.879 107.326 116.838 107.273 116.786C107.22 116.733 107.178 116.67 107.151 116.601C107.123 116.532 107.11 116.457 107.113 116.383C107.109 116.311 107.12 116.24 107.144 116.173C107.169 116.106 107.207 116.044 107.257 115.993C107.306 115.941 107.366 115.9 107.431 115.872C107.497 115.845 107.568 115.831 107.64 115.832C107.712 115.826 107.785 115.836 107.854 115.863C107.922 115.889 107.983 115.929 108.034 115.982C108.084 116.035 108.122 116.098 108.145 116.167C108.168 116.237 108.175 116.31 108.166 116.383L108.141 116.432ZM107.231 116.319H108.004C107.993 116.224 107.948 116.136 107.876 116.072C107.805 116.009 107.713 115.974 107.617 115.974C107.522 115.974 107.43 116.009 107.358 116.072C107.287 116.136 107.242 116.224 107.231 116.319Z" fill="#263238"/>
<path d="M126.218 118.296V120.624H125.981V118.508H125.43V118.296H126.218Z" fill="#263238"/>
<path d="M128.363 120.407V120.624H126.729V120.451L127.713 119.507C127.974 119.246 128.028 119.089 128.028 118.931C128.028 118.661 127.836 118.493 127.482 118.493C127.363 118.486 127.244 118.505 127.134 118.55C127.024 118.596 126.926 118.665 126.847 118.754L126.675 118.606C126.78 118.495 126.909 118.407 127.052 118.35C127.195 118.293 127.348 118.268 127.502 118.277C127.994 118.277 128.274 118.513 128.274 118.902C128.266 119.044 128.228 119.182 128.162 119.308C128.096 119.434 128.003 119.543 127.89 119.63L127.098 120.407H128.363Z" fill="#263238"/>
<path d="M130.203 119.954C130.203 120.343 129.917 120.643 129.356 120.643C129.05 120.653 128.751 120.546 128.52 120.343L128.638 120.151C128.734 120.242 128.846 120.313 128.97 120.359C129.093 120.406 129.225 120.427 129.356 120.422C129.745 120.422 129.957 120.245 129.957 119.954C129.957 119.664 129.76 119.492 129.327 119.492H129.16V119.315L129.804 118.508H128.614V118.296H130.09V118.464L129.43 119.29C129.952 119.32 130.203 119.581 130.203 119.954Z" fill="#263238"/>
<path d="M125.509 116.205C125.508 116.106 125.526 116.008 125.564 115.917C125.602 115.825 125.658 115.742 125.729 115.673C125.8 115.604 125.884 115.55 125.977 115.515C126.069 115.48 126.168 115.463 126.267 115.467C126.364 115.464 126.462 115.481 126.552 115.518C126.643 115.554 126.725 115.609 126.793 115.679L126.7 115.777C126.644 115.721 126.577 115.677 126.503 115.647C126.43 115.618 126.351 115.603 126.272 115.605C126.189 115.598 126.105 115.607 126.026 115.634C125.947 115.661 125.874 115.703 125.813 115.76C125.751 115.816 125.702 115.884 125.668 115.961C125.635 116.037 125.617 116.12 125.617 116.203C125.617 116.286 125.635 116.369 125.668 116.445C125.702 116.521 125.751 116.59 125.813 116.646C125.874 116.702 125.947 116.745 126.026 116.772C126.105 116.798 126.189 116.808 126.272 116.801C126.351 116.804 126.43 116.79 126.504 116.76C126.578 116.731 126.644 116.686 126.7 116.629L126.793 116.727C126.725 116.798 126.642 116.854 126.551 116.89C126.459 116.927 126.36 116.943 126.262 116.938C126.164 116.942 126.066 116.926 125.974 116.891C125.882 116.856 125.798 116.803 125.728 116.734C125.657 116.665 125.602 116.583 125.564 116.492C125.526 116.401 125.508 116.304 125.509 116.205Z" fill="#263238"/>
<path d="M129.091 115.482L128.599 116.929H128.437L128.014 115.694L127.59 116.929H127.428L126.936 115.482H127.093L127.512 116.727L127.945 115.482H128.087L128.51 116.732L128.934 115.482H129.091Z" fill="#263238"/>
<path d="M113.312 133.125H112.013L111.733 133.75H111.477L112.54 131.423H112.786L113.848 133.75H113.588L113.312 133.125ZM113.219 132.929L112.668 131.679L112.107 132.929H113.219Z" fill="#263238"/>
<path d="M113.991 132.875C113.987 132.756 114.008 132.637 114.051 132.526C114.095 132.416 114.162 132.316 114.246 132.232C114.331 132.148 114.432 132.083 114.543 132.04C114.654 131.998 114.773 131.978 114.892 131.984C115.026 131.976 115.161 132.004 115.281 132.066C115.401 132.127 115.503 132.219 115.576 132.333L115.403 132.451C115.348 132.372 115.275 132.306 115.189 132.261C115.103 132.216 115.008 132.192 114.911 132.191C114.73 132.191 114.556 132.263 114.428 132.391C114.299 132.519 114.227 132.693 114.227 132.875C114.227 133.056 114.299 133.23 114.428 133.358C114.556 133.486 114.73 133.558 114.911 133.558C115.008 133.558 115.103 133.534 115.188 133.49C115.274 133.445 115.347 133.381 115.403 133.303L115.576 133.421C115.502 133.533 115.4 133.624 115.28 133.684C115.16 133.745 115.026 133.773 114.892 133.765C114.773 133.771 114.654 133.751 114.543 133.709C114.432 133.666 114.331 133.601 114.246 133.517C114.162 133.433 114.095 133.333 114.051 133.223C114.008 133.112 113.987 132.993 113.991 132.875Z" fill="#263238"/>
<path d="M116.978 133.642C116.874 133.727 116.743 133.771 116.609 133.765C116.543 133.769 116.477 133.76 116.415 133.736C116.354 133.713 116.298 133.677 116.251 133.631C116.204 133.584 116.168 133.528 116.145 133.466C116.122 133.405 116.112 133.339 116.117 133.273V132.2H115.807V131.999H116.112V131.615H116.348V131.999H116.884V132.2H116.348V133.244C116.342 133.286 116.345 133.329 116.358 133.369C116.371 133.41 116.393 133.447 116.422 133.478C116.452 133.509 116.488 133.532 116.528 133.547C116.568 133.562 116.61 133.567 116.653 133.563C116.747 133.565 116.84 133.534 116.914 133.475L116.978 133.642Z" fill="#263238"/>
<path d="M117.356 131.448C117.356 131.402 117.375 131.358 117.407 131.326C117.439 131.294 117.483 131.275 117.529 131.275C117.574 131.275 117.618 131.294 117.65 131.326C117.683 131.358 117.701 131.402 117.701 131.448C117.701 131.493 117.683 131.537 117.65 131.569C117.618 131.602 117.574 131.62 117.529 131.62C117.483 131.62 117.439 131.602 117.407 131.569C117.375 131.537 117.356 131.493 117.356 131.448ZM117.411 131.999H117.647V133.75H117.411V131.999Z" fill="#263238"/>
<path d="M118.124 132.874C118.124 132.698 118.176 132.527 118.274 132.38C118.372 132.234 118.51 132.12 118.673 132.052C118.835 131.985 119.014 131.967 119.187 132.001C119.359 132.035 119.518 132.119 119.643 132.243C119.767 132.367 119.853 132.525 119.887 132.698C119.922 132.87 119.905 133.049 119.839 133.212C119.772 133.375 119.659 133.514 119.513 133.612C119.367 133.711 119.196 133.764 119.02 133.765C118.901 133.769 118.783 133.749 118.673 133.706C118.563 133.662 118.463 133.597 118.379 133.514C118.295 133.43 118.229 133.33 118.185 133.22C118.142 133.11 118.121 132.993 118.124 132.874ZM119.664 132.874C119.657 132.747 119.613 132.625 119.538 132.523C119.462 132.421 119.358 132.343 119.239 132.299C119.12 132.255 118.99 132.248 118.866 132.277C118.743 132.306 118.63 132.371 118.543 132.463C118.456 132.556 118.398 132.672 118.376 132.797C118.354 132.923 118.369 133.051 118.42 133.168C118.471 133.285 118.555 133.384 118.661 133.453C118.768 133.523 118.892 133.559 119.02 133.558C119.108 133.559 119.195 133.542 119.277 133.507C119.358 133.473 119.431 133.422 119.492 133.357C119.552 133.293 119.599 133.217 119.628 133.134C119.658 133.051 119.67 132.962 119.664 132.874Z" fill="#263238"/>
<path d="M122.016 132.737V133.75H121.78V132.766C121.789 132.693 121.783 132.619 121.76 132.549C121.738 132.48 121.7 132.416 121.649 132.362C121.599 132.309 121.537 132.268 121.469 132.241C121.4 132.215 121.326 132.204 121.253 132.21C121.17 132.204 121.086 132.216 121.008 132.246C120.93 132.276 120.859 132.322 120.801 132.382C120.743 132.442 120.698 132.514 120.671 132.594C120.644 132.673 120.634 132.757 120.643 132.84V133.76H120.407V132.008H120.633V132.348C120.704 132.238 120.803 132.148 120.92 132.089C121.036 132.029 121.167 132.001 121.298 132.008C121.394 132.002 121.492 132.016 121.582 132.05C121.673 132.085 121.756 132.138 121.824 132.208C121.892 132.277 121.945 132.36 121.978 132.451C122.011 132.542 122.024 132.64 122.016 132.737Z" fill="#263238"/>
<path d="M123.807 131.634V132.55H125.007V132.761H123.807V133.745H123.561V131.418H125.155V131.63L123.807 131.634Z" fill="#263238"/>
<path d="M125.529 131.448C125.529 131.402 125.547 131.358 125.579 131.326C125.612 131.294 125.655 131.275 125.701 131.275C125.747 131.275 125.79 131.294 125.823 131.326C125.855 131.358 125.873 131.402 125.873 131.448C125.873 131.493 125.855 131.537 125.823 131.569C125.79 131.602 125.747 131.62 125.701 131.62C125.655 131.62 125.612 131.602 125.579 131.569C125.547 131.537 125.529 131.493 125.529 131.448ZM125.578 131.999H125.814V133.75H125.578V131.999Z" fill="#263238"/>
<path d="M128.092 131.999V133.538C128.111 133.657 128.101 133.778 128.064 133.892C128.026 134.006 127.963 134.11 127.878 134.195C127.793 134.28 127.689 134.344 127.575 134.381C127.461 134.418 127.34 134.428 127.221 134.409C126.926 134.422 126.636 134.328 126.405 134.144L126.523 133.962C126.716 134.121 126.96 134.207 127.211 134.203C127.654 134.203 127.856 133.996 127.856 133.568V133.332C127.782 133.442 127.68 133.531 127.561 133.591C127.442 133.65 127.31 133.678 127.177 133.671C127.06 133.68 126.943 133.665 126.832 133.626C126.721 133.588 126.62 133.527 126.534 133.447C126.448 133.367 126.379 133.271 126.332 133.163C126.285 133.056 126.261 132.94 126.261 132.823C126.261 132.705 126.285 132.589 126.332 132.482C126.379 132.375 126.448 132.278 126.534 132.198C126.62 132.119 126.721 132.058 126.832 132.019C126.943 131.98 127.06 131.965 127.177 131.974C127.312 131.969 127.446 131.998 127.567 132.059C127.687 132.12 127.79 132.211 127.866 132.323V131.989L128.092 131.999ZM127.866 132.83C127.87 132.698 127.834 132.568 127.764 132.456C127.693 132.344 127.591 132.256 127.47 132.202C127.349 132.149 127.215 132.133 127.085 132.157C126.954 132.18 126.834 132.242 126.739 132.334C126.645 132.426 126.579 132.544 126.552 132.673C126.525 132.803 126.537 132.937 126.586 133.06C126.636 133.182 126.721 133.287 126.831 133.361C126.94 133.435 127.069 133.474 127.202 133.475C127.288 133.48 127.374 133.467 127.455 133.438C127.536 133.408 127.61 133.362 127.673 133.303C127.735 133.243 127.785 133.171 127.818 133.091C127.851 133.012 127.867 132.926 127.866 132.84V132.83Z" fill="#263238"/>
<path d="M130.331 131.999V133.75H130.105V133.43C130.039 133.538 129.946 133.625 129.836 133.684C129.725 133.743 129.6 133.771 129.475 133.765C129.374 133.774 129.273 133.761 129.178 133.726C129.083 133.692 128.997 133.636 128.927 133.564C128.856 133.492 128.802 133.405 128.769 133.31C128.736 133.214 128.725 133.112 128.737 133.012V131.999H128.973V132.983C128.962 133.056 128.968 133.13 128.991 133.201C129.013 133.271 129.051 133.336 129.101 133.39C129.152 133.444 129.214 133.485 129.283 133.512C129.352 133.539 129.426 133.549 129.499 133.543C129.582 133.548 129.665 133.534 129.741 133.503C129.818 133.472 129.887 133.424 129.944 133.364C130.001 133.304 130.043 133.232 130.069 133.153C130.095 133.074 130.104 132.991 130.095 132.909V131.989L130.331 131.999Z" fill="#263238"/>
<path d="M131.856 131.984V132.215H131.797C131.713 132.212 131.63 132.226 131.552 132.259C131.475 132.291 131.406 132.34 131.349 132.402C131.293 132.464 131.251 132.537 131.226 132.617C131.202 132.697 131.195 132.782 131.206 132.865V133.755H130.97V132.004H131.197V132.348C131.258 132.229 131.353 132.13 131.471 132.065C131.588 132.001 131.722 131.972 131.856 131.984Z" fill="#263238"/>
<path d="M133.824 132.948H132.348C132.353 133.034 132.375 133.117 132.412 133.194C132.449 133.271 132.502 133.34 132.566 133.396C132.63 133.453 132.704 133.497 132.785 133.524C132.866 133.552 132.951 133.564 133.037 133.558C133.138 133.561 133.238 133.542 133.33 133.502C133.423 133.462 133.506 133.402 133.573 133.327L133.706 133.48C133.58 133.612 133.419 133.703 133.241 133.744C133.064 133.784 132.878 133.771 132.708 133.706C132.538 133.642 132.39 133.528 132.284 133.38C132.178 133.232 132.118 133.057 132.112 132.875C132.106 132.759 132.123 132.643 132.164 132.535C132.204 132.426 132.267 132.327 132.347 132.244C132.427 132.16 132.524 132.094 132.63 132.049C132.737 132.005 132.852 131.983 132.968 131.984C133.083 131.982 133.198 132.003 133.305 132.048C133.412 132.093 133.508 132.159 133.587 132.243C133.667 132.326 133.728 132.426 133.767 132.535C133.806 132.644 133.822 132.759 133.814 132.875C133.814 132.875 133.824 132.919 133.824 132.948ZM132.348 132.771H133.588C133.588 132.607 133.522 132.449 133.406 132.333C133.29 132.217 133.132 132.151 132.968 132.151C132.803 132.151 132.646 132.217 132.529 132.333C132.413 132.449 132.348 132.607 132.348 132.771Z" fill="#263238"/>
<path d="M114.355 143.083V144.107H113.445V143.123C112.632 143.098 111.842 142.844 111.167 142.39L111.659 141.278C112.185 141.645 112.797 141.869 113.435 141.927V140.402C112.417 140.151 111.285 139.817 111.285 138.508C111.285 137.524 111.989 136.707 113.435 136.54V135.526H114.346V136.51C115 136.548 115.635 136.74 116.2 137.071L115.743 138.193C115.314 137.938 114.839 137.771 114.346 137.701V139.256C115.359 139.492 116.476 139.831 116.476 141.12C116.486 142.09 115.792 142.911 114.355 143.083ZM113.445 139.049V137.76C112.953 137.868 112.766 138.134 112.766 138.434C112.766 138.734 113.042 138.921 113.445 139.049ZM115.015 141.248C115.015 140.929 114.749 140.756 114.355 140.619V141.878C114.813 141.78 115.015 141.544 115.015 141.248Z" fill="#263238"/>
<path d="M121.873 141.804V143.014H117.042V142.055L119.502 139.723C120.073 139.182 120.171 138.857 120.171 138.542C120.171 138.05 119.822 137.75 119.148 137.75C118.891 137.74 118.637 137.793 118.406 137.905C118.175 138.016 117.975 138.183 117.824 138.39L116.747 137.696C117.038 137.302 117.422 136.988 117.866 136.78C118.309 136.572 118.797 136.478 119.285 136.505C120.712 136.505 121.662 137.238 121.662 138.399C121.662 139.019 121.485 139.585 120.589 140.417L119.113 141.804H121.873Z" fill="#263238"/>
<path d="M122.469 139.816C122.469 137.706 123.639 136.505 125.209 136.505C126.778 136.505 127.949 137.706 127.949 139.816C127.949 141.927 126.788 143.123 125.209 143.123C123.63 143.123 122.469 141.927 122.469 139.816ZM126.464 139.816C126.464 138.34 125.972 137.76 125.209 137.76C124.446 137.76 123.969 138.36 123.969 139.816C123.969 141.273 124.461 141.868 125.209 141.868C125.957 141.868 126.444 141.268 126.444 139.816H126.464Z" fill="#263238"/>
<path d="M128.673 139.816C128.673 137.706 129.844 136.505 131.413 136.505C132.983 136.505 134.153 137.706 134.153 139.816C134.153 141.927 132.992 143.123 131.413 143.123C129.834 143.123 128.673 141.927 128.673 139.816ZM132.663 139.816C132.663 138.34 132.171 137.76 131.413 137.76C130.655 137.76 130.168 138.36 130.168 139.816C130.168 141.273 130.66 141.868 131.413 141.868C132.166 141.868 132.663 141.268 132.663 139.816Z" fill="#263238"/>
<path d="M132.914 159.3H112.515C111.25 159.298 110.037 158.795 109.142 157.9C108.247 157.006 107.744 155.793 107.743 154.527C107.743 153.261 108.246 152.047 109.14 151.151C110.035 150.255 111.249 149.751 112.515 149.75H132.914C133.541 149.75 134.162 149.874 134.741 150.114C135.32 150.354 135.847 150.706 136.29 151.15C136.733 151.593 137.085 152.12 137.324 152.699C137.564 153.279 137.687 153.9 137.686 154.527C137.686 155.793 137.183 157.007 136.288 157.902C135.393 158.797 134.179 159.3 132.914 159.3Z" fill="#263238"/>
<path d="M116.171 153.996C116.171 154.596 115.738 154.955 115.025 154.955H114.267V155.841H113.972V153.037H115.025C115.738 153.056 116.171 153.415 116.171 153.996ZM115.871 153.996C115.871 153.548 115.576 153.292 115.015 153.292H114.267V154.695H115.015C115.576 154.714 115.871 154.459 115.871 153.996Z" fill="white"/>
<path d="M118.321 154.552V155.861H118.05V155.531C117.971 155.649 117.862 155.743 117.734 155.805C117.606 155.866 117.464 155.892 117.322 155.88C116.83 155.88 116.555 155.634 116.555 155.265C116.555 154.896 116.761 154.67 117.366 154.67H118.036V154.542C118.036 154.183 117.834 153.986 117.44 153.986C117.184 153.982 116.935 154.069 116.737 154.232L116.609 154.021C116.854 153.828 117.158 153.727 117.47 153.735C117.582 153.719 117.697 153.729 117.805 153.763C117.914 153.798 118.013 153.857 118.095 153.936C118.177 154.015 118.24 154.111 118.279 154.218C118.318 154.325 118.333 154.439 118.321 154.552ZM118.036 155.226V154.882H117.376C116.968 154.882 116.835 155.044 116.835 155.26C116.835 155.477 117.032 155.659 117.366 155.659C117.51 155.668 117.652 155.631 117.773 155.553C117.893 155.475 117.985 155.36 118.036 155.226Z" fill="white"/>
<path d="M120.825 153.75L119.772 156.112C119.595 156.525 119.374 156.658 119.074 156.658C118.887 156.657 118.707 156.585 118.572 156.456L118.705 156.245C118.754 156.296 118.814 156.337 118.88 156.365C118.946 156.393 119.017 156.407 119.088 156.407C119.28 156.407 119.408 156.318 119.526 156.053L119.62 155.846L118.675 153.74H118.975L119.767 155.536L120.54 153.75H120.825Z" fill="white"/>
<path d="M123.231 155.88V156.343H123.029V155.885C122.676 155.882 122.336 155.753 122.07 155.521L122.188 155.29C122.421 155.497 122.718 155.617 123.029 155.629V154.576C122.587 154.468 122.139 154.33 122.139 153.799C122.139 153.415 122.414 153.081 123.029 153.036V152.574H123.231V153.012C123.519 153.017 123.801 153.102 124.043 153.258L123.945 153.494C123.729 153.36 123.484 153.28 123.231 153.263V154.326C123.684 154.434 124.161 154.562 124.161 155.098C124.161 155.506 123.866 155.846 123.231 155.88ZM123.029 154.296V153.312C122.616 153.346 122.429 153.558 122.429 153.804C122.429 154.05 122.7 154.207 123.029 154.296ZM123.866 155.137C123.866 154.818 123.576 154.709 123.231 154.645V155.629C123.669 155.595 123.866 155.393 123.866 155.137Z" fill="white"/>
<path d="M126.474 155.605V155.861H124.506V155.659L125.672 154.512C125.986 154.203 126.046 154.02 126.046 153.819C126.046 153.494 125.819 153.297 125.391 153.297C125.248 153.29 125.106 153.314 124.973 153.368C124.841 153.421 124.721 153.503 124.624 153.607L124.417 153.43C124.543 153.297 124.696 153.192 124.866 153.123C125.035 153.055 125.218 153.023 125.401 153.032C125.967 153.032 126.331 153.322 126.331 153.789C126.324 153.96 126.279 154.128 126.199 154.279C126.119 154.431 126.006 154.563 125.868 154.665L124.914 155.605H126.474Z" fill="white"/>
<path d="M126.818 154.459C126.818 153.563 127.285 153.032 127.934 153.032C128.584 153.032 129.056 153.563 129.056 154.459C129.056 155.354 128.564 155.885 127.934 155.885C127.305 155.885 126.818 155.354 126.818 154.459ZM128.761 154.459C128.761 153.711 128.426 153.297 127.934 153.297C127.442 153.297 127.108 153.711 127.108 154.459C127.108 155.206 127.447 155.62 127.934 155.62C128.422 155.62 128.761 155.206 128.761 154.459Z" fill="white"/>
<path d="M129.47 154.459C129.47 153.563 129.962 153.032 130.591 153.032C131.221 153.032 131.713 153.563 131.713 154.459C131.713 155.354 131.221 155.885 130.591 155.885C129.962 155.885 129.47 155.354 129.47 154.459ZM131.438 154.459C131.438 153.711 131.103 153.297 130.616 153.297C130.129 153.297 129.79 153.711 129.79 154.459C129.79 155.206 130.124 155.62 130.616 155.62C131.108 155.62 131.413 155.206 131.413 154.459H131.438Z" fill="white"/>
<path d="M91.8513 144.274C92.5893 155.615 87.3347 168.244 87.3347 168.244L58.9512 160.254L54.0017 158.857C58.9217 152.023 61.2636 138.562 59.9795 127.669C59.8811 126.847 59.8221 126.075 59.7778 125.337C59.2858 116.353 63.0201 113.726 66.1738 109.755C69.6178 105.455 77.2831 89.2193 77.2831 85.3768C77.2831 81.5343 86.9017 72.1272 84.7615 61.4508C84.7615 61.4508 87.6693 59.6452 90.5917 61.1261C91.9202 61.7952 93.2436 63.1384 94.3113 65.6279C96.8155 71.4778 93.2977 88.0139 90.3064 92.068L84.5451 115.92C84.5451 115.92 86.4885 119.271 88.3974 125.352C90.295 131.5 91.4545 137.852 91.8513 144.274Z" fill="#C99589"/>
<path opacity="0.4" d="M59.7779 125.337C61.3868 129.741 63.094 132.717 62.9464 138.887C62.7988 145.057 59.5024 154.552 60.4421 159.487C59.9053 159.645 59.4041 159.906 58.9661 160.254L54.0166 158.857C58.9366 152.023 61.2785 138.562 59.9944 127.669C59.8812 126.848 59.8222 126.075 59.7779 125.337Z" fill="#9D7D76"/>
<path opacity="0.4" d="M90.3065 92.0681L84.5452 115.92C84.5452 115.92 86.4886 119.271 88.3976 125.352C84.496 119.064 81.1799 117.185 81.1799 117.185C83.7777 114.07 85.7801 91.2907 85.7801 91.2907C85.7801 91.2907 93.9227 81.7213 93.1601 71.7091C92.9154 68.0606 92.0467 64.4811 90.5919 61.1262C91.9203 61.7953 93.2438 63.1385 94.3114 65.628C96.8157 71.4779 93.2979 88.014 90.3065 92.0681Z" fill="#9D7D76"/>
<path d="M54.0017 158.857C58.9217 152.023 61.2636 138.562 59.9844 127.669C58.7052 116.776 62.7593 114.051 66.1787 109.751C69.5981 105.45 77.2831 89.2194 77.2831 85.3719C77.2831 81.5245 86.8968 72.1322 84.7615 61.4509C84.7615 61.4509 90.8968 57.6477 94.3113 65.628C96.8155 71.4828 93.2977 88.014 90.3064 92.073L84.55 115.92C84.55 115.92 90.6951 126.523 91.8513 144.274C92.5893 155.615 87.3347 168.249 87.3347 168.249" stroke="#263238" stroke-width="0.492" stroke-linecap="round" stroke-linejoin="round"/>
<path d="M72.9731 177.322C72.9731 177.322 79.4331 181.297 83.2018 187.585" stroke="#263238" stroke-width="0.492" stroke-linecap="round" stroke-linejoin="round"/>
<path d="M91.1182 184.844C91.1182 184.844 85.5537 185.636 80.5254 179.619C77.3028 175.767 67.517 174.025 65.2734 163.949" stroke="#263238" stroke-width="0.492" stroke-linecap="round" stroke-linejoin="round"/>
<path opacity="0.2" d="M171.993 214.64C157.75 207.826 166.375 202.364 146.778 193.907C127.182 185.449 126.985 178.222 129.347 161.602C131.708 144.982 129.839 127.305 135.536 125.804C141.234 124.304 131.079 101.381 137.721 93.2781L170.409 156.864L171.993 214.64Z" fill="black" fill-opacity="0.7"/>
<path d="M225.065 213.976C224.396 212.062 223.717 209.971 223.191 208.072C222.512 205.612 221.98 203.644 220.731 201.356C220.534 200.992 220.322 200.608 220.086 200.195C218.753 197.819 216.928 194.566 215.86 190.571C215.142 187.88 215.86 181.253 216.529 174.827C217.021 170.212 217.469 165.858 217.336 163.388L217.297 162.513C216.962 156.053 216.263 142.611 214.837 138.897C213.434 135.315 212.126 134.779 209.74 133.824C209.494 133.716 209.248 133.617 208.962 133.499C208.067 133.125 206.542 132.338 204.785 131.428C200.824 129.376 195.895 126.823 193.39 126.508C191.048 126.245 188.678 126.354 186.37 126.833C183.285 124.466 178.035 121.421 176.47 121.357C175.191 121.293 172.397 122.095 171.058 122.513L170.384 122.729C169.537 122.072 168.639 121.483 167.698 120.968C167.634 120.934 167.57 120.909 167.516 120.885C165.779 120.171 163.157 120.147 161.725 120.186C161.292 120.186 160.953 120.23 160.8 120.245C158.099 116.087 155.442 111.95 154.286 110.134C151.875 106.316 144.412 90.6068 144.338 90.4543C144.329 90.4341 144.316 90.4163 144.299 90.4025C144.282 90.3888 144.261 90.3795 144.24 90.3756C144.217 90.3724 144.194 90.3724 144.171 90.3756C143.59 90.2083 139.315 89.121 137.598 93.2636C135.718 97.7753 138.4 107.679 141.017 111.276C142.276 113.008 145.716 120.073 149.204 127.384C148.308 128.215 141.145 134.833 137.666 136.068C134.818 137.076 135.487 151.679 136.023 163.403C136.225 167.733 136.392 171.457 136.343 173.696C136.245 178.025 144.121 183.988 151.757 189.755C158.645 194.98 165.789 200.377 166.626 204.298C166.857 205.4 167.516 206.296 168.303 207.304C169.617 208.977 171.309 210.95 172.028 214.684C172.239 215.806 174.04 217.272 175.472 219.668H227.151C226.718 218.502 225.902 216.377 225.065 213.976ZM153.396 136.191C155.9 141.435 157.45 144.555 157.824 144.904C158.198 145.253 158.173 146.916 158.163 148.535C158.109 149.952 158.159 151.371 158.311 152.781C157.701 153.317 153.848 156.825 153.071 159.669L149.799 155.817L148.973 143.728C149.465 143.207 152.83 139.649 153.396 136.191Z" fill="#C99589"/>
<path opacity="0.4" d="M210.237 169.892C211.452 181.233 211.467 187.383 212.829 190.665C215.132 196.205 218.522 197.326 218.522 197.326C217.395 195.179 216.499 192.918 215.85 190.581C215.137 187.89 215.85 181.263 216.519 174.837C217.011 170.222 217.464 165.863 217.336 163.393L217.292 162.517C216.957 156.062 216.259 142.621 214.832 138.901C213.435 135.32 212.121 134.783 209.735 133.824C209.489 133.721 209.243 133.622 208.957 133.504C208.062 133.13 206.542 132.343 204.78 131.433C200.82 129.381 195.89 126.828 193.386 126.513C191.043 126.247 188.673 126.356 186.365 126.838C183.28 124.471 178.03 121.426 176.466 121.362C175.187 121.298 171.718 122.306 170.37 122.734C176.274 127.551 184.776 133.558 184.776 133.558C191.501 134.896 190.64 137.814 193.361 139.462C195.821 140.938 198.173 136.618 200.249 136.24C202.965 135.748 206.05 138.611 205.912 142.085C205.489 151.654 209.194 160.156 210.237 169.892Z" fill="#5A5A5A"/>
<path opacity="0.4" d="M176.239 134.749C176.239 134.749 170.911 130.321 168.367 128.845C165.824 127.369 165.415 122.282 167.423 121.047C167.499 121.001 167.585 120.974 167.674 120.968L167.492 120.884C165.755 120.171 163.132 120.142 161.701 120.186C164.653 125.681 167.009 129.898 167.644 130.823C169.784 133.913 176.239 134.749 176.239 134.749Z" fill="#06A38B"/>
<path opacity="0.4" d="M168.156 203.609C168.382 202.433 166.444 198.989 165.592 197.592C163.659 194.404 141.209 174.567 144.461 169.273C147.713 163.979 150.685 167.895 152.741 168.239C154.217 168.485 158.272 166.07 158.252 165.868C157.789 161.789 161.553 159.137 161.553 159.137C161.553 159.137 161.209 142.901 160.343 143.177C159.477 143.453 149.115 118.798 149.115 118.798C149.115 118.798 138.163 104.235 138.783 97.4407C139.403 90.6462 144.156 90.5281 144.156 90.5281V90.346C143.575 90.1788 139.3 89.0914 137.583 93.2341C135.703 97.7457 138.385 107.65 141.002 111.246C142.262 112.978 145.701 120.043 149.189 127.354C148.294 128.186 141.13 134.803 137.652 136.038C134.803 137.047 135.472 151.649 136.009 163.374C136.21 167.703 136.378 171.428 136.328 173.666C136.23 177.996 144.107 183.959 151.743 189.725C158.631 194.95 165.775 200.347 166.611 204.269C166.842 205.371 167.501 206.266 168.289 207.275C168.132 206.06 168.087 204.833 168.156 203.609ZM153.396 136.205C155.9 141.45 157.45 144.569 157.824 144.919C158.198 145.268 158.173 146.931 158.163 148.55C158.109 149.967 158.159 151.386 158.311 152.796C157.701 153.332 153.848 156.84 153.071 159.684L149.799 155.831L148.973 143.743C149.465 143.207 152.83 139.649 153.396 136.191V136.205Z" fill="#9D7D76"/>
<path d="M173.184 134.685C170.985 133.993 169.054 132.639 167.654 130.808C165.405 127.797 156.574 114.08 154.129 110.213C151.683 106.346 144.156 90.5278 144.156 90.5278C144.156 90.5278 139.531 88.978 137.73 93.2978C135.93 97.6175 138.395 107.379 141.135 111.138C143.875 114.897 156.899 143.841 157.932 144.776C158.965 145.711 157.415 153.435 159.487 155.305" stroke="#263238" stroke-width="0.492" stroke-linecap="round" stroke-linejoin="round"/>
<path d="M158.493 152.85C158.493 152.85 153.72 157.007 153.16 160.043L149.617 155.875L148.781 143.664C148.781 143.664 153.056 139.384 153.292 135.575" stroke="#263238" stroke-width="0.492" stroke-linecap="round" stroke-linejoin="round"/>
<path d="M149.386 127.369C149.386 127.369 141.46 134.847 137.691 136.181C133.922 137.514 136.673 165.533 136.486 173.646C136.299 181.759 164.997 195.895 166.759 204.2C167.457 207.506 170.35 208.18 172.116 214.532" stroke="#263238" stroke-width="0.492" stroke-linecap="round" stroke-linejoin="round"/>
<path d="M160.667 120.407C160.667 120.407 164.982 120.018 167.413 121.032C169.843 122.045 179.713 130.522 182.094 132.141C184.475 133.76 188.057 134.375 188.736 136.121" stroke="#263238" stroke-width="0.492" stroke-linecap="round" stroke-linejoin="round"/>
<path d="M170.316 122.906C170.316 122.906 174.744 121.43 176.436 121.514C178.129 121.598 184.495 125.352 187.349 127.861C189.535 129.801 192.054 131.331 194.783 132.377" stroke="#263238" stroke-width="0.492" stroke-linecap="round" stroke-linejoin="round"/>
<path d="M186.311 127.01C188.621 126.512 190.998 126.398 193.346 126.67C196.948 127.162 205.991 132.476 208.874 133.676C211.757 134.877 213.134 135.098 214.65 138.975C216.165 142.852 216.859 157.592 217.164 163.418C217.469 169.243 214.433 185.927 215.688 190.62C216.942 195.314 219.206 198.935 220.578 201.444" stroke="#263238" stroke-width="0.492" stroke-linecap="round" stroke-linejoin="round"/>
<path d="M148.781 143.664C148.781 143.664 148.092 140.786 147.108 140.417" stroke="#263238" stroke-width="0.492" stroke-linecap="round" stroke-linejoin="round"/>
<path d="M149.617 155.876C149.949 157.553 150.398 159.205 150.96 160.82C151.669 162.567 150.567 165.096 150.567 165.096" stroke="#263238" stroke-width="0.492" stroke-linecap="round" stroke-linejoin="round"/>
<path d="M153.16 160.043C153.046 162.837 155.826 166.104 156.5 165.642" stroke="#263238" stroke-width="0.492" stroke-linecap="round" stroke-linejoin="round"/>
<path d="M167.314 143.664C167.314 143.664 170.301 138.833 173.164 138.596C176.028 138.36 179.334 142.424 181.1 142.04C182.867 141.657 185.09 139.059 188.062 138.596C191.034 138.134 192.426 139.551 194.783 139.669C197.139 139.787 197.381 136.638 200.195 136.225C203.009 135.812 203.968 137.209 205.858 137.573C207.747 137.937 208.219 136.446 209.749 135.605" stroke="#263238" stroke-width="0.492" stroke-linecap="round" stroke-linejoin="round"/>
</svg>
