<svg width="140" height="37" viewBox="0 0 140 37" fill="none" xmlns="http://www.w3.org/2000/svg">
<mask id="mask0_3026_20390" style="mask-type:luminance" maskUnits="userSpaceOnUse" x="1" y="2" width="33" height="33">
<path d="M33.9062 2.0498H1.09375V34.8623H33.9062V2.0498Z" fill="white"/>
</mask>
<g mask="url(#mask0_3026_20390)">
<path d="M17.5002 2.0498C8.43566 2.0498 1.09375 9.39158 1.09375 18.456C1.09375 22.6806 2.74998 26.6063 5.56248 29.7124C6.14573 30.3588 7.08745 30.383 7.70312 29.7673L15.9207 21.5499C16.401 21.0696 17.2189 21.4071 17.2189 22.0864L17.2127 33.3857C17.2127 34.2147 17.7783 34.7803 18.6073 34.7803C24.9647 34.7803 33.9062 28.833 33.9062 18.456C33.9067 9.39158 26.5648 2.0498 17.5002 2.0498ZM4.70317 18.456C4.70317 11.4014 10.4454 5.65918 17.5002 5.65918C24.555 5.65918 30.2973 11.4014 30.2973 18.456C30.2973 20.917 29.5717 23.3636 28.2346 25.4291C28.2029 25.4767 28.1357 25.4828 28.0943 25.4439L18.5252 15.8717C17.9506 15.297 17.0482 15.297 16.4744 15.8717L6.90452 25.4398C6.86432 25.48 6.7958 25.4722 6.76424 25.425C5.42711 23.359 4.70235 20.917 4.70235 18.456H4.70317Z" fill="#191919"/>
</g>
<path d="M84.0115 4.41771C84.7301 5.10961 85.2026 6.02459 85.3125 7.01897C85.3125 7.43481 85.2026 7.71082 84.9532 8.23637C84.7038 8.76191 81.6293 14.0778 80.7144 15.5448C80.1888 16.4031 79.9127 17.4276 79.9127 18.4258C79.9127 19.424 80.1888 20.4486 80.7144 21.3068C81.6293 22.7738 84.7038 28.1199 84.9532 28.6455C85.2026 29.171 85.3125 29.4206 85.3125 29.8365C85.2026 30.8346 84.7602 31.7458 84.0383 32.4112C83.3459 33.1296 82.431 33.6022 81.463 33.6854C81.0474 33.6854 80.7713 33.5757 80.272 33.3262C79.7727 33.0767 74.3466 30.086 72.8793 29.171C72.7699 29.1143 72.6562 29.0311 72.52 28.9782L65.2641 24.6869C65.4303 26.0707 66.039 27.4016 67.0376 28.3695C67.2301 28.5623 67.427 28.7286 67.6462 28.895C67.48 28.9782 67.287 29.0614 67.1207 29.171C65.6534 30.086 60.3066 33.1599 59.7811 33.4094C59.2555 33.6589 59.0056 33.7685 58.5632 33.7685C57.5652 33.6589 56.6541 33.2166 55.9885 32.4944C55.2699 31.8025 54.7974 30.8875 54.6875 29.8932C54.7138 29.4773 54.8275 29.0614 55.0468 28.7022C55.2962 28.1766 58.3707 22.8305 59.2856 21.3636C59.8112 20.5053 60.0873 19.5071 60.0873 18.4825C60.0873 17.4579 59.8112 16.4598 59.2856 15.6015C58.3707 14.0778 55.2699 8.73544 55.0468 8.2099C54.8237 7.85071 54.7138 7.43481 54.6875 7.01897C54.7974 6.02081 55.2398 5.10961 55.9617 4.41771C56.6541 3.69935 57.569 3.2532 58.5632 3.14355C58.9794 3.17002 59.395 3.28345 59.7811 3.50274C60.2235 3.69556 64.1293 5.96786 66.2052 7.18533L66.6783 7.46128C66.8445 7.57093 66.9845 7.65411 67.0939 7.71082L67.317 7.85071L74.7097 12.2252C74.5434 10.5654 73.6848 9.04169 72.3538 8.01707C72.52 7.93389 72.713 7.85071 72.8793 7.74106C74.3466 6.82614 79.6934 3.72581 80.2189 3.50274C80.5782 3.27967 80.9944 3.17002 81.4368 3.14355C82.4048 3.2532 83.3197 3.69556 84.0115 4.41771ZM70.3877 20.4221L71.9644 18.8455C72.1875 18.6224 72.1875 18.2935 71.9644 18.0704L70.3877 16.4938C70.1646 16.2707 69.8354 16.2707 69.6123 16.4938L68.0356 18.0704C67.8125 18.2935 67.8125 18.6224 68.0356 18.8455L69.6123 20.4221C69.8053 20.6149 70.1646 20.6149 70.3877 20.4221ZM84.0115 4.41771C84.7301 5.10961 85.2026 6.02459 85.3125 7.01897C85.3125 7.43481 85.2026 7.71082 84.9532 8.23637C84.7038 8.76191 81.6293 14.0778 80.7144 15.5448C80.1888 16.4031 79.9127 17.4276 79.9127 18.4258C79.9127 19.424 80.1888 20.4486 80.7144 21.3068C81.6293 22.7738 84.7038 28.1199 84.9532 28.6455C85.2026 29.171 85.3125 29.4206 85.3125 29.8365C85.2026 30.8346 84.7602 31.7458 84.0383 32.4112C83.3459 33.1296 82.431 33.6022 81.463 33.6854C81.0474 33.6854 80.7713 33.5757 80.272 33.3262C79.7727 33.0767 74.3466 30.086 72.8793 29.171C72.7699 29.1143 72.6562 29.0311 72.52 28.9782L65.2641 24.6869C65.4303 26.0707 66.039 27.4016 67.0376 28.3695C67.2301 28.5623 67.427 28.7286 67.6462 28.895C67.48 28.9782 67.287 29.0614 67.1207 29.171C65.6534 30.086 60.3066 33.1599 59.7811 33.4094C59.2555 33.6589 59.0056 33.7685 58.5632 33.7685C57.5652 33.6589 56.6541 33.2166 55.9885 32.4944C55.2699 31.8025 54.7974 30.8875 54.6875 29.8932C54.7138 29.4773 54.8275 29.0614 55.0468 28.7022C55.2962 28.1766 58.3707 22.8305 59.2856 21.3636C59.8112 20.5053 60.0873 19.5071 60.0873 18.4825C60.0873 17.4579 59.8112 16.4598 59.2856 15.6015C58.3707 14.0778 55.2699 8.73544 55.0468 8.2099C54.8237 7.85071 54.7138 7.43481 54.6875 7.01897C54.7974 6.02081 55.2398 5.10961 55.9617 4.41771C56.6541 3.69935 57.569 3.2532 58.5632 3.14355C58.9794 3.17002 59.395 3.28345 59.7811 3.50274C60.2235 3.69556 64.1293 5.96786 66.2052 7.18533L66.6783 7.46128C66.8445 7.57093 66.9845 7.65411 67.0939 7.71082L67.317 7.85071L74.7097 12.2252C74.5434 10.5654 73.6848 9.04169 72.3538 8.01707C72.52 7.93389 72.713 7.85071 72.8793 7.74106C74.3466 6.82614 79.6934 3.72581 80.2189 3.50274C80.5782 3.27967 80.9944 3.17002 81.4368 3.14355C82.4048 3.2532 83.3197 3.69556 84.0115 4.41771ZM70.3877 20.4221L71.9644 18.8455C72.1875 18.6224 72.1875 18.2935 71.9644 18.0704L70.3877 16.4938C70.1646 16.2707 69.8354 16.2707 69.6123 16.4938L68.0356 18.0704C67.8125 18.2935 67.8125 18.6224 68.0356 18.8455L69.6123 20.4221C69.8053 20.6149 70.1646 20.6149 70.3877 20.4221Z" fill="#FF694A"/>
<mask id="mask1_3026_20390" style="mask-type:luminance" maskUnits="userSpaceOnUse" x="108" y="1" width="29" height="35">
<path d="M136.744 1.68506H108.256V35.2267H136.744V1.68506Z" fill="white"/>
</mask>
<g mask="url(#mask1_3026_20390)">
<path d="M136.744 10.0987L122.503 1.68506V7.50696L136.744 15.8836V10.0975V10.0987Z" fill="#FF6492"/>
<path d="M136.744 15.8834L132.472 18.4214L122.5 12.5409L116.803 15.8882L112.529 13.5367L122.502 7.50684L136.744 15.8834Z" fill="#141446"/>
<path d="M116.803 15.8881L112.529 13.5366V18.4213L116.803 15.8881Z" fill="#A14474"/>
<path d="M108.256 26.7442L122.5 18.4214L136.744 26.7442L122.5 35.1578L108.256 26.7442Z" fill="#141446"/>
<path d="M136.744 20.9678L122.5 12.4502V18.4215L136.744 26.7443V20.9678Z" fill="#FF6492"/>
<path d="M112.529 18.4215V13.5369L122.502 7.50696V1.68506L108.256 10.0987V26.7443L122.5 18.4215V12.4502L112.529 18.4215Z" fill="#7A77FF"/>
</g>
</svg>
