<svg width="150" height="56" viewBox="0 0 150 56" fill="none" xmlns="http://www.w3.org/2000/svg">
<path d="M37.8416 18.8799L44.8794 29.1399L37.9906 37.1199H39.5169L45.5534 30.1224L50.3534 37.1199H56.12L48.7672 26.4014L55.2556 18.8799H53.7341L48.0922 25.4161L43.6081 18.8799H37.8416ZM39.6641 19.8399H43.1028L54.2975 36.1599H50.8587L39.6641 19.8399Z" fill="#E5E5E5"/>
<path d="M98.6799 17.4404C95.2395 17.4404 92.4399 20.24 92.4399 23.6804V32.3204C92.4399 35.7608 95.2395 38.5604 98.6799 38.5604H107.32C110.76 38.5604 113.56 35.7608 113.56 32.3204V23.6804C113.56 20.24 110.76 17.4404 107.32 17.4404H98.6799ZM98.6799 18.4004H107.32C110.241 18.4004 112.6 20.7589 112.6 23.6804V32.3204C112.6 35.2419 110.241 37.6004 107.32 37.6004H98.6799C95.7584 37.6004 93.3999 35.2419 93.3999 32.3204V23.6804C93.3999 20.7589 95.7584 18.4004 98.6799 18.4004ZM108.76 21.2804C108.505 21.2804 108.261 21.3816 108.081 21.5616C107.901 21.7416 107.8 21.9858 107.8 22.2404C107.8 22.495 107.901 22.7392 108.081 22.9193C108.261 23.0993 108.505 23.2004 108.76 23.2004C109.015 23.2004 109.259 23.0993 109.439 22.9193C109.619 22.7392 109.72 22.495 109.72 22.2404C109.72 21.9858 109.619 21.7416 109.439 21.5616C109.259 21.3816 109.015 21.2804 108.76 21.2804ZM103 22.7204C100.09 22.7204 97.7199 25.0901 97.7199 28.0004C97.7199 30.9108 100.09 33.2804 103 33.2804C105.91 33.2804 108.28 30.9108 108.28 28.0004C108.28 25.0901 105.91 22.7204 103 22.7204ZM103 23.6804C105.391 23.6804 107.32 25.6089 107.32 28.0004C107.32 30.392 105.391 32.3204 103 32.3204C100.608 32.3204 98.6799 30.392 98.6799 28.0004C98.6799 25.6089 100.608 23.6804 103 23.6804Z" fill="#E5E5E5"/>
</svg>
