<svg width="218" height="214" viewBox="0 0 218 214" fill="none" xmlns="http://www.w3.org/2000/svg">
<path d="M126.245 212.653C122.508 211.366 120.314 208.365 117.429 204.421C115.412 201.663 112.771 197.906 109.42 193.15C98.6852 177.911 80.717 152.398 63.1156 131.486C38.5734 102.328 28.0884 97.9711 25.3268 97.3293C23.8681 99.9522 19.7112 111.744 26.2539 155.135C27.184 161.278 22.9572 167.009 16.8073 167.937C10.6644 168.867 4.93358 164.64 4.00589 158.49C-3.62542 107.965 0.0325857 83.4129 16.2357 76.3974C22.696 73.6014 29.3197 74.6375 34.9663 76.8522C31.5946 71.5105 28.9319 67.1506 26.8843 63.653C25.007 60.4442 23.6656 57.9594 22.7714 56.0649C18.1912 46.3326 23.1092 41.2206 25.4391 39.4768C26.6889 38.5429 33.3093 34.1998 41.0617 40.7332C42.2495 41.7294 43.626 43.0761 45.405 44.9581C48.2262 47.9368 52.0724 52.3156 57.1733 58.3482C66.5242 69.4065 78.8771 84.5766 91.954 100.639C92.2399 100.983 92.5234 101.334 92.8069 101.686C79.4146 80.3909 66.7928 60.3132 57.4687 44.6634C52.276 35.9496 48.5795 29.4092 46.1672 24.6676C44.6552 21.6877 43.6438 19.4197 42.9938 17.5299C42.4382 15.9187 42.1199 14.5398 42.0006 13.182C41.5992 8.72841 43.4476 4.60564 46.9421 2.15246C48.6595 0.943358 54.8633 -2.53589 62.5382 3.43941C64.0633 4.63105 65.8071 6.24706 68.0232 8.54138C71.514 12.1553 76.1859 17.4531 82.2989 24.7387C88.0064 31.5435 94.6141 39.6499 101.593 48.3126C100.016 45.2705 98.7536 42.6702 97.782 40.4476C96.0291 36.417 91.3662 25.7044 99.9292 19.4523C102.56 17.5265 108.146 15.0562 116.023 20.0777C118.137 21.4246 120.65 23.4088 123.711 26.129C127.87 29.8303 133.232 35.1041 139.686 41.8167C140.059 36.2657 141.916 30.5515 147.293 27.1921C158.625 20.109 171.751 31.7931 178.049 37.4131C187.274 45.6358 199.153 58.3345 214.349 76.2368C218.372 80.9779 217.791 88.0757 213.052 92.0914C208.311 96.1142 201.213 95.5334 197.198 90.7947C181.048 71.7705 170.626 61.0573 164.031 55.0335C165.538 60.6295 168.025 67.4116 171.734 74.0992C174.244 78.6283 177.319 83.035 180.908 87.2619C181.792 88.2645 182.603 89.1786 183.237 89.8965L184.278 91.0169C185.419 92.2189 188.093 95.0277 187.919 99.791L184.24 107.709L176.052 110.616C171.318 110.358 169.012 107.771 166.575 105.036L166.547 105.002C165.649 104.018 164.769 103.025 163.909 102.023C163.355 101.396 162.762 100.724 162.124 99.9962C158.918 96.3614 154.788 91.6785 150.16 86.4831C151.238 88.2348 152.274 89.9244 153.262 91.5257C161.617 105.105 169.504 117.927 175.171 127.796C178.323 133.292 180.559 137.465 181.994 140.553C182.992 142.698 183.641 144.405 184.053 145.927C186.272 154.18 181.257 158.513 179.671 159.64C177.949 160.863 171.732 164.402 164.027 158.4C162.502 157.208 160.758 155.592 158.537 153.289C155.039 149.672 150.363 144.365 144.245 137.07C140.785 132.951 136.998 128.354 133.001 123.448C140.135 134.908 146.796 145.762 152.35 155.131C158.214 165.028 162.387 172.487 165.096 177.933C166.763 181.292 167.915 183.957 168.61 186.085C171.655 195.415 166.844 200.103 164.638 201.692C162.407 203.287 156.371 206.348 148.386 200.306C146.531 198.898 144.289 196.864 141.527 194.08C139.297 191.829 136.696 189.061 133.689 185.724C135.032 187.837 136.148 189.617 137.048 191.102C138.152 192.918 138.961 194.323 139.52 195.396C144.607 205.152 137.399 210.625 136.551 211.222L128.088 213.13C127.43 213.014 126.81 212.856 126.236 212.658L126.245 212.653Z" fill="#8B7FFF"/>
</svg>
